<?xml version="1.0" encoding="UTF-8" standalone="no"?>
<svg
   xmlns:dc="http://purl.org/dc/elements/1.1/"
   xmlns:cc="http://creativecommons.org/ns#"
   xmlns:rdf="http://www.w3.org/1999/02/22-rdf-syntax-ns#"
   xmlns:svg="http://www.w3.org/2000/svg"
   xmlns="http://www.w3.org/2000/svg"
   xmlns:sodipodi="http://sodipodi.sourceforge.net/DTD/sodipodi-0.dtd"
   xmlns:inkscape="http://www.inkscape.org/namespaces/inkscape"
   width="420mm"
   height="540mm"
   viewBox="0 9460 420 540"
   version="1.1"
   id="svg10691"
   sodipodi:docname="16 sm monster.svg"
   inkscape:version="0.91 r13725">
  <metadata
     id="metadata10697">
    <rdf:RDF>
      <cc:Work
         rdf:about="">
        <dc:format>image/svg+xml</dc:format>
        <dc:type
           rdf:resource="http://purl.org/dc/dcmitype/StillImage" />
        <dc:title />
      </cc:Work>
    </rdf:RDF>
  </metadata>
  <defs
     id="defs10695" />
  <sodipodi:namedview
     pagecolor="#ffffff"
     bordercolor="#666666"
     borderopacity="1"
     objecttolerance="10"
     gridtolerance="10"
     guidetolerance="10"
     inkscape:pageopacity="0"
     inkscape:pageshadow="2"
     inkscape:window-width="1366"
     inkscape:window-height="705"
     id="namedview10693"
     showgrid="false"
     inkscape:measure-start="401.575,1868.03"
     inkscape:measure-end="600.945,1868.03"
     inkscape:zoom="1"
     inkscape:cx="1048.2008"
     inkscape:cy="260.47244"
     inkscape:window-x="-8"
     inkscape:window-y="-8"
     inkscape:window-maximized="1"
     inkscape:current-layer="svg10691" />
  <path
     inkscape:connector-curvature="0"
     id="path10354"
     d="m 56.5,9993.25 v 0 m 0,0 h -3 m 0,0 v -6 m 0,0 h 3 m 0,0 v 6"
     style="fill:none;stroke:#ff0000;stroke-width:1.007;stroke-linecap:butt;stroke-linejoin:miter;stroke-miterlimit:10;stroke-dasharray:none;stroke-opacity:1" />
  <path
     inkscape:connector-curvature="0"
     id="path10356"
     d="m 56.5,9981.25 v 0 m 0,0 h -3 m 0,0 v -6 m 0,0 h 3 m 0,0 v 6"
     style="fill:none;stroke:#ff0000;stroke-width:1.007;stroke-linecap:butt;stroke-linejoin:miter;stroke-miterlimit:10;stroke-dasharray:none;stroke-opacity:1" />
  <path
     inkscape:connector-curvature="0"
     id="path10358"
     d="m 56.5,9969.25 v 0 m 0,0 h -3 m 0,0 v -6 m 0,0 h 3 m 0,0 v 6"
     style="fill:none;stroke:#ff0000;stroke-width:1.007;stroke-linecap:butt;stroke-linejoin:miter;stroke-miterlimit:10;stroke-dasharray:none;stroke-opacity:1" />
  <path
     inkscape:connector-curvature="0"
     id="path10360"
     d="m 56.5,9957.25 v 0 m 0,0 h -3 m 0,0 v -6 m 0,0 h 3 m 0,0 v 6"
     style="fill:none;stroke:#ff0000;stroke-width:1.007;stroke-linecap:butt;stroke-linejoin:miter;stroke-miterlimit:10;stroke-dasharray:none;stroke-opacity:1" />
  <path
     inkscape:connector-curvature="0"
     id="path10362"
     d="m 56.5,9945.25 v 0 m 0,0 h -3 m 0,0 v -6 m 0,0 h 3 m 0,0 v 6"
     style="fill:none;stroke:#ff0000;stroke-width:1.007;stroke-linecap:butt;stroke-linejoin:miter;stroke-miterlimit:10;stroke-dasharray:none;stroke-opacity:1" />
  <path
     inkscape:connector-curvature="0"
     id="path10364"
     d="m 109.25,9993.25 v 0 m 0,0 h -3 m 0,0 v -6 m 0,0 h 3 m 0,0 v 6"
     style="fill:none;stroke:#ff0000;stroke-width:1.007;stroke-linecap:butt;stroke-linejoin:miter;stroke-miterlimit:10;stroke-dasharray:none;stroke-opacity:1" />
  <path
     inkscape:connector-curvature="0"
     id="path10366"
     d="m 109.25,9981.25 v 0 m 0,0 h -3 m 0,0 v -6 m 0,0 h 3 m 0,0 v 6"
     style="fill:none;stroke:#ff0000;stroke-width:1.007;stroke-linecap:butt;stroke-linejoin:miter;stroke-miterlimit:10;stroke-dasharray:none;stroke-opacity:1" />
  <path
     inkscape:connector-curvature="0"
     id="path10368"
     d="m 109.25,9969.25 v 0 m 0,0 h -3 m 0,0 v -6 m 0,0 h 3 m 0,0 v 6"
     style="fill:none;stroke:#ff0000;stroke-width:1.007;stroke-linecap:butt;stroke-linejoin:miter;stroke-miterlimit:10;stroke-dasharray:none;stroke-opacity:1" />
  <path
     inkscape:connector-curvature="0"
     id="path10370"
     d="m 109.25,9957.25 v 0 m 0,0 h -3 m 0,0 v -6 m 0,0 h 3 m 0,0 v 6"
     style="fill:none;stroke:#ff0000;stroke-width:1.007;stroke-linecap:butt;stroke-linejoin:miter;stroke-miterlimit:10;stroke-dasharray:none;stroke-opacity:1" />
  <path
     inkscape:connector-curvature="0"
     id="path10372"
     d="m 109.25,9945.25 v 0 m 0,0 h -3 m 0,0 v -6 m 0,0 h 3 m 0,0 v 6"
     style="fill:none;stroke:#ff0000;stroke-width:1.007;stroke-linecap:butt;stroke-linejoin:miter;stroke-miterlimit:10;stroke-dasharray:none;stroke-opacity:1" />
  <path
     inkscape:connector-curvature="0"
     id="path10374"
     d="m 162,9993.25 v 0 m 0,0 h -3 m 0,0 v -6 m 0,0 h 3 m 0,0 v 6"
     style="fill:none;stroke:#ff0000;stroke-width:1.007;stroke-linecap:butt;stroke-linejoin:miter;stroke-miterlimit:10;stroke-dasharray:none;stroke-opacity:1" />
  <path
     inkscape:connector-curvature="0"
     id="path10376"
     d="m 162,9981.25 v 0 m 0,0 h -3 m 0,0 v -6 m 0,0 h 3 m 0,0 v 6"
     style="fill:none;stroke:#ff0000;stroke-width:1.007;stroke-linecap:butt;stroke-linejoin:miter;stroke-miterlimit:10;stroke-dasharray:none;stroke-opacity:1" />
  <path
     inkscape:connector-curvature="0"
     id="path10378"
     d="m 162,9969.25 v 0 m 0,0 h -3 m 0,0 v -6 m 0,0 h 3 m 0,0 v 6"
     style="fill:none;stroke:#ff0000;stroke-width:1.007;stroke-linecap:butt;stroke-linejoin:miter;stroke-miterlimit:10;stroke-dasharray:none;stroke-opacity:1" />
  <path
     inkscape:connector-curvature="0"
     id="path10380"
     d="m 162,9957.25 v 0 m 0,0 h -3 m 0,0 v -6 m 0,0 h 3 m 0,0 v 6"
     style="fill:none;stroke:#ff0000;stroke-width:1.007;stroke-linecap:butt;stroke-linejoin:miter;stroke-miterlimit:10;stroke-dasharray:none;stroke-opacity:1" />
  <path
     inkscape:connector-curvature="0"
     id="path10382"
     d="m 162,9945.25 v 0 m 0,0 h -3 m 0,0 v -6 m 0,0 h 3 m 0,0 v 6"
     style="fill:none;stroke:#ff0000;stroke-width:1.007;stroke-linecap:butt;stroke-linejoin:miter;stroke-miterlimit:10;stroke-dasharray:none;stroke-opacity:1" />
  <path
     style="fill:none;stroke:#ff0000;stroke-width:3.80598428;stroke-linecap:butt;stroke-linejoin:miter;stroke-miterlimit:10;stroke-dasharray:none;stroke-opacity:1"
     d="M 2.8339844 1788.6621 L 2.8339844 1800 L 2.8339844 1811.3379 L 14.173828 1811.3379 L 14.173828 1834.0156 L 2.8339844 1834.0156 L 2.8339844 1856.6934 L 14.173828 1856.6934 L 14.173828 1879.3691 L 2.8339844 1879.3691 L 2.8339844 1902.0469 L 14.173828 1902.0469 L 14.173828 1924.7246 L 2.8339844 1924.7246 L 2.8339844 1947.4023 L 14.173828 1947.4023 L 14.173828 1970.0781 L 2.8339844 1970.0781 L 2.8339844 1992.7559 L 14.173828 1992.7559 L 14.173828 2015.4336 L 2.8339844 2015.4336 L 2.8339844 2026.7715 L 2.8339844 2038.1094 L 14.173828 2038.1094 L 33.070312 2038.1094 L 33.070312 2026.7715 L 55.748047 2026.7715 L 55.748047 2038.1094 L 78.425781 2038.1094 L 78.425781 2026.7715 L 101.10156 2026.7715 L 101.10156 2038.1094 L 123.7793 2038.1094 L 123.7793 2026.7715 L 146.45703 2026.7715 L 146.45703 2038.1094 L 169.13477 2038.1094 L 169.13477 2026.7715 L 191.81055 2026.7715 L 191.81055 2038.1094 L 214.48828 2038.1094 L 214.48828 2026.7715 L 237.16602 2026.7715 L 237.16602 2038.1094 L 259.8418 2038.1094 L 259.8418 2026.7715 L 282.51953 2026.7715 L 282.51953 2038.1094 L 305.19727 2038.1094 L 305.19727 2026.7715 L 327.87305 2026.7715 L 327.87305 2038.1094 L 350.55078 2038.1094 L 350.55078 2026.7715 L 373.22852 2026.7715 L 373.22852 2038.1094 L 395.90625 2038.1094 L 395.90625 2026.7715 L 418.58203 2026.7715 L 418.58203 2038.1094 L 441.25977 2038.1094 L 441.25977 2026.7715 L 463.9375 2026.7715 L 463.9375 2038.1094 L 486.61328 2038.1094 L 486.61328 2026.7715 L 509.29102 2026.7715 L 509.29102 2038.1094 L 531.96875 2038.1094 L 531.96875 2026.7715 L 554.64648 2026.7715 L 554.64648 2038.1094 L 577.32227 2038.1094 L 577.32227 2026.7715 L 600 2026.7715 L 600 2038.1094 L 622.67773 2038.1094 L 622.67773 2026.7715 L 645.35352 2026.7715 L 645.35352 2038.1094 L 668.03125 2038.1094 L 668.03125 2026.7715 L 690.70898 2026.7715 L 690.70898 2038.1094 L 713.38672 2038.1094 L 713.38672 2026.7715 L 736.0625 2026.7715 L 736.0625 2038.1094 L 758.74023 2038.1094 L 758.74023 2026.7715 L 781.41797 2026.7715 L 781.41797 2038.1094 L 800.31445 2038.1094 L 811.6543 2038.1094 L 811.6543 2026.7715 L 811.6543 2015.4336 L 800.31445 2015.4336 L 800.31445 1992.7559 L 811.6543 1992.7559 L 811.6543 1970.0781 L 800.31445 1970.0781 L 800.31445 1947.4023 L 811.6543 1947.4023 L 811.6543 1924.7246 L 800.31445 1924.7246 L 800.31445 1902.0469 L 811.6543 1902.0469 L 811.6543 1879.3691 L 800.31445 1879.3691 L 800.31445 1856.6934 L 811.6543 1856.6934 L 811.6543 1834.0156 L 800.31445 1834.0156 L 800.31445 1811.3379 L 811.6543 1811.3379 L 811.6543 1800 L 811.6543 1788.6621 L 800.31445 1788.6621 L 779.07031 1788.6621 A 71.716537 71.716537 0 0 1 707.44727 1858.5137 A 71.716537 71.716537 0 0 1 635.79883 1788.6621 L 579.70117 1788.6621 A 71.716536 71.716536 0 0 1 508.07812 1858.5137 A 71.716536 71.716536 0 0 1 436.42773 1788.6621 L 380.33008 1788.6621 A 71.716535 71.716535 0 0 1 308.70898 1858.5137 A 71.716535 71.716535 0 0 1 237.05859 1788.6621 L 180.96094 1788.6621 A 71.716534 71.716534 0 0 1 109.33789 1858.5137 A 71.716534 71.716534 0 0 1 37.6875 1788.6621 L 14.173828 1788.6621 L 2.8339844 1788.6621 z "
     transform="matrix(0.26458333,0,0,0.26458333,0,9460)"
     id="path10384" />
  <path
     inkscape:connector-curvature="0"
     id="path10386"
     d="m 56.5,9925.75 v 0 m 0,0 h -3 m 0,0 v -6 m 0,0 h 3 m 0,0 v 6"
     style="fill:none;stroke:#ff0000;stroke-width:1.007;stroke-linecap:butt;stroke-linejoin:miter;stroke-miterlimit:10;stroke-dasharray:none;stroke-opacity:1" />
  <path
     inkscape:connector-curvature="0"
     id="path10388"
     d="m 56.5,9913.75 v 0 m 0,0 h -3 m 0,0 v -6 m 0,0 h 3 m 0,0 v 6"
     style="fill:none;stroke:#ff0000;stroke-width:1.007;stroke-linecap:butt;stroke-linejoin:miter;stroke-miterlimit:10;stroke-dasharray:none;stroke-opacity:1" />
  <path
     inkscape:connector-curvature="0"
     id="path10390"
     d="m 56.5,9901.75 v 0 m 0,0 h -3 m 0,0 v -6 m 0,0 h 3 m 0,0 v 6"
     style="fill:none;stroke:#ff0000;stroke-width:1.007;stroke-linecap:butt;stroke-linejoin:miter;stroke-miterlimit:10;stroke-dasharray:none;stroke-opacity:1" />
  <path
     inkscape:connector-curvature="0"
     id="path10392"
     d="m 56.5,9889.75 v 0 m 0,0 h -3 m 0,0 v -6 m 0,0 h 3 m 0,0 v 6"
     style="fill:none;stroke:#ff0000;stroke-width:1.007;stroke-linecap:butt;stroke-linejoin:miter;stroke-miterlimit:10;stroke-dasharray:none;stroke-opacity:1" />
  <path
     inkscape:connector-curvature="0"
     id="path10394"
     d="m 56.5,9877.75 v 0 m 0,0 h -3 m 0,0 v -6 m 0,0 h 3 m 0,0 v 6"
     style="fill:none;stroke:#ff0000;stroke-width:1.007;stroke-linecap:butt;stroke-linejoin:miter;stroke-miterlimit:10;stroke-dasharray:none;stroke-opacity:1" />
  <path
     inkscape:connector-curvature="0"
     id="path10396"
     d="m 109.25,9925.75 v 0 m 0,0 h -3 m 0,0 v -6 m 0,0 h 3 m 0,0 v 6"
     style="fill:none;stroke:#ff0000;stroke-width:1.007;stroke-linecap:butt;stroke-linejoin:miter;stroke-miterlimit:10;stroke-dasharray:none;stroke-opacity:1" />
  <path
     inkscape:connector-curvature="0"
     id="path10398"
     d="m 109.25,9913.75 v 0 m 0,0 h -3 m 0,0 v -6 m 0,0 h 3 m 0,0 v 6"
     style="fill:none;stroke:#ff0000;stroke-width:1.007;stroke-linecap:butt;stroke-linejoin:miter;stroke-miterlimit:10;stroke-dasharray:none;stroke-opacity:1" />
  <path
     inkscape:connector-curvature="0"
     id="path10400"
     d="m 109.25,9901.75 v 0 m 0,0 h -3 m 0,0 v -6 m 0,0 h 3 m 0,0 v 6"
     style="fill:none;stroke:#ff0000;stroke-width:1.007;stroke-linecap:butt;stroke-linejoin:miter;stroke-miterlimit:10;stroke-dasharray:none;stroke-opacity:1" />
  <path
     inkscape:connector-curvature="0"
     id="path10402"
     d="m 109.25,9889.75 v 0 m 0,0 h -3 m 0,0 v -6 m 0,0 h 3 m 0,0 v 6"
     style="fill:none;stroke:#ff0000;stroke-width:1.007;stroke-linecap:butt;stroke-linejoin:miter;stroke-miterlimit:10;stroke-dasharray:none;stroke-opacity:1" />
  <path
     inkscape:connector-curvature="0"
     id="path10404"
     d="m 109.25,9877.75 v 0 m 0,0 h -3 m 0,0 v -6 m 0,0 h 3 m 0,0 v 6"
     style="fill:none;stroke:#ff0000;stroke-width:1.007;stroke-linecap:butt;stroke-linejoin:miter;stroke-miterlimit:10;stroke-dasharray:none;stroke-opacity:1" />
  <path
     inkscape:connector-curvature="0"
     id="path10406"
     d="m 162,9925.75 v 0 m 0,0 h -3 m 0,0 v -6 m 0,0 h 3 m 0,0 v 6"
     style="fill:none;stroke:#ff0000;stroke-width:1.007;stroke-linecap:butt;stroke-linejoin:miter;stroke-miterlimit:10;stroke-dasharray:none;stroke-opacity:1" />
  <path
     inkscape:connector-curvature="0"
     id="path10408"
     d="m 162,9913.75 v 0 m 0,0 h -3 m 0,0 v -6 m 0,0 h 3 m 0,0 v 6"
     style="fill:none;stroke:#ff0000;stroke-width:1.007;stroke-linecap:butt;stroke-linejoin:miter;stroke-miterlimit:10;stroke-dasharray:none;stroke-opacity:1" />
  <path
     inkscape:connector-curvature="0"
     id="path10410"
     d="m 162,9901.75 v 0 m 0,0 h -3 m 0,0 v -6 m 0,0 h 3 m 0,0 v 6"
     style="fill:none;stroke:#ff0000;stroke-width:1.007;stroke-linecap:butt;stroke-linejoin:miter;stroke-miterlimit:10;stroke-dasharray:none;stroke-opacity:1" />
  <path
     inkscape:connector-curvature="0"
     id="path10412"
     d="m 162,9889.75 v 0 m 0,0 h -3 m 0,0 v -6 m 0,0 h 3 m 0,0 v 6"
     style="fill:none;stroke:#ff0000;stroke-width:1.007;stroke-linecap:butt;stroke-linejoin:miter;stroke-miterlimit:10;stroke-dasharray:none;stroke-opacity:1" />
  <path
     inkscape:connector-curvature="0"
     id="path10414"
     d="m 162,9877.75 v 0 m 0,0 h -3 m 0,0 v -6 m 0,0 h 3 m 0,0 v 6"
     style="fill:none;stroke:#ff0000;stroke-width:1.007;stroke-linecap:butt;stroke-linejoin:miter;stroke-miterlimit:10;stroke-dasharray:none;stroke-opacity:1" />
  <path
     style="fill:none;stroke:#ff0000;stroke-width:3.80598428;stroke-linecap:butt;stroke-linejoin:miter;stroke-miterlimit:10;stroke-dasharray:none;stroke-opacity:1"
     d="M 2.8339844 1533.543 L 2.8339844 1544.8828 L 2.8339844 1556.2207 L 14.173828 1556.2207 L 14.173828 1578.8984 L 2.8339844 1578.8984 L 2.8339844 1601.5742 L 14.173828 1601.5742 L 14.173828 1624.252 L 2.8339844 1624.252 L 2.8339844 1646.9297 L 14.173828 1646.9297 L 14.173828 1669.6055 L 2.8339844 1669.6055 L 2.8339844 1692.2832 L 14.173828 1692.2832 L 14.173828 1714.9609 L 2.8339844 1714.9609 L 2.8339844 1737.6387 L 14.173828 1737.6387 L 14.173828 1760.3145 L 2.8339844 1760.3145 L 2.8339844 1771.6543 L 2.8339844 1782.9922 L 14.173828 1782.9922 L 33.070312 1782.9922 L 33.070312 1771.6543 L 55.748047 1771.6543 L 55.748047 1782.9922 L 78.425781 1782.9922 L 78.425781 1771.6543 L 101.10156 1771.6543 L 101.10156 1782.9922 L 123.7793 1782.9922 L 123.7793 1771.6543 L 146.45703 1771.6543 L 146.45703 1782.9922 L 169.13477 1782.9922 L 169.13477 1771.6543 L 191.81055 1771.6543 L 191.81055 1782.9922 L 214.48828 1782.9922 L 214.48828 1771.6543 L 237.16602 1771.6543 L 237.16602 1782.9922 L 259.8418 1782.9922 L 259.8418 1771.6543 L 282.51953 1771.6543 L 282.51953 1782.9922 L 305.19727 1782.9922 L 305.19727 1771.6543 L 327.87305 1771.6543 L 327.87305 1782.9922 L 350.55078 1782.9922 L 350.55078 1771.6543 L 373.22852 1771.6543 L 373.22852 1782.9922 L 395.90625 1782.9922 L 395.90625 1771.6543 L 418.58203 1771.6543 L 418.58203 1782.9922 L 441.25977 1782.9922 L 441.25977 1771.6543 L 463.9375 1771.6543 L 463.9375 1782.9922 L 486.61328 1782.9922 L 486.61328 1771.6543 L 509.29102 1771.6543 L 509.29102 1782.9922 L 531.96875 1782.9922 L 531.96875 1771.6543 L 554.64648 1771.6543 L 554.64648 1782.9922 L 577.32227 1782.9922 L 577.32227 1771.6543 L 600 1771.6543 L 600 1782.9922 L 622.67773 1782.9922 L 622.67773 1771.6543 L 645.35352 1771.6543 L 645.35352 1782.9922 L 668.03125 1782.9922 L 668.03125 1771.6543 L 690.70898 1771.6543 L 690.70898 1782.9922 L 713.38672 1782.9922 L 713.38672 1771.6543 L 736.0625 1771.6543 L 736.0625 1782.9922 L 758.74023 1782.9922 L 758.74023 1771.6543 L 781.41797 1771.6543 L 781.41797 1782.9922 L 800.31445 1782.9922 L 811.6543 1782.9922 L 811.6543 1771.6543 L 811.6543 1760.3145 L 800.31445 1760.3145 L 800.31445 1737.6387 L 811.6543 1737.6387 L 811.6543 1714.9609 L 800.31445 1714.9609 L 800.31445 1692.2832 L 811.6543 1692.2832 L 811.6543 1669.6055 L 800.31445 1669.6055 L 800.31445 1646.9297 L 811.6543 1646.9297 L 811.6543 1624.252 L 800.31445 1624.252 L 800.31445 1601.5742 L 811.6543 1601.5742 L 811.6543 1578.8984 L 800.31445 1578.8984 L 800.31445 1556.2207 L 811.6543 1556.2207 L 811.6543 1544.8828 L 811.6543 1533.543 L 800.31445 1533.543 L 779.10938 1533.543 A 71.716537 71.716537 0 0 1 707.44727 1604.168 A 71.716537 71.716537 0 0 1 635.77148 1533.543 L 579.74023 1533.543 A 71.716536 71.716536 0 0 1 508.07812 1604.168 A 71.716536 71.716536 0 0 1 436.40039 1533.543 L 380.36914 1533.543 A 71.716535 71.716535 0 0 1 308.70898 1604.168 A 71.716535 71.716535 0 0 1 237.03125 1533.543 L 181 1533.543 A 71.716534 71.716534 0 0 1 109.33789 1604.168 A 71.716534 71.716534 0 0 1 37.660156 1533.543 L 14.173828 1533.543 L 2.8339844 1533.543 z "
     transform="matrix(0.26458333,0,0,0.26458333,0,9460)"
     id="path10416" />
  <path
     inkscape:connector-curvature="0"
     id="path10418"
     d="m 56.5,9859.75 v 0 m 0,0 h -3 m 0,0 v -6 m 0,0 h 3 m 0,0 v 6"
     style="fill:none;stroke:#ff0000;stroke-width:1.007;stroke-linecap:butt;stroke-linejoin:miter;stroke-miterlimit:10;stroke-dasharray:none;stroke-opacity:1" />
  <path
     inkscape:connector-curvature="0"
     id="path10420"
     d="m 56.5,9847.75 v 0 m 0,0 h -3 m 0,0 v -6 m 0,0 h 3 m 0,0 v 6"
     style="fill:none;stroke:#ff0000;stroke-width:1.007;stroke-linecap:butt;stroke-linejoin:miter;stroke-miterlimit:10;stroke-dasharray:none;stroke-opacity:1" />
  <path
     inkscape:connector-curvature="0"
     id="path10422"
     d="m 56.5,9835.75 v 0 m 0,0 h -3 m 0,0 v -6 m 0,0 h 3 m 0,0 v 6"
     style="fill:none;stroke:#ff0000;stroke-width:1.007;stroke-linecap:butt;stroke-linejoin:miter;stroke-miterlimit:10;stroke-dasharray:none;stroke-opacity:1" />
  <path
     inkscape:connector-curvature="0"
     id="path10424"
     d="m 56.5,9823.75 v 0 m 0,0 h -3 m 0,0 v -6 m 0,0 h 3 m 0,0 v 6"
     style="fill:none;stroke:#ff0000;stroke-width:1.007;stroke-linecap:butt;stroke-linejoin:miter;stroke-miterlimit:10;stroke-dasharray:none;stroke-opacity:1" />
  <path
     inkscape:connector-curvature="0"
     id="path10426"
     d="m 56.5,9811.75 v 0 m 0,0 h -3 m 0,0 v -6 m 0,0 h 3 m 0,0 v 6"
     style="fill:none;stroke:#ff0000;stroke-width:1.007;stroke-linecap:butt;stroke-linejoin:miter;stroke-miterlimit:10;stroke-dasharray:none;stroke-opacity:1" />
  <path
     inkscape:connector-curvature="0"
     id="path10428"
     d="m 56.5,9799.75 v 0 m 0,0 h -3 m 0,0 v -6 m 0,0 h 3 m 0,0 v 6"
     style="fill:none;stroke:#ff0000;stroke-width:1.007;stroke-linecap:butt;stroke-linejoin:miter;stroke-miterlimit:10;stroke-dasharray:none;stroke-opacity:1" />
  <path
     inkscape:connector-curvature="0"
     id="path10430"
     d="m 56.5,9787.75 v 0 m 0,0 h -3 m 0,0 v -6 m 0,0 h 3 m 0,0 v 6"
     style="fill:none;stroke:#ff0000;stroke-width:1.007;stroke-linecap:butt;stroke-linejoin:miter;stroke-miterlimit:10;stroke-dasharray:none;stroke-opacity:1" />
  <path
     inkscape:connector-curvature="0"
     id="path10432"
     d="m 56.5,9775.75 v 0 m 0,0 h -3 m 0,0 v -6 m 0,0 h 3 m 0,0 v 6"
     style="fill:none;stroke:#ff0000;stroke-width:1.007;stroke-linecap:butt;stroke-linejoin:miter;stroke-miterlimit:10;stroke-dasharray:none;stroke-opacity:1" />
  <path
     inkscape:connector-curvature="0"
     id="path10434"
     d="m 56.5,9763.75 v 0 m 0,0 h -3 m 0,0 v -6 m 0,0 h 3 m 0,0 v 6"
     style="fill:none;stroke:#ff0000;stroke-width:1.007;stroke-linecap:butt;stroke-linejoin:miter;stroke-miterlimit:10;stroke-dasharray:none;stroke-opacity:1" />
  <path
     inkscape:connector-curvature="0"
     id="path10436"
     d="m 56.5,9751.75 v 0 m 0,0 h -3 m 0,0 v -6 m 0,0 h 3 m 0,0 v 6"
     style="fill:none;stroke:#ff0000;stroke-width:1.007;stroke-linecap:butt;stroke-linejoin:miter;stroke-miterlimit:10;stroke-dasharray:none;stroke-opacity:1" />
  <path
     inkscape:connector-curvature="0"
     id="path10438"
     d="m 56.5,9739.75 v 0 m 0,0 h -3 m 0,0 v -6 m 0,0 h 3 m 0,0 v 6"
     style="fill:none;stroke:#ff0000;stroke-width:1.007;stroke-linecap:butt;stroke-linejoin:miter;stroke-miterlimit:10;stroke-dasharray:none;stroke-opacity:1" />
  <path
     inkscape:connector-curvature="0"
     id="path10440"
     d="m 56.5,9727.75 v 0 m 0,0 h -3 m 0,0 v -6 m 0,0 h 3 m 0,0 v 6"
     style="fill:none;stroke:#ff0000;stroke-width:1.007;stroke-linecap:butt;stroke-linejoin:miter;stroke-miterlimit:10;stroke-dasharray:none;stroke-opacity:1" />
  <path
     inkscape:connector-curvature="0"
     id="path10442"
     d="m 56.5,9715.75 v 0 m 0,0 h -3 m 0,0 v -6 m 0,0 h 3 m 0,0 v 6"
     style="fill:none;stroke:#ff0000;stroke-width:1.007;stroke-linecap:butt;stroke-linejoin:miter;stroke-miterlimit:10;stroke-dasharray:none;stroke-opacity:1" />
  <path
     inkscape:connector-curvature="0"
     id="path10444"
     d="m 56.5,9703.75 v 0 m 0,0 h -3 m 0,0 v -6 m 0,0 h 3 m 0,0 v 6"
     style="fill:none;stroke:#ff0000;stroke-width:1.007;stroke-linecap:butt;stroke-linejoin:miter;stroke-miterlimit:10;stroke-dasharray:none;stroke-opacity:1" />
  <path
     inkscape:connector-curvature="0"
     id="path10446"
     d="m 56.5,9691.75 v 0 m 0,0 h -3 m 0,0 v -6 m 0,0 h 3 m 0,0 v 6"
     style="fill:none;stroke:#ff0000;stroke-width:1.007;stroke-linecap:butt;stroke-linejoin:miter;stroke-miterlimit:10;stroke-dasharray:none;stroke-opacity:1" />
  <path
     inkscape:connector-curvature="0"
     id="path10448"
     d="m 56.5,9679.75 v 0 m 0,0 h -3 m 0,0 v -6 m 0,0 h 3 m 0,0 v 6"
     style="fill:none;stroke:#ff0000;stroke-width:1.007;stroke-linecap:butt;stroke-linejoin:miter;stroke-miterlimit:10;stroke-dasharray:none;stroke-opacity:1" />
  <path
     inkscape:connector-curvature="0"
     id="path10450"
     d="m 109.25,9859.75 v 0 m 0,0 h -3 m 0,0 v -6 m 0,0 h 3 m 0,0 v 6"
     style="fill:none;stroke:#ff0000;stroke-width:1.007;stroke-linecap:butt;stroke-linejoin:miter;stroke-miterlimit:10;stroke-dasharray:none;stroke-opacity:1" />
  <path
     inkscape:connector-curvature="0"
     id="path10452"
     d="m 109.25,9847.75 v 0 m 0,0 h -3 m 0,0 v -6 m 0,0 h 3 m 0,0 v 6"
     style="fill:none;stroke:#ff0000;stroke-width:1.007;stroke-linecap:butt;stroke-linejoin:miter;stroke-miterlimit:10;stroke-dasharray:none;stroke-opacity:1" />
  <path
     inkscape:connector-curvature="0"
     id="path10454"
     d="m 109.25,9835.75 v 0 m 0,0 h -3 m 0,0 v -6 m 0,0 h 3 m 0,0 v 6"
     style="fill:none;stroke:#ff0000;stroke-width:1.007;stroke-linecap:butt;stroke-linejoin:miter;stroke-miterlimit:10;stroke-dasharray:none;stroke-opacity:1" />
  <path
     inkscape:connector-curvature="0"
     id="path10456"
     d="m 109.25,9823.75 v 0 m 0,0 h -3 m 0,0 v -6 m 0,0 h 3 m 0,0 v 6"
     style="fill:none;stroke:#ff0000;stroke-width:1.007;stroke-linecap:butt;stroke-linejoin:miter;stroke-miterlimit:10;stroke-dasharray:none;stroke-opacity:1" />
  <path
     inkscape:connector-curvature="0"
     id="path10458"
     d="m 109.25,9811.75 v 0 m 0,0 h -3 m 0,0 v -6 m 0,0 h 3 m 0,0 v 6"
     style="fill:none;stroke:#ff0000;stroke-width:1.007;stroke-linecap:butt;stroke-linejoin:miter;stroke-miterlimit:10;stroke-dasharray:none;stroke-opacity:1" />
  <path
     inkscape:connector-curvature="0"
     id="path10460"
     d="m 109.25,9799.75 v 0 m 0,0 h -3 m 0,0 v -6 m 0,0 h 3 m 0,0 v 6"
     style="fill:none;stroke:#ff0000;stroke-width:1.007;stroke-linecap:butt;stroke-linejoin:miter;stroke-miterlimit:10;stroke-dasharray:none;stroke-opacity:1" />
  <path
     inkscape:connector-curvature="0"
     id="path10462"
     d="m 109.25,9787.75 v 0 m 0,0 h -3 m 0,0 v -6 m 0,0 h 3 m 0,0 v 6"
     style="fill:none;stroke:#ff0000;stroke-width:1.007;stroke-linecap:butt;stroke-linejoin:miter;stroke-miterlimit:10;stroke-dasharray:none;stroke-opacity:1" />
  <path
     inkscape:connector-curvature="0"
     id="path10464"
     d="m 109.25,9775.75 v 0 m 0,0 h -3 m 0,0 v -6 m 0,0 h 3 m 0,0 v 6"
     style="fill:none;stroke:#ff0000;stroke-width:1.007;stroke-linecap:butt;stroke-linejoin:miter;stroke-miterlimit:10;stroke-dasharray:none;stroke-opacity:1" />
  <path
     inkscape:connector-curvature="0"
     id="path10466"
     d="m 109.25,9763.75 v 0 m 0,0 h -3 m 0,0 v -6 m 0,0 h 3 m 0,0 v 6"
     style="fill:none;stroke:#ff0000;stroke-width:1.007;stroke-linecap:butt;stroke-linejoin:miter;stroke-miterlimit:10;stroke-dasharray:none;stroke-opacity:1" />
  <path
     inkscape:connector-curvature="0"
     id="path10468"
     d="m 109.25,9751.75 v 0 m 0,0 h -3 m 0,0 v -6 m 0,0 h 3 m 0,0 v 6"
     style="fill:none;stroke:#ff0000;stroke-width:1.007;stroke-linecap:butt;stroke-linejoin:miter;stroke-miterlimit:10;stroke-dasharray:none;stroke-opacity:1" />
  <path
     inkscape:connector-curvature="0"
     id="path10470"
     d="m 109.25,9739.75 v 0 m 0,0 h -3 m 0,0 v -6 m 0,0 h 3 m 0,0 v 6"
     style="fill:none;stroke:#ff0000;stroke-width:1.007;stroke-linecap:butt;stroke-linejoin:miter;stroke-miterlimit:10;stroke-dasharray:none;stroke-opacity:1" />
  <path
     inkscape:connector-curvature="0"
     id="path10472"
     d="m 109.25,9727.75 v 0 m 0,0 h -3 m 0,0 v -6 m 0,0 h 3 m 0,0 v 6"
     style="fill:none;stroke:#ff0000;stroke-width:1.007;stroke-linecap:butt;stroke-linejoin:miter;stroke-miterlimit:10;stroke-dasharray:none;stroke-opacity:1" />
  <path
     inkscape:connector-curvature="0"
     id="path10474"
     d="m 109.25,9715.75 v 0 m 0,0 h -3 m 0,0 v -6 m 0,0 h 3 m 0,0 v 6"
     style="fill:none;stroke:#ff0000;stroke-width:1.007;stroke-linecap:butt;stroke-linejoin:miter;stroke-miterlimit:10;stroke-dasharray:none;stroke-opacity:1" />
  <path
     inkscape:connector-curvature="0"
     id="path10476"
     d="m 109.25,9703.75 v 0 m 0,0 h -3 m 0,0 v -6 m 0,0 h 3 m 0,0 v 6"
     style="fill:none;stroke:#ff0000;stroke-width:1.007;stroke-linecap:butt;stroke-linejoin:miter;stroke-miterlimit:10;stroke-dasharray:none;stroke-opacity:1" />
  <path
     inkscape:connector-curvature="0"
     id="path10478"
     d="m 109.25,9691.75 v 0 m 0,0 h -3 m 0,0 v -6 m 0,0 h 3 m 0,0 v 6"
     style="fill:none;stroke:#ff0000;stroke-width:1.007;stroke-linecap:butt;stroke-linejoin:miter;stroke-miterlimit:10;stroke-dasharray:none;stroke-opacity:1" />
  <path
     inkscape:connector-curvature="0"
     id="path10480"
     d="m 109.25,9679.75 v 0 m 0,0 h -3 m 0,0 v -6 m 0,0 h 3 m 0,0 v 6"
     style="fill:none;stroke:#ff0000;stroke-width:1.007;stroke-linecap:butt;stroke-linejoin:miter;stroke-miterlimit:10;stroke-dasharray:none;stroke-opacity:1" />
  <path
     inkscape:connector-curvature="0"
     id="path10482"
     d="m 162,9859.75 v 0 m 0,0 h -3 m 0,0 v -6 m 0,0 h 3 m 0,0 v 6"
     style="fill:none;stroke:#ff0000;stroke-width:1.007;stroke-linecap:butt;stroke-linejoin:miter;stroke-miterlimit:10;stroke-dasharray:none;stroke-opacity:1" />
  <path
     inkscape:connector-curvature="0"
     id="path10484"
     d="m 162,9847.75 v 0 m 0,0 h -3 m 0,0 v -6 m 0,0 h 3 m 0,0 v 6"
     style="fill:none;stroke:#ff0000;stroke-width:1.007;stroke-linecap:butt;stroke-linejoin:miter;stroke-miterlimit:10;stroke-dasharray:none;stroke-opacity:1" />
  <path
     inkscape:connector-curvature="0"
     id="path10486"
     d="m 162,9835.75 v 0 m 0,0 h -3 m 0,0 v -6 m 0,0 h 3 m 0,0 v 6"
     style="fill:none;stroke:#ff0000;stroke-width:1.007;stroke-linecap:butt;stroke-linejoin:miter;stroke-miterlimit:10;stroke-dasharray:none;stroke-opacity:1" />
  <path
     inkscape:connector-curvature="0"
     id="path10488"
     d="m 162,9823.75 v 0 m 0,0 h -3 m 0,0 v -6 m 0,0 h 3 m 0,0 v 6"
     style="fill:none;stroke:#ff0000;stroke-width:1.007;stroke-linecap:butt;stroke-linejoin:miter;stroke-miterlimit:10;stroke-dasharray:none;stroke-opacity:1" />
  <path
     inkscape:connector-curvature="0"
     id="path10490"
     d="m 162,9811.75 v 0 m 0,0 h -3 m 0,0 v -6 m 0,0 h 3 m 0,0 v 6"
     style="fill:none;stroke:#ff0000;stroke-width:1.007;stroke-linecap:butt;stroke-linejoin:miter;stroke-miterlimit:10;stroke-dasharray:none;stroke-opacity:1" />
  <path
     inkscape:connector-curvature="0"
     id="path10492"
     d="m 162,9799.75 v 0 m 0,0 h -3 m 0,0 v -6 m 0,0 h 3 m 0,0 v 6"
     style="fill:none;stroke:#ff0000;stroke-width:1.007;stroke-linecap:butt;stroke-linejoin:miter;stroke-miterlimit:10;stroke-dasharray:none;stroke-opacity:1" />
  <path
     inkscape:connector-curvature="0"
     id="path10494"
     d="m 162,9787.75 v 0 m 0,0 h -3 m 0,0 v -6 m 0,0 h 3 m 0,0 v 6"
     style="fill:none;stroke:#ff0000;stroke-width:1.007;stroke-linecap:butt;stroke-linejoin:miter;stroke-miterlimit:10;stroke-dasharray:none;stroke-opacity:1" />
  <path
     inkscape:connector-curvature="0"
     id="path10496"
     d="m 162,9775.75 v 0 m 0,0 h -3 m 0,0 v -6 m 0,0 h 3 m 0,0 v 6"
     style="fill:none;stroke:#ff0000;stroke-width:1.007;stroke-linecap:butt;stroke-linejoin:miter;stroke-miterlimit:10;stroke-dasharray:none;stroke-opacity:1" />
  <path
     inkscape:connector-curvature="0"
     id="path10498"
     d="m 162,9763.75 v 0 m 0,0 h -3 m 0,0 v -6 m 0,0 h 3 m 0,0 v 6"
     style="fill:none;stroke:#ff0000;stroke-width:1.007;stroke-linecap:butt;stroke-linejoin:miter;stroke-miterlimit:10;stroke-dasharray:none;stroke-opacity:1" />
  <path
     inkscape:connector-curvature="0"
     id="path10500"
     d="m 162,9751.75 v 0 m 0,0 h -3 m 0,0 v -6 m 0,0 h 3 m 0,0 v 6"
     style="fill:none;stroke:#ff0000;stroke-width:1.007;stroke-linecap:butt;stroke-linejoin:miter;stroke-miterlimit:10;stroke-dasharray:none;stroke-opacity:1" />
  <path
     inkscape:connector-curvature="0"
     id="path10502"
     d="m 162,9739.75 v 0 m 0,0 h -3 m 0,0 v -6 m 0,0 h 3 m 0,0 v 6"
     style="fill:none;stroke:#ff0000;stroke-width:1.007;stroke-linecap:butt;stroke-linejoin:miter;stroke-miterlimit:10;stroke-dasharray:none;stroke-opacity:1" />
  <path
     inkscape:connector-curvature="0"
     id="path10504"
     d="m 162,9727.75 v 0 m 0,0 h -3 m 0,0 v -6 m 0,0 h 3 m 0,0 v 6"
     style="fill:none;stroke:#ff0000;stroke-width:1.007;stroke-linecap:butt;stroke-linejoin:miter;stroke-miterlimit:10;stroke-dasharray:none;stroke-opacity:1" />
  <path
     inkscape:connector-curvature="0"
     id="path10506"
     d="m 162,9715.75 v 0 m 0,0 h -3 m 0,0 v -6 m 0,0 h 3 m 0,0 v 6"
     style="fill:none;stroke:#ff0000;stroke-width:1.007;stroke-linecap:butt;stroke-linejoin:miter;stroke-miterlimit:10;stroke-dasharray:none;stroke-opacity:1" />
  <path
     inkscape:connector-curvature="0"
     id="path10508"
     d="m 162,9703.75 v 0 m 0,0 h -3 m 0,0 v -6 m 0,0 h 3 m 0,0 v 6"
     style="fill:none;stroke:#ff0000;stroke-width:1.007;stroke-linecap:butt;stroke-linejoin:miter;stroke-miterlimit:10;stroke-dasharray:none;stroke-opacity:1" />
  <path
     inkscape:connector-curvature="0"
     id="path10510"
     d="m 162,9691.75 v 0 m 0,0 h -3 m 0,0 v -6 m 0,0 h 3 m 0,0 v 6"
     style="fill:none;stroke:#ff0000;stroke-width:1.007;stroke-linecap:butt;stroke-linejoin:miter;stroke-miterlimit:10;stroke-dasharray:none;stroke-opacity:1" />
  <path
     inkscape:connector-curvature="0"
     id="path10512"
     d="m 162,9679.75 v 0 m 0,0 h -3 m 0,0 v -6 m 0,0 h 3 m 0,0 v 6"
     style="fill:none;stroke:#ff0000;stroke-width:1.007;stroke-linecap:butt;stroke-linejoin:miter;stroke-miterlimit:10;stroke-dasharray:none;stroke-opacity:1" />
  <path
     inkscape:connector-curvature="0"
     id="path10514"
     d="m 3.75,9861.25 h 5 m 0,0 v 0 m 0,0 v 3 m 0,0 h 6 m 0,0 v -3 m 0,0 h 6 m 0,0 v 0 m 0,0 v 3 m 0,0 h 6 m 0,0 v -3 m 0,0 h 6 m 0,0 v 0 m 0,0 v 3 m 0,0 h 6 m 0,0 v -3 m 0,0 h 6 m 0,0 v 0 m 0,0 v 3 m 0,0 h 6 m 0,0 v -3 m 0,0 h 6 m 0,0 v 0 m 0,0 v 3 m 0,0 h 6 m 0,0 v -3 m 0,0 h 6 m 0,0 v 0 m 0,0 v 3 m 0,0 h 6 m 0,0 v -3 m 0,0 h 6 m 0,0 v 0 m 0,0 v 3 m 0,0 h 6 m 0,0 v -3 m 0,0 h 6 m 0,0 v 0 m 0,0 v 3 m 0,0 h 6 m 0,0 v -3 m 0,0 h 6 m 0,0 v 0 m 0,0 v 3 m 0,0 h 6 m 0,0 v -3 m 0,0 h 6 m 0,0 v 0 m 0,0 v 3 m 0,0 h 6 m 0,0 v -3 m 0,0 h 6 m 0,0 v 0 m 0,0 v 3 m 0,0 h 6 m 0,0 v -3 m 0,0 h 6 m 0,0 v 0 m 0,0 v 3 m 0,0 h 6 m 0,0 v -3 m 0,0 h 6 m 0,0 v 0 m 0,0 v 3 m 0,0 h 6 m 0,0 v -3 m 0,0 h 6 m 0,0 v 0 m 0,0 v 3 m 0,0 h 6 m 0,0 v -3 m 0,0 h 6 m 0,0 v 0 m 0,0 v 3 m 0,0 h 6 m 0,0 v -3 m 0,0 h 6 m 0,0 v 0 m 0,0 v 3 m 0,0 h 6 m 0,0 v -3 m 0,0 h 6 m 0,0 v 0 m 0,0 v 3 m 0,0 h 6 m 0,0 v -3 m 0,0 h 5 m 0,0 v 0 m 0,0 v 0 m 0,-46.5"
     style="fill:none;stroke:#ff0000;stroke-width:1.007;stroke-linecap:butt;stroke-linejoin:miter;stroke-miterlimit:10;stroke-dasharray:none;stroke-opacity:1" />
  <path
     inkscape:connector-curvature="0"
     id="path10516"
     d="m 207.875,9813.25 v 0 m 0,0 v 3 m 0,0 h -6 m 0,0 v -3 m 0,0 h 6"
     style="fill:none;stroke:#ff0000;stroke-width:1.007;stroke-linecap:butt;stroke-linejoin:miter;stroke-miterlimit:10;stroke-dasharray:none;stroke-opacity:1" />
  <path
     inkscape:connector-curvature="0"
     id="path10518"
     d="m 195.875,9813.25 v 0 m 0,0 v 3 m 0,0 h -6 m 0,0 v -3 m 0,0 h 6"
     style="fill:none;stroke:#ff0000;stroke-width:1.007;stroke-linecap:butt;stroke-linejoin:miter;stroke-miterlimit:10;stroke-dasharray:none;stroke-opacity:1" />
  <path
     inkscape:connector-curvature="0"
     id="path10520"
     d="m 183.875,9813.25 v 0 m 0,0 v 3 m 0,0 h -6 m 0,0 v -3 m 0,0 h 6"
     style="fill:none;stroke:#ff0000;stroke-width:1.007;stroke-linecap:butt;stroke-linejoin:miter;stroke-miterlimit:10;stroke-dasharray:none;stroke-opacity:1" />
  <path
     inkscape:connector-curvature="0"
     id="path10522"
     d="m 171.875,9813.25 v 0 m 0,0 v 3 m 0,0 h -6 m 0,0 v -3 m 0,0 h 6"
     style="fill:none;stroke:#ff0000;stroke-width:1.007;stroke-linecap:butt;stroke-linejoin:miter;stroke-miterlimit:10;stroke-dasharray:none;stroke-opacity:1" />
  <path
     inkscape:connector-curvature="0"
     id="path10524"
     d="m 155.125,9813.25 v 0 m 0,0 v 3 m 0,0 h -6 m 0,0 v -3 m 0,0 h 6"
     style="fill:none;stroke:#ff0000;stroke-width:1.007;stroke-linecap:butt;stroke-linejoin:miter;stroke-miterlimit:10;stroke-dasharray:none;stroke-opacity:1" />
  <path
     inkscape:connector-curvature="0"
     id="path10526"
     d="m 143.125,9813.25 v 0 m 0,0 v 3 m 0,0 h -6 m 0,0 v -3 m 0,0 h 6"
     style="fill:none;stroke:#ff0000;stroke-width:1.007;stroke-linecap:butt;stroke-linejoin:miter;stroke-miterlimit:10;stroke-dasharray:none;stroke-opacity:1" />
  <path
     inkscape:connector-curvature="0"
     id="path10528"
     d="m 131.125,9813.25 v 0 m 0,0 v 3 m 0,0 h -6 m 0,0 v -3 m 0,0 h 6"
     style="fill:none;stroke:#ff0000;stroke-width:1.007;stroke-linecap:butt;stroke-linejoin:miter;stroke-miterlimit:10;stroke-dasharray:none;stroke-opacity:1" />
  <path
     inkscape:connector-curvature="0"
     id="path10530"
     d="m 119.125,9813.25 v 0 m 0,0 v 3 m 0,0 h -6 m 0,0 v -3 m 0,0 h 6"
     style="fill:none;stroke:#ff0000;stroke-width:1.007;stroke-linecap:butt;stroke-linejoin:miter;stroke-miterlimit:10;stroke-dasharray:none;stroke-opacity:1" />
  <path
     inkscape:connector-curvature="0"
     id="path10532"
     d="m 102.375,9813.25 v 0 m 0,0 v 3 m 0,0 h -6 m 0,0 v -3 m 0,0 h 6"
     style="fill:none;stroke:#ff0000;stroke-width:1.007;stroke-linecap:butt;stroke-linejoin:miter;stroke-miterlimit:10;stroke-dasharray:none;stroke-opacity:1" />
  <path
     inkscape:connector-curvature="0"
     id="path10534"
     d="m 90.375,9813.25 v 0 m 0,0 v 3 m 0,0 h -6 m 0,0 v -3 m 0,0 h 6"
     style="fill:none;stroke:#ff0000;stroke-width:1.007;stroke-linecap:butt;stroke-linejoin:miter;stroke-miterlimit:10;stroke-dasharray:none;stroke-opacity:1" />
  <path
     inkscape:connector-curvature="0"
     id="path10536"
     d="m 78.375,9813.25 v 0 m 0,0 v 3 m 0,0 h -6 m 0,0 v -3 m 0,0 h 6"
     style="fill:none;stroke:#ff0000;stroke-width:1.007;stroke-linecap:butt;stroke-linejoin:miter;stroke-miterlimit:10;stroke-dasharray:none;stroke-opacity:1" />
  <path
     inkscape:connector-curvature="0"
     id="path10538"
     d="m 66.375,9813.25 v 0 m 0,0 v 3 m 0,0 h -6 m 0,0 v -3 m 0,0 h 6"
     style="fill:none;stroke:#ff0000;stroke-width:1.007;stroke-linecap:butt;stroke-linejoin:miter;stroke-miterlimit:10;stroke-dasharray:none;stroke-opacity:1" />
  <path
     inkscape:connector-curvature="0"
     id="path10540"
     d="m 49.625,9813.25 v 0 m 0,0 v 3 m 0,0 h -6 m 0,0 v -3 m 0,0 h 6"
     style="fill:none;stroke:#ff0000;stroke-width:1.007;stroke-linecap:butt;stroke-linejoin:miter;stroke-miterlimit:10;stroke-dasharray:none;stroke-opacity:1" />
  <path
     inkscape:connector-curvature="0"
     id="path10542"
     d="m 37.625,9813.25 v 0 m 0,0 v 3 m 0,0 h -6 m 0,0 v -3 m 0,0 h 6"
     style="fill:none;stroke:#ff0000;stroke-width:1.007;stroke-linecap:butt;stroke-linejoin:miter;stroke-miterlimit:10;stroke-dasharray:none;stroke-opacity:1" />
  <path
     inkscape:connector-curvature="0"
     id="path10544"
     d="m 25.625,9813.25 v 0 m 0,0 v 3 m 0,0 h -6 m 0,0 v -3 m 0,0 h 6"
     style="fill:none;stroke:#ff0000;stroke-width:1.007;stroke-linecap:butt;stroke-linejoin:miter;stroke-miterlimit:10;stroke-dasharray:none;stroke-opacity:1" />
  <path
     inkscape:connector-curvature="0"
     id="path10546"
     d="m 13.625,9813.25 v 0 m 0,0 v 3 m 0,0 h -6 m 0,0 v -3 m 0,0 h 6"
     style="fill:none;stroke:#ff0000;stroke-width:1.007;stroke-linecap:butt;stroke-linejoin:miter;stroke-miterlimit:10;stroke-dasharray:none;stroke-opacity:1" />
  <path
     inkscape:connector-curvature="0"
     id="path10548"
     d="m 207.875,9765.25 v 0 m 0,0 v 3 m 0,0 h -6 m 0,0 v -3 m 0,0 h 6"
     style="fill:none;stroke:#ff0000;stroke-width:1.007;stroke-linecap:butt;stroke-linejoin:miter;stroke-miterlimit:10;stroke-dasharray:none;stroke-opacity:1" />
  <path
     inkscape:connector-curvature="0"
     id="path10550"
     d="m 195.875,9765.25 v 0 m 0,0 v 3 m 0,0 h -6 m 0,0 v -3 m 0,0 h 6"
     style="fill:none;stroke:#ff0000;stroke-width:1.007;stroke-linecap:butt;stroke-linejoin:miter;stroke-miterlimit:10;stroke-dasharray:none;stroke-opacity:1" />
  <path
     inkscape:connector-curvature="0"
     id="path10552"
     d="m 183.875,9765.25 v 0 m 0,0 v 3 m 0,0 h -6 m 0,0 v -3 m 0,0 h 6"
     style="fill:none;stroke:#ff0000;stroke-width:1.007;stroke-linecap:butt;stroke-linejoin:miter;stroke-miterlimit:10;stroke-dasharray:none;stroke-opacity:1" />
  <path
     inkscape:connector-curvature="0"
     id="path10554"
     d="m 171.875,9765.25 v 0 m 0,0 v 3 m 0,0 h -6 m 0,0 v -3 m 0,0 h 6"
     style="fill:none;stroke:#ff0000;stroke-width:1.007;stroke-linecap:butt;stroke-linejoin:miter;stroke-miterlimit:10;stroke-dasharray:none;stroke-opacity:1" />
  <path
     inkscape:connector-curvature="0"
     id="path10556"
     d="m 155.125,9765.25 v 0 m 0,0 v 3 m 0,0 h -6 m 0,0 v -3 m 0,0 h 6"
     style="fill:none;stroke:#ff0000;stroke-width:1.007;stroke-linecap:butt;stroke-linejoin:miter;stroke-miterlimit:10;stroke-dasharray:none;stroke-opacity:1" />
  <path
     inkscape:connector-curvature="0"
     id="path10558"
     d="m 143.125,9765.25 v 0 m 0,0 v 3 m 0,0 h -6 m 0,0 v -3 m 0,0 h 6"
     style="fill:none;stroke:#ff0000;stroke-width:1.007;stroke-linecap:butt;stroke-linejoin:miter;stroke-miterlimit:10;stroke-dasharray:none;stroke-opacity:1" />
  <path
     inkscape:connector-curvature="0"
     id="path10560"
     d="m 131.125,9765.25 v 0 m 0,0 v 3 m 0,0 h -6 m 0,0 v -3 m 0,0 h 6"
     style="fill:none;stroke:#ff0000;stroke-width:1.007;stroke-linecap:butt;stroke-linejoin:miter;stroke-miterlimit:10;stroke-dasharray:none;stroke-opacity:1" />
  <path
     inkscape:connector-curvature="0"
     id="path10562"
     d="m 119.125,9765.25 v 0 m 0,0 v 3 m 0,0 h -6 m 0,0 v -3 m 0,0 h 6"
     style="fill:none;stroke:#ff0000;stroke-width:1.007;stroke-linecap:butt;stroke-linejoin:miter;stroke-miterlimit:10;stroke-dasharray:none;stroke-opacity:1" />
  <path
     inkscape:connector-curvature="0"
     id="path10564"
     d="m 102.375,9765.25 v 0 m 0,0 v 3 m 0,0 h -6 m 0,0 v -3 m 0,0 h 6"
     style="fill:none;stroke:#ff0000;stroke-width:1.007;stroke-linecap:butt;stroke-linejoin:miter;stroke-miterlimit:10;stroke-dasharray:none;stroke-opacity:1" />
  <path
     inkscape:connector-curvature="0"
     id="path10566"
     d="m 90.375,9765.25 v 0 m 0,0 v 3 m 0,0 h -6 m 0,0 v -3 m 0,0 h 6"
     style="fill:none;stroke:#ff0000;stroke-width:1.007;stroke-linecap:butt;stroke-linejoin:miter;stroke-miterlimit:10;stroke-dasharray:none;stroke-opacity:1" />
  <path
     inkscape:connector-curvature="0"
     id="path10568"
     d="m 78.375,9765.25 v 0 m 0,0 v 3 m 0,0 h -6 m 0,0 v -3 m 0,0 h 6"
     style="fill:none;stroke:#ff0000;stroke-width:1.007;stroke-linecap:butt;stroke-linejoin:miter;stroke-miterlimit:10;stroke-dasharray:none;stroke-opacity:1" />
  <path
     inkscape:connector-curvature="0"
     id="path10570"
     d="m 66.375,9765.25 v 0 m 0,0 v 3 m 0,0 h -6 m 0,0 v -3 m 0,0 h 6"
     style="fill:none;stroke:#ff0000;stroke-width:1.007;stroke-linecap:butt;stroke-linejoin:miter;stroke-miterlimit:10;stroke-dasharray:none;stroke-opacity:1" />
  <path
     inkscape:connector-curvature="0"
     id="path10572"
     d="m 49.625,9765.25 v 0 m 0,0 v 3 m 0,0 h -6 m 0,0 v -3 m 0,0 h 6"
     style="fill:none;stroke:#ff0000;stroke-width:1.007;stroke-linecap:butt;stroke-linejoin:miter;stroke-miterlimit:10;stroke-dasharray:none;stroke-opacity:1" />
  <path
     inkscape:connector-curvature="0"
     id="path10574"
     d="m 37.625,9765.25 v 0 m 0,0 v 3 m 0,0 h -6 m 0,0 v -3 m 0,0 h 6"
     style="fill:none;stroke:#ff0000;stroke-width:1.007;stroke-linecap:butt;stroke-linejoin:miter;stroke-miterlimit:10;stroke-dasharray:none;stroke-opacity:1" />
  <path
     inkscape:connector-curvature="0"
     id="path10576"
     d="m 25.625,9765.25 v 0 m 0,0 v 3 m 0,0 h -6 m 0,0 v -3 m 0,0 h 6"
     style="fill:none;stroke:#ff0000;stroke-width:1.007;stroke-linecap:butt;stroke-linejoin:miter;stroke-miterlimit:10;stroke-dasharray:none;stroke-opacity:1" />
  <path
     inkscape:connector-curvature="0"
     id="path10578"
     d="m 13.625,9765.25 v 0 m 0,0 v 3 m 0,0 h -6 m 0,0 v -3 m 0,0 h 6"
     style="fill:none;stroke:#ff0000;stroke-width:1.007;stroke-linecap:butt;stroke-linejoin:miter;stroke-miterlimit:10;stroke-dasharray:none;stroke-opacity:1" />
  <path
     inkscape:connector-curvature="0"
     id="path10580"
     d="m 207.875,9717.25 v 0 m 0,0 v 3 m 0,0 h -6 m 0,0 v -3 m 0,0 h 6"
     style="fill:none;stroke:#ff0000;stroke-width:1.007;stroke-linecap:butt;stroke-linejoin:miter;stroke-miterlimit:10;stroke-dasharray:none;stroke-opacity:1" />
  <path
     inkscape:connector-curvature="0"
     id="path10582"
     d="m 195.875,9717.25 v 0 m 0,0 v 3 m 0,0 h -6 m 0,0 v -3 m 0,0 h 6"
     style="fill:none;stroke:#ff0000;stroke-width:1.007;stroke-linecap:butt;stroke-linejoin:miter;stroke-miterlimit:10;stroke-dasharray:none;stroke-opacity:1" />
  <path
     inkscape:connector-curvature="0"
     id="path10584"
     d="m 183.875,9717.25 v 0 m 0,0 v 3 m 0,0 h -6 m 0,0 v -3 m 0,0 h 6"
     style="fill:none;stroke:#ff0000;stroke-width:1.007;stroke-linecap:butt;stroke-linejoin:miter;stroke-miterlimit:10;stroke-dasharray:none;stroke-opacity:1" />
  <path
     inkscape:connector-curvature="0"
     id="path10586"
     d="m 171.875,9717.25 v 0 m 0,0 v 3 m 0,0 h -6 m 0,0 v -3 m 0,0 h 6"
     style="fill:none;stroke:#ff0000;stroke-width:1.007;stroke-linecap:butt;stroke-linejoin:miter;stroke-miterlimit:10;stroke-dasharray:none;stroke-opacity:1" />
  <path
     inkscape:connector-curvature="0"
     id="path10588"
     d="m 155.125,9717.25 v 0 m 0,0 v 3 m 0,0 h -6 m 0,0 v -3 m 0,0 h 6"
     style="fill:none;stroke:#ff0000;stroke-width:1.007;stroke-linecap:butt;stroke-linejoin:miter;stroke-miterlimit:10;stroke-dasharray:none;stroke-opacity:1" />
  <path
     inkscape:connector-curvature="0"
     id="path10590"
     d="m 143.125,9717.25 v 0 m 0,0 v 3 m 0,0 h -6 m 0,0 v -3 m 0,0 h 6"
     style="fill:none;stroke:#ff0000;stroke-width:1.007;stroke-linecap:butt;stroke-linejoin:miter;stroke-miterlimit:10;stroke-dasharray:none;stroke-opacity:1" />
  <path
     inkscape:connector-curvature="0"
     id="path10592"
     d="m 131.125,9717.25 v 0 m 0,0 v 3 m 0,0 h -6 m 0,0 v -3 m 0,0 h 6"
     style="fill:none;stroke:#ff0000;stroke-width:1.007;stroke-linecap:butt;stroke-linejoin:miter;stroke-miterlimit:10;stroke-dasharray:none;stroke-opacity:1" />
  <path
     inkscape:connector-curvature="0"
     id="path10594"
     d="m 119.125,9717.25 v 0 m 0,0 v 3 m 0,0 h -6 m 0,0 v -3 m 0,0 h 6"
     style="fill:none;stroke:#ff0000;stroke-width:1.007;stroke-linecap:butt;stroke-linejoin:miter;stroke-miterlimit:10;stroke-dasharray:none;stroke-opacity:1" />
  <path
     inkscape:connector-curvature="0"
     id="path10596"
     d="m 102.375,9717.25 v 0 m 0,0 v 3 m 0,0 h -6 m 0,0 v -3 m 0,0 h 6"
     style="fill:none;stroke:#ff0000;stroke-width:1.007;stroke-linecap:butt;stroke-linejoin:miter;stroke-miterlimit:10;stroke-dasharray:none;stroke-opacity:1" />
  <path
     inkscape:connector-curvature="0"
     id="path10598"
     d="m 90.375,9717.25 v 0 m 0,0 v 3 m 0,0 h -6 m 0,0 v -3 m 0,0 h 6"
     style="fill:none;stroke:#ff0000;stroke-width:1.007;stroke-linecap:butt;stroke-linejoin:miter;stroke-miterlimit:10;stroke-dasharray:none;stroke-opacity:1" />
  <path
     inkscape:connector-curvature="0"
     id="path10600"
     d="m 78.375,9717.25 v 0 m 0,0 v 3 m 0,0 h -6 m 0,0 v -3 m 0,0 h 6"
     style="fill:none;stroke:#ff0000;stroke-width:1.007;stroke-linecap:butt;stroke-linejoin:miter;stroke-miterlimit:10;stroke-dasharray:none;stroke-opacity:1" />
  <path
     inkscape:connector-curvature="0"
     id="path10602"
     d="m 66.375,9717.25 v 0 m 0,0 v 3 m 0,0 h -6 m 0,0 v -3 m 0,0 h 6"
     style="fill:none;stroke:#ff0000;stroke-width:1.007;stroke-linecap:butt;stroke-linejoin:miter;stroke-miterlimit:10;stroke-dasharray:none;stroke-opacity:1" />
  <path
     inkscape:connector-curvature="0"
     id="path10604"
     d="m 49.625,9717.25 v 0 m 0,0 v 3 m 0,0 h -6 m 0,0 v -3 m 0,0 h 6"
     style="fill:none;stroke:#ff0000;stroke-width:1.007;stroke-linecap:butt;stroke-linejoin:miter;stroke-miterlimit:10;stroke-dasharray:none;stroke-opacity:1" />
  <path
     inkscape:connector-curvature="0"
     id="path10606"
     d="m 37.625,9717.25 v 0 m 0,0 v 3 m 0,0 h -6 m 0,0 v -3 m 0,0 h 6"
     style="fill:none;stroke:#ff0000;stroke-width:1.007;stroke-linecap:butt;stroke-linejoin:miter;stroke-miterlimit:10;stroke-dasharray:none;stroke-opacity:1" />
  <path
     inkscape:connector-curvature="0"
     id="path10608"
     d="m 25.625,9717.25 v 0 m 0,0 v 3 m 0,0 h -6 m 0,0 v -3 m 0,0 h 6"
     style="fill:none;stroke:#ff0000;stroke-width:1.007;stroke-linecap:butt;stroke-linejoin:miter;stroke-miterlimit:10;stroke-dasharray:none;stroke-opacity:1" />
  <path
     inkscape:connector-curvature="0"
     id="path10610"
     d="m 13.625,9717.25 v 0 m 0,0 v 3 m 0,0 h -6 m 0,0 v -3 m 0,0 h 6"
     style="fill:none;stroke:#ff0000;stroke-width:1.007;stroke-linecap:butt;stroke-linejoin:miter;stroke-miterlimit:10;stroke-dasharray:none;stroke-opacity:1" />
  <path
     inkscape:connector-curvature="0"
     id="path10612"
     d="m 211.75,9861.25 v -1.5 m 0,0 v 0 m 0,0 h 3 m 0,0 v -6 m 0,0 h -3 m 0,0 v -6 m 0,0 v 0 m 0,0 h 3 m 0,0 v -6 m 0,0 h -3 m 0,0 v -6 m 0,0 v 0 m 0,0 h 3 m 0,0 v -6 m 0,0 h -3 m 0,0 v -6 m 0,0 v 0 m 0,0 h 3 m 0,0 v -6 m 0,0 h -3 m 0,0 v -6 m 0,0 v 0 m 0,0 h 3 m 0,0 v -6 m 0,0 h -3 m 0,0 v -6 m 0,0 v 0 m 0,0 h 3 m 0,0 v -6 m 0,0 h -3 m 0,0 v -6 m 0,0 v 0 m 0,0 h 3 m 0,0 v -6 m 0,0 h -3 m 0,0 v -6 m 0,0 v 0 m 0,0 h 3 m 0,0 v -6 m 0,0 h -3 m 0,0 v -6 m 0,0 v 0 m 0,0 h 3 m 0,0 v -6 m 0,0 h -3 m 0,0 v -6 m 0,0 v 0 m 0,0 h 3 m 0,0 v -6 m 0,0 h -3 m 0,0 v -6 m 0,0 v 0 m 0,0 h 3 m 0,0 v -6 m 0,0 h -3 m 0,0 v -6 m 0,0 v 0 m 0,0 h 3 m 0,0 v -6 m 0,0 h -3 m 0,0 v -6 m 0,0 v 0 m 0,0 h 3 m 0,0 v -6 m 0,0 h -3 m 0,0 v -6 m 0,0 v 0 m 0,0 h 3 m 0,0 v -6 m 0,0 h -3 m 0,0 v -6 m 0,0 v 0 m 0,0 h 3 m 0,0 v -6 m 0,0 h -3 m 0,0 v -6 m 0,0 v 0 m 0,0 h 3 m 0,0 v -6 m 0,0 h -3 m 0,0 v -1.5 m 0,0 v 0 m 0,0 v 0 m 0,0 h -5 m 0,0 v 0 m 0,0 v -3 m 0,0 h -6 m 0,0 v 3 m 0,0 h -6 m 0,0 v 0 m 0,0 v -3 m 0,0 h -6 m 0,0 v 3 m 0,0 h -6 m 0,0 v 0 m 0,0 v -3 m 0,0 h -6 m 0,0 v 3 m 0,0 h -6 m 0,0 v 0 m 0,0 v -3 m 0,0 h -6 m 0,0 v 3 m 0,0 h -6 m 0,0 v 0 m 0,0 v -3 m 0,0 h -6 m 0,0 v 3 m 0,0 h -6 m 0,0 v 0 m 0,0 v -3 m 0,0 h -6 m 0,0 v 3 m 0,0 h -6 m 0,0 v 0 m 0,0 v -3 m 0,0 h -6 m 0,0 v 3 m 0,0 h -6 m 0,0 v 0 m 0,0 v -3 m 0,0 h -6 m 0,0 v 3 m 0,0 h -6 m 0,0 v 0 m 0,0 v -3 m 0,0 h -6 m 0,0 v 3 m 0,0 h -6 m 0,0 v 0 m 0,0 v -3 m 0,0 h -6 m 0,0 v 3 m 0,0 h -6 m 0,0 v 0 m 0,0 v -3 m 0,0 h -6 m 0,0 v 3 m 0,0 h -6 m 0,0 v 0 m 0,0 v -3 m 0,0 h -6 m 0,0 v 3 m 0,0 h -6 m 0,0 v 0 m 0,0 v -3 m 0,0 h -6 m 0,0 v 3 m 0,0 h -6 m 0,0 v 0 m 0,0 v -3 m 0,0 h -6 m 0,0 v 3 m 0,0 h -6 m 0,0 v 0 m 0,0 v -3 m 0,0 h -6 m 0,0 v 3 m 0,0 h -6 m 0,0 v 0 m 0,0 v -3 m 0,0 h -6 m 0,0 v 3 m 0,0 h -6 m 0,0 v 0 m 0,0 v -3 m 0,0 h -6 m 0,0 v 3 m 0,0 h -5 m 0,0 v 0 m 0,0 v 0 m 0,0 v 1.5 m 0,0 v 0 m 0,0 h -3 m 0,0 v 6 m 0,0 h 3 m 0,0 v 6 m 0,0 v 0 m 0,0 h -3 m 0,0 v 6 m 0,0 h 3 m 0,0 v 6 m 0,0 v 0 m 0,0 h -3 m 0,0 v 6 m 0,0 h 3 m 0,0 v 6 m 0,0 v 0 m 0,0 h -3 m 0,0 v 6 m 0,0 h 3 m 0,0 v 6 m 0,0 v 0 m 0,0 h -3 m 0,0 v 6 m 0,0 h 3 m 0,0 v 6 m 0,0 v 0 m 0,0 h -3 m 0,0 v 6 m 0,0 h 3 m 0,0 v 6 m 0,0 v 0 m 0,0 h -3 m 0,0 v 6 m 0,0 h 3 m 0,0 v 6 m 0,0 v 0 m 0,0 h -3 m 0,0 v 6 m 0,0 h 3 m 0,0 v 6 m 0,0 v 0 m 0,0 h -3 m 0,0 v 6 m 0,0 h 3 m 0,0 v 6 m 0,0 v 0 m 0,0 h -3 m 0,0 v 6 m 0,0 h 3 m 0,0 v 6 m 0,0 v 0 m 0,0 h -3 m 0,0 v 6 m 0,0 h 3 m 0,0 v 6 m 0,0 v 0 m 0,0 h -3 m 0,0 v 6 m 0,0 h 3 m 0,0 v 6 m 0,0 v 0 m 0,0 h -3 m 0,0 v 6 m 0,0 h 3 m 0,0 v 6 m 0,0 v 0 m 0,0 h -3 m 0,0 v 6 m 0,0 h 3 m 0,0 v 6 m 0,0 v 0 m 0,0 h -3 m 0,0 v 6 m 0,0 h 3 m 0,0 v 6 m 0,0 v 0 m 0,0 h -3 m 0,0 v 6 m 0,0 h 3 m 0,0 v 1.5 m 0,0 v 0 m 0,0 v 0"
     style="fill:none;stroke:#ff0000;stroke-width:1.007;stroke-linecap:butt;stroke-linejoin:miter;stroke-miterlimit:10;stroke-dasharray:none;stroke-opacity:1" />
  <path
     style="fill:none;stroke:#ff0000;stroke-width:3.80598428;stroke-linecap:butt;stroke-linejoin:miter;stroke-miterlimit:10;stroke-dasharray:none;stroke-opacity:1"
     d="M 14.173828 547.08594 L 14.173828 558.42578 L 2.8339844 558.42578 L 2.8339844 581.10156 L 14.173828 581.10156 L 14.173828 603.7793 L 2.8339844 603.7793 L 2.8339844 626.45703 L 14.173828 626.45703 L 14.173828 649.13477 L 2.8339844 649.13477 L 2.8339844 671.81055 L 14.173828 671.81055 L 14.173828 694.48828 L 2.8339844 694.48828 L 2.8339844 717.16602 L 14.173828 717.16602 L 14.173828 739.8418 L 2.8339844 739.8418 L 2.8339844 762.51953 L 14.173828 762.51953 L 14.173828 773.85742 L 28.818359 773.85742 L 28.818359 785.19727 L 51.496094 785.19727 L 51.496094 773.85742 L 74.173828 773.85742 L 74.173828 785.19727 L 96.849609 785.19727 L 96.849609 773.85742 L 119.52734 773.85742 L 119.52734 785.19727 L 142.20508 785.19727 L 142.20508 773.85742 L 164.88281 773.85742 L 164.88281 785.19727 L 187.55859 785.19727 L 187.55859 773.85742 L 202.20508 773.85742 L 207.87305 773.85742 L 213.54297 773.85742 L 228.18945 773.85742 L 228.18945 785.19727 L 250.86523 785.19727 L 250.86523 773.85742 L 273.54297 773.85742 L 273.54297 785.19727 L 296.2207 785.19727 L 296.2207 773.85742 L 318.89844 773.85742 L 318.89844 785.19727 L 341.57422 785.19727 L 341.57422 773.85742 L 364.25195 773.85742 L 364.25195 785.19727 L 386.92969 785.19727 L 386.92969 773.85742 L 401.57422 773.85742 L 407.24414 773.85742 L 412.91406 773.85742 L 427.55859 773.85742 L 427.55859 785.19727 L 450.23633 785.19727 L 450.23633 773.85742 L 472.91406 773.85742 L 472.91406 785.19727 L 495.58984 785.19727 L 495.58984 773.85742 L 518.26758 773.85742 L 518.26758 785.19727 L 540.94531 785.19727 L 540.94531 773.85742 L 563.62109 773.85742 L 563.62109 785.19727 L 586.29883 785.19727 L 586.29883 773.85742 L 600.94531 773.85742 L 606.61328 773.85742 L 612.2832 773.85742 L 626.92969 773.85742 L 626.92969 785.19727 L 649.60547 785.19727 L 649.60547 773.85742 L 672.2832 773.85742 L 672.2832 785.19727 L 694.96094 785.19727 L 694.96094 773.85742 L 717.63867 773.85742 L 717.63867 785.19727 L 740.31445 785.19727 L 740.31445 773.85742 L 762.99219 773.85742 L 762.99219 785.19727 L 785.66992 785.19727 L 785.66992 773.85742 L 800.31445 773.85742 L 800.31445 762.51953 L 811.6543 762.51953 L 811.6543 739.8418 L 800.31445 739.8418 L 800.31445 717.16602 L 811.6543 717.16602 L 811.6543 694.48828 L 800.31445 694.48828 L 800.31445 671.81055 L 811.6543 671.81055 L 811.6543 649.13477 L 800.31445 649.13477 L 800.31445 626.45703 L 811.6543 626.45703 L 811.6543 603.7793 L 800.31445 603.7793 L 800.31445 581.10156 L 811.6543 581.10156 L 811.6543 558.42578 L 800.31445 558.42578 L 800.31445 547.08594 L 779.03516 547.08594 A 71.716537 71.716537 0 0 1 707.44727 616.20898 A 71.716537 71.716537 0 0 1 635.82422 547.08594 L 612.2832 547.08594 L 612.2832 660.47266 L 600.94531 660.47266 L 600.94531 547.08594 L 579.66406 547.08594 A 71.716536 71.716536 0 0 1 508.07812 616.20898 A 71.716536 71.716536 0 0 1 436.45312 547.08594 L 412.91406 547.08594 L 412.91406 660.47266 L 401.57422 660.47266 L 401.57422 547.08594 L 380.29492 547.08594 A 71.716535 71.716535 0 0 1 308.70898 616.20898 A 71.716535 71.716535 0 0 1 237.08398 547.08594 L 213.54297 547.08594 L 213.54297 660.47266 L 202.20508 660.47266 L 202.20508 547.08594 L 180.92383 547.08594 A 71.716534 71.716534 0 0 1 109.33789 616.20898 A 71.716534 71.716534 0 0 1 37.712891 547.08594 L 14.173828 547.08594 z "
     transform="matrix(0.26458333,0,0,0.26458333,0,9460)"
     id="path10614" />
  <path
     style="fill:none;stroke:#ff0000;stroke-width:3.80598428;stroke-linecap:butt;stroke-linejoin:miter;stroke-miterlimit:10;stroke-dasharray:none;stroke-opacity:1"
     d="M 14.173828 303.30664 L 14.173828 314.64648 L 2.8339844 314.64648 L 2.8339844 337.32227 L 14.173828 337.32227 L 14.173828 360 L 2.8339844 360 L 2.8339844 382.67773 L 14.173828 382.67773 L 14.173828 405.35352 L 2.8339844 405.35352 L 2.8339844 428.03125 L 14.173828 428.03125 L 14.173828 450.70898 L 2.8339844 450.70898 L 2.8339844 473.38672 L 14.173828 473.38672 L 14.173828 496.0625 L 2.8339844 496.0625 L 2.8339844 518.74023 L 14.173828 518.74023 L 14.173828 530.07812 L 28.818359 530.07812 L 28.818359 541.41797 L 51.496094 541.41797 L 51.496094 530.07812 L 74.173828 530.07812 L 74.173828 541.41797 L 96.849609 541.41797 L 96.849609 530.07812 L 119.52734 530.07812 L 119.52734 541.41797 L 142.20508 541.41797 L 142.20508 530.07812 L 164.88281 530.07812 L 164.88281 541.41797 L 187.55859 541.41797 L 187.55859 530.07812 L 202.20508 530.07812 L 207.87305 530.07812 L 213.54297 530.07812 L 228.18945 530.07812 L 228.18945 541.41797 L 250.86523 541.41797 L 250.86523 530.07812 L 273.54297 530.07812 L 273.54297 541.41797 L 296.2207 541.41797 L 296.2207 530.07812 L 318.89844 530.07812 L 318.89844 541.41797 L 341.57422 541.41797 L 341.57422 530.07812 L 364.25195 530.07812 L 364.25195 541.41797 L 386.92969 541.41797 L 386.92969 530.07812 L 401.57422 530.07812 L 407.24414 530.07812 L 412.91406 530.07812 L 427.55859 530.07812 L 427.55859 541.41797 L 450.23633 541.41797 L 450.23633 530.07812 L 472.91406 530.07812 L 472.91406 541.41797 L 495.58984 541.41797 L 495.58984 530.07812 L 518.26758 530.07812 L 518.26758 541.41797 L 540.94531 541.41797 L 540.94531 530.07812 L 563.62109 530.07812 L 563.62109 541.41797 L 586.29883 541.41797 L 586.29883 530.07812 L 600.94531 530.07812 L 606.61328 530.07812 L 612.2832 530.07812 L 626.92969 530.07812 L 626.92969 541.41797 L 649.60547 541.41797 L 649.60547 530.07812 L 672.2832 530.07812 L 672.2832 541.41797 L 694.96094 541.41797 L 694.96094 530.07812 L 717.63867 530.07812 L 717.63867 541.41797 L 740.31445 541.41797 L 740.31445 530.07812 L 762.99219 530.07812 L 762.99219 541.41797 L 785.66992 541.41797 L 785.66992 530.07812 L 800.31445 530.07812 L 800.31445 518.74023 L 811.6543 518.74023 L 811.6543 496.0625 L 800.31445 496.0625 L 800.31445 473.38672 L 811.6543 473.38672 L 811.6543 450.70898 L 800.31445 450.70898 L 800.31445 428.03125 L 811.6543 428.03125 L 811.6543 405.35352 L 800.31445 405.35352 L 800.31445 382.67773 L 811.6543 382.67773 L 811.6543 360 L 800.31445 360 L 800.31445 337.32227 L 811.6543 337.32227 L 811.6543 314.64648 L 800.31445 314.64648 L 800.31445 303.30664 L 779.16211 303.30664 A 71.716537 71.716537 0 0 1 779.16406 303.36328 A 71.716537 71.716537 0 0 1 707.44727 375.07812 A 71.716537 71.716537 0 0 1 635.73242 303.36328 A 71.716537 71.716537 0 0 1 635.73438 303.30664 L 612.2832 303.30664 L 612.2832 416.69336 L 600.94531 416.69336 L 600.94531 303.30664 L 579.79297 303.30664 A 71.716536 71.716536 0 0 1 579.79492 303.36328 A 71.716536 71.716536 0 0 1 508.07812 375.07812 A 71.716536 71.716536 0 0 1 436.36133 303.36328 A 71.716536 71.716536 0 0 1 436.36328 303.30664 L 412.91406 303.30664 L 412.91406 416.69336 L 401.57422 416.69336 L 401.57422 303.30664 L 380.42188 303.30664 A 71.716535 71.716535 0 0 1 380.42383 303.36328 A 71.716535 71.716535 0 0 1 308.70898 375.07812 A 71.716535 71.716535 0 0 1 236.99219 303.36328 A 71.716535 71.716535 0 0 1 236.99414 303.30664 L 213.54297 303.30664 L 213.54297 416.69336 L 202.20508 416.69336 L 202.20508 303.30664 L 181.05273 303.30664 A 71.716534 71.716534 0 0 1 181.05469 303.36328 A 71.716534 71.716534 0 0 1 109.33789 375.07812 A 71.716534 71.716534 0 0 1 37.621094 303.36328 A 71.716534 71.716534 0 0 1 37.623047 303.30664 L 14.173828 303.30664 z "
     transform="matrix(0.26458333,0,0,0.26458333,0,9460)"
     id="path10616" />
  <path
     style="fill:none;stroke:#ff0000;stroke-width:3.80598428;stroke-linecap:butt;stroke-linejoin:miter;stroke-miterlimit:10;stroke-dasharray:none;stroke-opacity:1"
     d="M 14.173828 59.527344 L 14.173828 70.865234 L 2.8339844 70.865234 L 2.8339844 93.542969 L 14.173828 93.542969 L 14.173828 116.2207 L 2.8339844 116.2207 L 2.8339844 138.89844 L 14.173828 138.89844 L 14.173828 161.57422 L 2.8339844 161.57422 L 2.8339844 184.25195 L 14.173828 184.25195 L 14.173828 206.92969 L 2.8339844 206.92969 L 2.8339844 229.60547 L 14.173828 229.60547 L 14.173828 252.2832 L 2.8339844 252.2832 L 2.8339844 274.96094 L 14.173828 274.96094 L 14.173828 286.29883 L 28.818359 286.29883 L 28.818359 297.63867 L 51.496094 297.63867 L 51.496094 286.29883 L 74.173828 286.29883 L 74.173828 297.63867 L 96.849609 297.63867 L 96.849609 286.29883 L 119.52734 286.29883 L 119.52734 297.63867 L 142.20508 297.63867 L 142.20508 286.29883 L 164.88281 286.29883 L 164.88281 297.63867 L 187.55859 297.63867 L 187.55859 286.29883 L 202.20508 286.29883 L 207.87305 286.29883 L 213.54297 286.29883 L 228.18945 286.29883 L 228.18945 297.63867 L 250.86523 297.63867 L 250.86523 286.29883 L 273.54297 286.29883 L 273.54297 297.63867 L 296.2207 297.63867 L 296.2207 286.29883 L 318.89844 286.29883 L 318.89844 297.63867 L 341.57422 297.63867 L 341.57422 286.29883 L 364.25195 286.29883 L 364.25195 297.63867 L 386.92969 297.63867 L 386.92969 286.29883 L 401.57422 286.29883 L 407.24414 286.29883 L 412.91406 286.29883 L 427.55859 286.29883 L 427.55859 297.63867 L 450.23633 297.63867 L 450.23633 286.29883 L 472.91406 286.29883 L 472.91406 297.63867 L 495.58984 297.63867 L 495.58984 286.29883 L 518.26758 286.29883 L 518.26758 297.63867 L 540.94531 297.63867 L 540.94531 286.29883 L 563.62109 286.29883 L 563.62109 297.63867 L 586.29883 297.63867 L 586.29883 286.29883 L 600.94531 286.29883 L 606.61328 286.29883 L 612.2832 286.29883 L 626.92969 286.29883 L 626.92969 297.63867 L 649.60547 297.63867 L 649.60547 286.29883 L 672.2832 286.29883 L 672.2832 297.63867 L 694.96094 297.63867 L 694.96094 286.29883 L 717.63867 286.29883 L 717.63867 297.63867 L 740.31445 297.63867 L 740.31445 286.29883 L 762.99219 286.29883 L 762.99219 297.63867 L 785.66992 297.63867 L 785.66992 286.29883 L 800.31445 286.29883 L 800.31445 274.96094 L 811.6543 274.96094 L 811.6543 252.2832 L 800.31445 252.2832 L 800.31445 229.60547 L 811.6543 229.60547 L 811.6543 206.92969 L 800.31445 206.92969 L 800.31445 184.25195 L 811.6543 184.25195 L 811.6543 161.57422 L 800.31445 161.57422 L 800.31445 138.89844 L 811.6543 138.89844 L 811.6543 116.2207 L 800.31445 116.2207 L 800.31445 93.542969 L 811.6543 93.542969 L 811.6543 70.865234 L 800.31445 70.865234 L 800.31445 59.527344 L 779.12891 59.527344 A 71.716537 71.716537 0 0 1 707.44727 130.54688 A 71.716537 71.716537 0 0 1 635.75781 59.527344 L 612.2832 59.527344 L 612.2832 172.91406 L 600.94531 172.91406 L 600.94531 59.527344 L 579.75977 59.527344 A 71.716536 71.716536 0 0 1 508.07812 130.54688 A 71.716536 71.716536 0 0 1 436.38672 59.527344 L 412.91406 59.527344 L 412.91406 172.91406 L 401.57422 172.91406 L 401.57422 59.527344 L 380.38867 59.527344 A 71.716535 71.716535 0 0 1 308.70898 130.54688 A 71.716535 71.716535 0 0 1 237.01758 59.527344 L 213.54297 59.527344 L 213.54297 172.91406 L 202.20508 172.91406 L 202.20508 59.527344 L 181.01953 59.527344 A 71.716534 71.716534 0 0 1 109.33789 130.54688 A 71.716534 71.716534 0 0 1 37.646484 59.527344 L 14.173828 59.527344 z "
     transform="matrix(0.26458333,0,0,0.26458333,0,9460)"
     id="path10618" />
  <path
     inkscape:connector-curvature="0"
     id="path10620"
     d="m 267.25,9993.25 v 0 m 0,0 h -3 m 0,0 v -6 m 0,0 h 3 m 0,0 v 6"
     style="fill:none;stroke:#ff0000;stroke-width:1.007;stroke-linecap:butt;stroke-linejoin:miter;stroke-miterlimit:10;stroke-dasharray:none;stroke-opacity:1" />
  <path
     inkscape:connector-curvature="0"
     id="path10622"
     d="m 267.25,9981.25 v 0 m 0,0 h -3 m 0,0 v -6 m 0,0 h 3 m 0,0 v 6"
     style="fill:none;stroke:#ff0000;stroke-width:1.007;stroke-linecap:butt;stroke-linejoin:miter;stroke-miterlimit:10;stroke-dasharray:none;stroke-opacity:1" />
  <path
     inkscape:connector-curvature="0"
     id="path10624"
     d="m 267.25,9969.25 v 0 m 0,0 h -3 m 0,0 v -6 m 0,0 h 3 m 0,0 v 6"
     style="fill:none;stroke:#ff0000;stroke-width:1.007;stroke-linecap:butt;stroke-linejoin:miter;stroke-miterlimit:10;stroke-dasharray:none;stroke-opacity:1" />
  <path
     inkscape:connector-curvature="0"
     id="path10626"
     d="m 267.25,9957.25 v 0 m 0,0 h -3 m 0,0 v -6 m 0,0 h 3 m 0,0 v 6"
     style="fill:none;stroke:#ff0000;stroke-width:1.007;stroke-linecap:butt;stroke-linejoin:miter;stroke-miterlimit:10;stroke-dasharray:none;stroke-opacity:1" />
  <path
     inkscape:connector-curvature="0"
     id="path10628"
     d="m 267.25,9945.25 v 0 m 0,0 h -3 m 0,0 v -6 m 0,0 h 3 m 0,0 v 6"
     style="fill:none;stroke:#ff0000;stroke-width:1.007;stroke-linecap:butt;stroke-linejoin:miter;stroke-miterlimit:10;stroke-dasharray:none;stroke-opacity:1" />
  <path
     inkscape:connector-curvature="0"
     id="path10630"
     d="m 315.25,9993.25 v 0 m 0,0 h -3 m 0,0 v -6 m 0,0 h 3 m 0,0 v 6"
     style="fill:none;stroke:#ff0000;stroke-width:1.007;stroke-linecap:butt;stroke-linejoin:miter;stroke-miterlimit:10;stroke-dasharray:none;stroke-opacity:1" />
  <path
     inkscape:connector-curvature="0"
     id="path10632"
     d="m 315.25,9981.25 v 0 m 0,0 h -3 m 0,0 v -6 m 0,0 h 3 m 0,0 v 6"
     style="fill:none;stroke:#ff0000;stroke-width:1.007;stroke-linecap:butt;stroke-linejoin:miter;stroke-miterlimit:10;stroke-dasharray:none;stroke-opacity:1" />
  <path
     inkscape:connector-curvature="0"
     id="path10634"
     d="m 315.25,9969.25 v 0 m 0,0 h -3 m 0,0 v -6 m 0,0 h 3 m 0,0 v 6"
     style="fill:none;stroke:#ff0000;stroke-width:1.007;stroke-linecap:butt;stroke-linejoin:miter;stroke-miterlimit:10;stroke-dasharray:none;stroke-opacity:1" />
  <path
     inkscape:connector-curvature="0"
     id="path10636"
     d="m 315.25,9957.25 v 0 m 0,0 h -3 m 0,0 v -6 m 0,0 h 3 m 0,0 v 6"
     style="fill:none;stroke:#ff0000;stroke-width:1.007;stroke-linecap:butt;stroke-linejoin:miter;stroke-miterlimit:10;stroke-dasharray:none;stroke-opacity:1" />
  <path
     inkscape:connector-curvature="0"
     id="path10638"
     d="m 315.25,9945.25 v 0 m 0,0 h -3 m 0,0 v -6 m 0,0 h 3 m 0,0 v 6"
     style="fill:none;stroke:#ff0000;stroke-width:1.007;stroke-linecap:butt;stroke-linejoin:miter;stroke-miterlimit:10;stroke-dasharray:none;stroke-opacity:1" />
  <path
     inkscape:connector-curvature="0"
     id="path10640"
     d="m 363.25,9993.25 v 0 m 0,0 h -3 m 0,0 v -6 m 0,0 h 3 m 0,0 v 6"
     style="fill:none;stroke:#ff0000;stroke-width:1.007;stroke-linecap:butt;stroke-linejoin:miter;stroke-miterlimit:10;stroke-dasharray:none;stroke-opacity:1" />
  <path
     inkscape:connector-curvature="0"
     id="path10642"
     d="m 363.25,9981.25 v 0 m 0,0 h -3 m 0,0 v -6 m 0,0 h 3 m 0,0 v 6"
     style="fill:none;stroke:#ff0000;stroke-width:1.007;stroke-linecap:butt;stroke-linejoin:miter;stroke-miterlimit:10;stroke-dasharray:none;stroke-opacity:1" />
  <path
     inkscape:connector-curvature="0"
     id="path10644"
     d="m 363.25,9969.25 v 0 m 0,0 h -3 m 0,0 v -6 m 0,0 h 3 m 0,0 v 6"
     style="fill:none;stroke:#ff0000;stroke-width:1.007;stroke-linecap:butt;stroke-linejoin:miter;stroke-miterlimit:10;stroke-dasharray:none;stroke-opacity:1" />
  <path
     inkscape:connector-curvature="0"
     id="path10646"
     d="m 363.25,9957.25 v 0 m 0,0 h -3 m 0,0 v -6 m 0,0 h 3 m 0,0 v 6"
     style="fill:none;stroke:#ff0000;stroke-width:1.007;stroke-linecap:butt;stroke-linejoin:miter;stroke-miterlimit:10;stroke-dasharray:none;stroke-opacity:1" />
  <path
     inkscape:connector-curvature="0"
     id="path10648"
     d="m 363.25,9945.25 v 0 m 0,0 h -3 m 0,0 v -6 m 0,0 h 3 m 0,0 v 6"
     style="fill:none;stroke:#ff0000;stroke-width:1.007;stroke-linecap:butt;stroke-linejoin:miter;stroke-miterlimit:10;stroke-dasharray:none;stroke-opacity:1" />
  <path
     style="fill:none;stroke:#ff0000;stroke-width:3.80598428;stroke-linecap:butt;stroke-linejoin:miter;stroke-miterlimit:10;stroke-dasharray:none;stroke-opacity:1"
     d="M 828.66211 1788.6621 L 828.66211 1800 L 828.66211 1811.3379 L 817.32227 1811.3379 L 817.32227 1834.0156 L 828.66211 1834.0156 L 828.66211 1856.6934 L 817.32227 1856.6934 L 817.32227 1879.3691 L 828.66211 1879.3691 L 828.66211 1902.0469 L 817.32227 1902.0469 L 817.32227 1924.7246 L 828.66211 1924.7246 L 828.66211 1947.4023 L 817.32227 1947.4023 L 817.32227 1970.0781 L 828.66211 1970.0781 L 828.66211 1992.7559 L 817.32227 1992.7559 L 817.32227 2015.4336 L 828.66211 2015.4336 L 828.66211 2026.7715 L 828.66211 2038.1094 L 834.33008 2038.1094 L 834.33008 2026.7715 L 857.00781 2026.7715 L 857.00781 2038.1094 L 879.68555 2038.1094 L 879.68555 2026.7715 L 902.36133 2026.7715 L 902.36133 2038.1094 L 925.03906 2038.1094 L 925.03906 2026.7715 L 947.7168 2026.7715 L 947.7168 2038.1094 L 970.39453 2038.1094 L 970.39453 2026.7715 L 993.07031 2026.7715 L 993.07031 2038.1094 L 1015.748 2038.1094 L 1015.748 2026.7715 L 1038.4258 2026.7715 L 1038.4258 2038.1094 L 1061.1016 2038.1094 L 1061.1016 2026.7715 L 1083.7793 2026.7715 L 1083.7793 2038.1094 L 1106.457 2038.1094 L 1106.457 2026.7715 L 1129.1348 2026.7715 L 1129.1348 2038.1094 L 1151.8105 2038.1094 L 1151.8105 2026.7715 L 1174.4883 2026.7715 L 1174.4883 2038.1094 L 1197.166 2038.1094 L 1197.166 2026.7715 L 1219.8418 2026.7715 L 1219.8418 2038.1094 L 1242.5195 2038.1094 L 1242.5195 2026.7715 L 1265.1973 2026.7715 L 1265.1973 2038.1094 L 1287.873 2038.1094 L 1287.873 2026.7715 L 1310.5508 2026.7715 L 1310.5508 2038.1094 L 1333.2285 2038.1094 L 1333.2285 2026.7715 L 1355.9062 2026.7715 L 1355.9062 2038.1094 L 1378.582 2038.1094 L 1378.582 2026.7715 L 1401.2598 2026.7715 L 1401.2598 2038.1094 L 1423.9375 2038.1094 L 1423.9375 2026.7715 L 1446.6133 2026.7715 L 1446.6133 2038.1094 L 1469.291 2038.1094 L 1469.291 2026.7715 L 1491.9688 2026.7715 L 1491.9688 2038.1094 L 1514.6465 2038.1094 L 1514.6465 2026.7715 L 1537.3223 2026.7715 L 1537.3223 2038.1094 L 1542.9922 2038.1094 L 1542.9922 2026.7715 L 1542.9922 2015.4336 L 1554.3301 2015.4336 L 1554.3301 1992.7559 L 1542.9922 1992.7559 L 1542.9922 1970.0781 L 1554.3301 1970.0781 L 1554.3301 1947.4023 L 1542.9922 1947.4023 L 1542.9922 1924.7246 L 1554.3301 1924.7246 L 1554.3301 1902.0469 L 1542.9922 1902.0469 L 1542.9922 1879.3691 L 1554.3301 1879.3691 L 1554.3301 1856.6934 L 1542.9922 1856.6934 L 1542.9922 1834.0156 L 1554.3301 1834.0156 L 1554.3301 1811.3379 L 1542.9922 1811.3379 L 1542.9922 1800 L 1542.9922 1788.6621 L 1530.4414 1788.6621 A 71.716537 71.716537 0 0 1 1458.8184 1858.5137 A 71.716537 71.716537 0 0 1 1387.168 1788.6621 L 1349.0234 1788.6621 A 71.716536 71.716536 0 0 1 1277.4004 1858.5137 A 71.716536 71.716536 0 0 1 1205.75 1788.6621 L 1167.6055 1788.6621 A 71.716535 71.716535 0 0 1 1095.9844 1858.5137 A 71.716535 71.716535 0 0 1 1024.334 1788.6621 L 986.18945 1788.6621 A 71.716534 71.716534 0 0 1 914.56641 1858.5137 A 71.716534 71.716534 0 0 1 842.91602 1788.6621 L 828.66211 1788.6621 z "
     transform="matrix(0.26458333,0,0,0.26458333,0,9460)"
     id="path10650" />
  <path
     inkscape:connector-curvature="0"
     id="path10652"
     d="m 267.25,9925.75 v 0 m 0,0 h -3 m 0,0 v -6 m 0,0 h 3 m 0,0 v 6"
     style="fill:none;stroke:#ff0000;stroke-width:1.007;stroke-linecap:butt;stroke-linejoin:miter;stroke-miterlimit:10;stroke-dasharray:none;stroke-opacity:1" />
  <path
     inkscape:connector-curvature="0"
     id="path10654"
     d="m 267.25,9913.75 v 0 m 0,0 h -3 m 0,0 v -6 m 0,0 h 3 m 0,0 v 6"
     style="fill:none;stroke:#ff0000;stroke-width:1.007;stroke-linecap:butt;stroke-linejoin:miter;stroke-miterlimit:10;stroke-dasharray:none;stroke-opacity:1" />
  <path
     inkscape:connector-curvature="0"
     id="path10656"
     d="m 267.25,9901.75 v 0 m 0,0 h -3 m 0,0 v -6 m 0,0 h 3 m 0,0 v 6"
     style="fill:none;stroke:#ff0000;stroke-width:1.007;stroke-linecap:butt;stroke-linejoin:miter;stroke-miterlimit:10;stroke-dasharray:none;stroke-opacity:1" />
  <path
     inkscape:connector-curvature="0"
     id="path10658"
     d="m 267.25,9889.75 v 0 m 0,0 h -3 m 0,0 v -6 m 0,0 h 3 m 0,0 v 6"
     style="fill:none;stroke:#ff0000;stroke-width:1.007;stroke-linecap:butt;stroke-linejoin:miter;stroke-miterlimit:10;stroke-dasharray:none;stroke-opacity:1" />
  <path
     inkscape:connector-curvature="0"
     id="path10660"
     d="m 267.25,9877.75 v 0 m 0,0 h -3 m 0,0 v -6 m 0,0 h 3 m 0,0 v 6"
     style="fill:none;stroke:#ff0000;stroke-width:1.007;stroke-linecap:butt;stroke-linejoin:miter;stroke-miterlimit:10;stroke-dasharray:none;stroke-opacity:1" />
  <path
     inkscape:connector-curvature="0"
     id="path10662"
     d="m 315.25,9925.75 v 0 m 0,0 h -3 m 0,0 v -6 m 0,0 h 3 m 0,0 v 6"
     style="fill:none;stroke:#ff0000;stroke-width:1.007;stroke-linecap:butt;stroke-linejoin:miter;stroke-miterlimit:10;stroke-dasharray:none;stroke-opacity:1" />
  <path
     inkscape:connector-curvature="0"
     id="path10664"
     d="m 315.25,9913.75 v 0 m 0,0 h -3 m 0,0 v -6 m 0,0 h 3 m 0,0 v 6"
     style="fill:none;stroke:#ff0000;stroke-width:1.007;stroke-linecap:butt;stroke-linejoin:miter;stroke-miterlimit:10;stroke-dasharray:none;stroke-opacity:1" />
  <path
     inkscape:connector-curvature="0"
     id="path10666"
     d="m 315.25,9901.75 v 0 m 0,0 h -3 m 0,0 v -6 m 0,0 h 3 m 0,0 v 6"
     style="fill:none;stroke:#ff0000;stroke-width:1.007;stroke-linecap:butt;stroke-linejoin:miter;stroke-miterlimit:10;stroke-dasharray:none;stroke-opacity:1" />
  <path
     inkscape:connector-curvature="0"
     id="path10668"
     d="m 315.25,9889.75 v 0 m 0,0 h -3 m 0,0 v -6 m 0,0 h 3 m 0,0 v 6"
     style="fill:none;stroke:#ff0000;stroke-width:1.007;stroke-linecap:butt;stroke-linejoin:miter;stroke-miterlimit:10;stroke-dasharray:none;stroke-opacity:1" />
  <path
     inkscape:connector-curvature="0"
     id="path10670"
     d="m 315.25,9877.75 v 0 m 0,0 h -3 m 0,0 v -6 m 0,0 h 3 m 0,0 v 6"
     style="fill:none;stroke:#ff0000;stroke-width:1.007;stroke-linecap:butt;stroke-linejoin:miter;stroke-miterlimit:10;stroke-dasharray:none;stroke-opacity:1" />
  <path
     inkscape:connector-curvature="0"
     id="path10672"
     d="m 363.25,9925.75 v 0 m 0,0 h -3 m 0,0 v -6 m 0,0 h 3 m 0,0 v 6"
     style="fill:none;stroke:#ff0000;stroke-width:1.007;stroke-linecap:butt;stroke-linejoin:miter;stroke-miterlimit:10;stroke-dasharray:none;stroke-opacity:1" />
  <path
     inkscape:connector-curvature="0"
     id="path10674"
     d="m 363.25,9913.75 v 0 m 0,0 h -3 m 0,0 v -6 m 0,0 h 3 m 0,0 v 6"
     style="fill:none;stroke:#ff0000;stroke-width:1.007;stroke-linecap:butt;stroke-linejoin:miter;stroke-miterlimit:10;stroke-dasharray:none;stroke-opacity:1" />
  <path
     inkscape:connector-curvature="0"
     id="path10676"
     d="m 363.25,9901.75 v 0 m 0,0 h -3 m 0,0 v -6 m 0,0 h 3 m 0,0 v 6"
     style="fill:none;stroke:#ff0000;stroke-width:1.007;stroke-linecap:butt;stroke-linejoin:miter;stroke-miterlimit:10;stroke-dasharray:none;stroke-opacity:1" />
  <path
     inkscape:connector-curvature="0"
     id="path10678"
     d="m 363.25,9889.75 v 0 m 0,0 h -3 m 0,0 v -6 m 0,0 h 3 m 0,0 v 6"
     style="fill:none;stroke:#ff0000;stroke-width:1.007;stroke-linecap:butt;stroke-linejoin:miter;stroke-miterlimit:10;stroke-dasharray:none;stroke-opacity:1" />
  <path
     inkscape:connector-curvature="0"
     id="path10680"
     d="m 363.25,9877.75 v 0 m 0,0 h -3 m 0,0 v -6 m 0,0 h 3 m 0,0 v 6"
     style="fill:none;stroke:#ff0000;stroke-width:1.007;stroke-linecap:butt;stroke-linejoin:miter;stroke-miterlimit:10;stroke-dasharray:none;stroke-opacity:1" />
  <path
     style="fill:none;stroke:#ff0000;stroke-width:3.80598428;stroke-linecap:butt;stroke-linejoin:miter;stroke-miterlimit:10;stroke-dasharray:none;stroke-opacity:1"
     d="M 828.66211 1533.543 L 828.66211 1544.8828 L 828.66211 1556.2207 L 817.32227 1556.2207 L 817.32227 1578.8984 L 828.66211 1578.8984 L 828.66211 1601.5742 L 817.32227 1601.5742 L 817.32227 1624.252 L 828.66211 1624.252 L 828.66211 1646.9297 L 817.32227 1646.9297 L 817.32227 1669.6055 L 828.66211 1669.6055 L 828.66211 1692.2832 L 817.32227 1692.2832 L 817.32227 1714.9609 L 828.66211 1714.9609 L 828.66211 1737.6387 L 817.32227 1737.6387 L 817.32227 1760.3145 L 828.66211 1760.3145 L 828.66211 1771.6543 L 828.66211 1782.9922 L 834.33008 1782.9922 L 834.33008 1771.6543 L 857.00781 1771.6543 L 857.00781 1782.9922 L 879.68555 1782.9922 L 879.68555 1771.6543 L 902.36133 1771.6543 L 902.36133 1782.9922 L 925.03906 1782.9922 L 925.03906 1771.6543 L 947.7168 1771.6543 L 947.7168 1782.9922 L 970.39453 1782.9922 L 970.39453 1771.6543 L 993.07031 1771.6543 L 993.07031 1782.9922 L 1015.748 1782.9922 L 1015.748 1771.6543 L 1038.4258 1771.6543 L 1038.4258 1782.9922 L 1061.1016 1782.9922 L 1061.1016 1771.6543 L 1083.7793 1771.6543 L 1083.7793 1782.9922 L 1106.457 1782.9922 L 1106.457 1771.6543 L 1129.1348 1771.6543 L 1129.1348 1782.9922 L 1151.8105 1782.9922 L 1151.8105 1771.6543 L 1174.4883 1771.6543 L 1174.4883 1782.9922 L 1197.166 1782.9922 L 1197.166 1771.6543 L 1219.8418 1771.6543 L 1219.8418 1782.9922 L 1242.5195 1782.9922 L 1242.5195 1771.6543 L 1265.1973 1771.6543 L 1265.1973 1782.9922 L 1287.873 1782.9922 L 1287.873 1771.6543 L 1310.5508 1771.6543 L 1310.5508 1782.9922 L 1333.2285 1782.9922 L 1333.2285 1771.6543 L 1355.9062 1771.6543 L 1355.9062 1782.9922 L 1378.582 1782.9922 L 1378.582 1771.6543 L 1401.2598 1771.6543 L 1401.2598 1782.9922 L 1423.9375 1782.9922 L 1423.9375 1771.6543 L 1446.6133 1771.6543 L 1446.6133 1782.9922 L 1469.291 1782.9922 L 1469.291 1771.6543 L 1491.9688 1771.6543 L 1491.9688 1782.9922 L 1514.6465 1782.9922 L 1514.6465 1771.6543 L 1537.3223 1771.6543 L 1537.3223 1782.9922 L 1542.9922 1782.9922 L 1542.9922 1771.6543 L 1542.9922 1760.3145 L 1554.3301 1760.3145 L 1554.3301 1737.6387 L 1542.9922 1737.6387 L 1542.9922 1714.9609 L 1554.3301 1714.9609 L 1554.3301 1692.2832 L 1542.9922 1692.2832 L 1542.9922 1669.6055 L 1554.3301 1669.6055 L 1554.3301 1646.9297 L 1542.9922 1646.9297 L 1542.9922 1624.252 L 1554.3301 1624.252 L 1554.3301 1601.5742 L 1542.9922 1601.5742 L 1542.9922 1578.8984 L 1554.3301 1578.8984 L 1554.3301 1556.2207 L 1542.9922 1556.2207 L 1542.9922 1544.8828 L 1542.9922 1533.543 L 1530.5 1533.543 A 71.716537 71.716537 0 0 1 1458.8184 1604.543 A 71.716537 71.716537 0 0 1 1387.127 1533.543 L 1349.082 1533.543 A 71.716536 71.716536 0 0 1 1277.4004 1604.543 A 71.716536 71.716536 0 0 1 1205.709 1533.543 L 1167.6641 1533.543 A 71.716535 71.716535 0 0 1 1095.9844 1604.543 A 71.716535 71.716535 0 0 1 1024.293 1533.543 L 986.24805 1533.543 A 71.716534 71.716534 0 0 1 914.56641 1604.543 A 71.716534 71.716534 0 0 1 842.875 1533.543 L 828.66211 1533.543 z "
     transform="matrix(0.26458333,0,0,0.26458333,0,9460)"
     id="path10682" />
  <path
     style="fill:none;stroke:#ff0000;stroke-width:3.80598428;stroke-linecap:butt;stroke-linejoin:miter;stroke-miterlimit:10;stroke-dasharray:none;stroke-opacity:1"
     d="M 828.66211 1289.7637 L 828.66211 1301.1016 L 817.32227 1301.1016 L 817.32227 1323.7793 L 828.66211 1323.7793 L 828.66211 1346.457 L 817.32227 1346.457 L 817.32227 1369.1348 L 828.66211 1369.1348 L 828.66211 1391.8105 L 817.32227 1391.8105 L 817.32227 1414.4883 L 828.66211 1414.4883 L 828.66211 1437.166 L 817.32227 1437.166 L 817.32227 1459.8418 L 828.66211 1459.8418 L 828.66211 1482.5195 L 817.32227 1482.5195 L 817.32227 1505.1973 L 828.66211 1505.1973 L 828.66211 1516.5352 L 834.33008 1516.5352 L 834.33008 1527.873 L 857.00781 1527.873 L 857.00781 1516.5352 L 879.68555 1516.5352 L 879.68555 1527.873 L 902.36133 1527.873 L 902.36133 1516.5352 L 925.03906 1516.5352 L 925.03906 1527.873 L 947.7168 1527.873 L 947.7168 1516.5352 L 970.39453 1516.5352 L 970.39453 1527.873 L 993.07031 1527.873 L 993.07031 1516.5352 L 998.74023 1516.5352 L 998.74023 1403.1504 L 1010.0781 1403.1504 L 1010.0781 1516.5352 L 1015.748 1516.5352 L 1015.748 1527.873 L 1038.4258 1527.873 L 1038.4258 1516.5352 L 1061.1016 1516.5352 L 1061.1016 1527.873 L 1083.7793 1527.873 L 1083.7793 1516.5352 L 1106.457 1516.5352 L 1106.457 1527.873 L 1129.1348 1527.873 L 1129.1348 1516.5352 L 1151.8105 1516.5352 L 1151.8105 1527.873 L 1174.4883 1527.873 L 1174.4883 1516.5352 L 1180.1582 1516.5352 L 1180.1582 1403.1504 L 1191.4961 1403.1504 L 1191.4961 1516.5352 L 1197.166 1516.5352 L 1197.166 1527.873 L 1219.8418 1527.873 L 1219.8418 1516.5352 L 1242.5195 1516.5352 L 1242.5195 1527.873 L 1265.1973 1527.873 L 1265.1973 1516.5352 L 1287.873 1516.5352 L 1287.873 1527.873 L 1310.5508 1527.873 L 1310.5508 1516.5352 L 1333.2285 1516.5352 L 1333.2285 1527.873 L 1355.9062 1527.873 L 1355.9062 1516.5352 L 1361.5742 1516.5352 L 1361.5742 1403.1504 L 1372.9141 1403.1504 L 1372.9141 1516.5352 L 1378.582 1516.5352 L 1378.582 1527.873 L 1401.2598 1527.873 L 1401.2598 1516.5352 L 1423.9375 1516.5352 L 1423.9375 1527.873 L 1446.6133 1527.873 L 1446.6133 1516.5352 L 1469.291 1516.5352 L 1469.291 1527.873 L 1491.9688 1527.873 L 1491.9688 1516.5352 L 1514.6465 1516.5352 L 1514.6465 1527.873 L 1537.3223 1527.873 L 1537.3223 1516.5352 L 1542.9922 1516.5352 L 1542.9922 1505.1973 L 1554.3301 1505.1973 L 1554.3301 1482.5195 L 1542.9922 1482.5195 L 1542.9922 1459.8418 L 1554.3301 1459.8418 L 1554.3301 1437.166 L 1542.9922 1437.166 L 1542.9922 1414.4883 L 1554.3301 1414.4883 L 1554.3301 1391.8105 L 1542.9922 1391.8105 L 1542.9922 1369.1348 L 1554.3301 1369.1348 L 1554.3301 1346.457 L 1542.9922 1346.457 L 1542.9922 1323.7793 L 1554.3301 1323.7793 L 1554.3301 1301.1016 L 1542.9922 1301.1016 L 1542.9922 1289.7637 L 1530.5 1289.7637 A 71.716537 71.716537 0 0 1 1458.8184 1360.7793 A 71.716537 71.716537 0 0 1 1387.127 1289.7637 L 1349.082 1289.7637 A 71.716536 71.716536 0 0 1 1277.4004 1360.7793 A 71.716536 71.716536 0 0 1 1205.709 1289.7637 L 1167.6641 1289.7637 A 71.716535 71.716535 0 0 1 1095.9844 1360.7793 A 71.716535 71.716535 0 0 1 1024.293 1289.7637 L 986.24805 1289.7637 A 71.716534 71.716534 0 0 1 914.56641 1360.7793 A 71.716534 71.716534 0 0 1 842.875 1289.7637 L 828.66211 1289.7637 z "
     transform="matrix(0.26458333,0,0,0.26458333,0,9460)"
     id="path10684" />
  <path
     style="fill:none;stroke:#ff0000;stroke-width:3.80598428;stroke-linecap:butt;stroke-linejoin:miter;stroke-miterlimit:10;stroke-dasharray:none;stroke-opacity:1"
     d="M 828.66211 1045.9844 L 828.66211 1057.3223 L 817.32227 1057.3223 L 817.32227 1080 L 828.66211 1080 L 828.66211 1102.6777 L 817.32227 1102.6777 L 817.32227 1125.3535 L 828.66211 1125.3535 L 828.66211 1148.0312 L 817.32227 1148.0312 L 817.32227 1170.709 L 828.66211 1170.709 L 828.66211 1193.3867 L 817.32227 1193.3867 L 817.32227 1216.0625 L 828.66211 1216.0625 L 828.66211 1238.7402 L 817.32227 1238.7402 L 817.32227 1261.418 L 828.66211 1261.418 L 828.66211 1272.7559 L 834.33008 1272.7559 L 834.33008 1284.0938 L 857.00781 1284.0938 L 857.00781 1272.7559 L 879.68555 1272.7559 L 879.68555 1284.0938 L 902.36133 1284.0938 L 902.36133 1272.7559 L 925.03906 1272.7559 L 925.03906 1284.0938 L 947.7168 1284.0938 L 947.7168 1272.7559 L 970.39453 1272.7559 L 970.39453 1284.0938 L 993.07031 1284.0938 L 993.07031 1272.7559 L 998.74023 1272.7559 L 998.74023 1159.3691 L 1010.0781 1159.3691 L 1010.0781 1272.7559 L 1015.748 1272.7559 L 1015.748 1284.0938 L 1038.4258 1284.0938 L 1038.4258 1272.7559 L 1061.1016 1272.7559 L 1061.1016 1284.0938 L 1083.7793 1284.0938 L 1083.7793 1272.7559 L 1106.457 1272.7559 L 1106.457 1284.0938 L 1129.1348 1284.0938 L 1129.1348 1272.7559 L 1151.8105 1272.7559 L 1151.8105 1284.0938 L 1174.4883 1284.0938 L 1174.4883 1272.7559 L 1180.1582 1272.7559 L 1180.1582 1159.3691 L 1191.4961 1159.3691 L 1191.4961 1272.7559 L 1197.166 1272.7559 L 1197.166 1284.0938 L 1219.8418 1284.0938 L 1219.8418 1272.7559 L 1242.5195 1272.7559 L 1242.5195 1284.0938 L 1265.1973 1284.0938 L 1265.1973 1272.7559 L 1287.873 1272.7559 L 1287.873 1284.0938 L 1310.5508 1284.0938 L 1310.5508 1272.7559 L 1333.2285 1272.7559 L 1333.2285 1284.0938 L 1355.9062 1284.0938 L 1355.9062 1272.7559 L 1361.5742 1272.7559 L 1361.5742 1159.3691 L 1372.9141 1159.3691 L 1372.9141 1272.7559 L 1378.582 1272.7559 L 1378.582 1284.0938 L 1401.2598 1284.0938 L 1401.2598 1272.7559 L 1423.9375 1272.7559 L 1423.9375 1284.0938 L 1446.6133 1284.0938 L 1446.6133 1272.7559 L 1469.291 1272.7559 L 1469.291 1284.0938 L 1491.9688 1284.0938 L 1491.9688 1272.7559 L 1514.6465 1272.7559 L 1514.6465 1284.0938 L 1537.3223 1284.0938 L 1537.3223 1272.7559 L 1542.9922 1272.7559 L 1542.9922 1261.418 L 1554.3301 1261.418 L 1554.3301 1238.7402 L 1542.9922 1238.7402 L 1542.9922 1216.0625 L 1554.3301 1216.0625 L 1554.3301 1193.3867 L 1542.9922 1193.3867 L 1542.9922 1170.709 L 1554.3301 1170.709 L 1554.3301 1148.0312 L 1542.9922 1148.0312 L 1542.9922 1125.3535 L 1554.3301 1125.3535 L 1554.3301 1102.6777 L 1542.9922 1102.6777 L 1542.9922 1080 L 1554.3301 1080 L 1554.3301 1057.3223 L 1542.9922 1057.3223 L 1542.9922 1045.9844 L 1530.5332 1045.9844 A 71.716537 71.716537 0 0 1 1530.5352 1046.0469 A 71.716537 71.716537 0 0 1 1458.8184 1117.7637 A 71.716537 71.716537 0 0 1 1387.1016 1046.0469 A 71.716537 71.716537 0 0 1 1387.1055 1045.9844 L 1349.1152 1045.9844 A 71.716536 71.716536 0 0 1 1349.1172 1046.0469 A 71.716536 71.716536 0 0 1 1277.4004 1117.7637 A 71.716536 71.716536 0 0 1 1205.6836 1046.0469 A 71.716536 71.716536 0 0 1 1205.6875 1045.9844 L 1167.6973 1045.9844 A 71.716535 71.716535 0 0 1 1167.6992 1046.0469 A 71.716535 71.716535 0 0 1 1095.9844 1117.7637 A 71.716535 71.716535 0 0 1 1024.2676 1046.0469 A 71.716535 71.716535 0 0 1 1024.2715 1045.9844 L 986.28125 1045.9844 A 71.716534 71.716534 0 0 1 986.2832 1046.0469 A 71.716534 71.716534 0 0 1 914.56641 1117.7637 A 71.716534 71.716534 0 0 1 842.84961 1046.0469 A 71.716534 71.716534 0 0 1 842.85352 1045.9844 L 828.66211 1045.9844 z "
     transform="matrix(0.26458333,0,0,0.26458333,0,9460)"
     id="path10686" />
  <path
     style="fill:none;stroke:#ff0000;stroke-width:3.80598428;stroke-linecap:butt;stroke-linejoin:miter;stroke-miterlimit:10;stroke-dasharray:none;stroke-opacity:1"
     d="M 828.66211 802.20508 L 828.66211 813.54297 L 817.32227 813.54297 L 817.32227 836.2207 L 828.66211 836.2207 L 828.66211 858.89844 L 817.32227 858.89844 L 817.32227 881.57422 L 828.66211 881.57422 L 828.66211 904.25195 L 817.32227 904.25195 L 817.32227 926.92969 L 828.66211 926.92969 L 828.66211 949.60547 L 817.32227 949.60547 L 817.32227 972.2832 L 828.66211 972.2832 L 828.66211 994.96094 L 817.32227 994.96094 L 817.32227 1017.6387 L 828.66211 1017.6387 L 828.66211 1028.9766 L 834.33008 1028.9766 L 834.33008 1040.3145 L 857.00781 1040.3145 L 857.00781 1028.9766 L 879.68555 1028.9766 L 879.68555 1040.3145 L 902.36133 1040.3145 L 902.36133 1028.9766 L 925.03906 1028.9766 L 925.03906 1040.3145 L 947.7168 1040.3145 L 947.7168 1028.9766 L 970.39453 1028.9766 L 970.39453 1040.3145 L 993.07031 1040.3145 L 993.07031 1028.9766 L 998.74023 1028.9766 L 998.74023 915.58984 L 1010.0781 915.58984 L 1010.0781 1028.9766 L 1015.748 1028.9766 L 1015.748 1040.3145 L 1038.4258 1040.3145 L 1038.4258 1028.9766 L 1061.1016 1028.9766 L 1061.1016 1040.3145 L 1083.7793 1040.3145 L 1083.7793 1028.9766 L 1106.457 1028.9766 L 1106.457 1040.3145 L 1129.1348 1040.3145 L 1129.1348 1028.9766 L 1151.8105 1028.9766 L 1151.8105 1040.3145 L 1174.4883 1040.3145 L 1174.4883 1028.9766 L 1180.1582 1028.9766 L 1180.1582 915.58984 L 1191.4961 915.58984 L 1191.4961 1028.9766 L 1197.166 1028.9766 L 1197.166 1040.3145 L 1219.8418 1040.3145 L 1219.8418 1028.9766 L 1242.5195 1028.9766 L 1242.5195 1040.3145 L 1265.1973 1040.3145 L 1265.1973 1028.9766 L 1287.873 1028.9766 L 1287.873 1040.3145 L 1310.5508 1040.3145 L 1310.5508 1028.9766 L 1333.2285 1028.9766 L 1333.2285 1040.3145 L 1355.9062 1040.3145 L 1355.9062 1028.9766 L 1361.5742 1028.9766 L 1361.5742 915.58984 L 1372.9141 915.58984 L 1372.9141 1028.9766 L 1378.582 1028.9766 L 1378.582 1040.3145 L 1401.2598 1040.3145 L 1401.2598 1028.9766 L 1423.9375 1028.9766 L 1423.9375 1040.3145 L 1446.6133 1040.3145 L 1446.6133 1028.9766 L 1469.291 1028.9766 L 1469.291 1040.3145 L 1491.9688 1040.3145 L 1491.9688 1028.9766 L 1514.6465 1028.9766 L 1514.6465 1040.3145 L 1537.3223 1040.3145 L 1537.3223 1028.9766 L 1542.9922 1028.9766 L 1542.9922 1017.6387 L 1554.3301 1017.6387 L 1554.3301 994.96094 L 1542.9922 994.96094 L 1542.9922 972.2832 L 1554.3301 972.2832 L 1554.3301 949.60547 L 1542.9922 949.60547 L 1542.9922 926.92969 L 1554.3301 926.92969 L 1554.3301 904.25195 L 1542.9922 904.25195 L 1542.9922 881.57422 L 1554.3301 881.57422 L 1554.3301 858.89844 L 1542.9922 858.89844 L 1542.9922 836.2207 L 1554.3301 836.2207 L 1554.3301 813.54297 L 1542.9922 813.54297 L 1542.9922 802.20508 L 1530.5195 802.20508 A 71.716537 71.716537 0 0 1 1458.8184 873.62695 A 71.716537 71.716537 0 0 1 1387.1113 802.20508 L 1349.1016 802.20508 A 71.716536 71.716536 0 0 1 1277.4004 873.62695 A 71.716536 71.716536 0 0 1 1205.6934 802.20508 L 1167.6836 802.20508 A 71.716535 71.716535 0 0 1 1095.9844 873.62695 A 71.716535 71.716535 0 0 1 1024.2773 802.20508 L 986.26758 802.20508 A 71.716534 71.716534 0 0 1 914.56641 873.62695 A 71.716534 71.716534 0 0 1 842.85938 802.20508 L 828.66211 802.20508 z "
     transform="matrix(0.26458333,0,0,0.26458333,0,9460)"
     id="path10688" />
</svg>
