<?xml version="1.0" encoding="UTF-8" standalone="no"?>
<svg
   xmlns:dc="http://purl.org/dc/elements/1.1/"
   xmlns:cc="http://creativecommons.org/ns#"
   xmlns:rdf="http://www.w3.org/1999/02/22-rdf-syntax-ns#"
   xmlns:svg="http://www.w3.org/2000/svg"
   xmlns="http://www.w3.org/2000/svg"
   xmlns:sodipodi="http://sodipodi.sourceforge.net/DTD/sodipodi-0.dtd"
   xmlns:inkscape="http://www.inkscape.org/namespaces/inkscape"
   width="450mm"
   height="540mm"
   viewBox="0 9460 450 540"
   version="1.1"
   id="svg10691"
   sodipodi:docname="16 sm monster.svg"
   inkscape:version="0.92.2 5c3e80d, 2017-08-06">
  <metadata
     id="metadata10697">
    <rdf:RDF>
      <cc:Work
         rdf:about="">
        <dc:format>image/svg+xml</dc:format>
        <dc:type
           rdf:resource="http://purl.org/dc/dcmitype/StillImage" />
        <dc:title></dc:title>
      </cc:Work>
    </rdf:RDF>
  </metadata>
  <defs
     id="defs10695" />
  <sodipodi:namedview
     pagecolor="#ffffff"
     bordercolor="#666666"
     borderopacity="1"
     objecttolerance="10"
     gridtolerance="10"
     guidetolerance="10"
     inkscape:pageopacity="0"
     inkscape:pageshadow="2"
     inkscape:window-width="1440"
     inkscape:window-height="787"
     id="namedview10693"
     showgrid="false"
     inkscape:measure-start="993.07,1000.63"
     inkscape:measure-end="986.268,1238.74"
     inkscape:zoom="0.5"
     inkscape:cx="870.7008"
     inkscape:cy="1080.4724"
     inkscape:window-x="0"
     inkscape:window-y="1"
     inkscape:window-maximized="1"
     inkscape:current-layer="svg10691" />
  <path
     inkscape:connector-curvature="0"
     id="path10386"
     d="m 56.5,9925.75 v 0 m 0,0 h -3 m 0,0 v -6 m 0,0 h 3 m 0,0 v 6"
     style="fill:none;stroke:#ff0000;stroke-width:1.00699997;stroke-linecap:butt;stroke-linejoin:miter;stroke-miterlimit:10;stroke-dasharray:none;stroke-opacity:1" />
  <path
     inkscape:connector-curvature="0"
     id="path10388"
     d="m 56.5,9913.75 v 0 m 0,0 h -3 m 0,0 v -6 m 0,0 h 3 m 0,0 v 6"
     style="fill:none;stroke:#ff0000;stroke-width:1.00699997;stroke-linecap:butt;stroke-linejoin:miter;stroke-miterlimit:10;stroke-dasharray:none;stroke-opacity:1" />
  <path
     inkscape:connector-curvature="0"
     id="path10390"
     d="m 56.5,9901.75 v 0 m 0,0 h -3 m 0,0 v -6 m 0,0 h 3 m 0,0 v 6"
     style="fill:none;stroke:#ff0000;stroke-width:1.00699997;stroke-linecap:butt;stroke-linejoin:miter;stroke-miterlimit:10;stroke-dasharray:none;stroke-opacity:1" />
  <path
     inkscape:connector-curvature="0"
     id="path10396"
     d="m 109.25,9925.75 v 0 m 0,0 h -3 m 0,0 v -6 m 0,0 h 3 m 0,0 v 6"
     style="fill:none;stroke:#ff0000;stroke-width:1.00699997;stroke-linecap:butt;stroke-linejoin:miter;stroke-miterlimit:10;stroke-dasharray:none;stroke-opacity:1" />
  <path
     inkscape:connector-curvature="0"
     id="path10398"
     d="m 109.25,9913.75 v 0 m 0,0 h -3 m 0,0 v -6 m 0,0 h 3 m 0,0 v 6"
     style="fill:none;stroke:#ff0000;stroke-width:1.00699997;stroke-linecap:butt;stroke-linejoin:miter;stroke-miterlimit:10;stroke-dasharray:none;stroke-opacity:1" />
  <path
     inkscape:connector-curvature="0"
     id="path10400"
     d="m 109.25,9901.75 v 0 m 0,0 h -3 m 0,0 v -6 m 0,0 h 3 m 0,0 v 6"
     style="fill:none;stroke:#ff0000;stroke-width:1.00699997;stroke-linecap:butt;stroke-linejoin:miter;stroke-miterlimit:10;stroke-dasharray:none;stroke-opacity:1" />
  <path
     inkscape:connector-curvature="0"
     id="path10406"
     d="m 162,9925.75 v 0 m 0,0 h -3 m 0,0 v -6 m 0,0 h 3 m 0,0 v 6"
     style="fill:none;stroke:#ff0000;stroke-width:1.00699997;stroke-linecap:butt;stroke-linejoin:miter;stroke-miterlimit:10;stroke-dasharray:none;stroke-opacity:1" />
  <path
     inkscape:connector-curvature="0"
     id="path10408"
     d="m 162,9913.75 v 0 m 0,0 h -3 m 0,0 v -6 m 0,0 h 3 m 0,0 v 6"
     style="fill:none;stroke:#ff0000;stroke-width:1.00699997;stroke-linecap:butt;stroke-linejoin:miter;stroke-miterlimit:10;stroke-dasharray:none;stroke-opacity:1" />
  <path
     inkscape:connector-curvature="0"
     id="path10410"
     d="m 162,9901.75 v 0 m 0,0 h -3 m 0,0 v -6 m 0,0 h 3 m 0,0 v 6"
     style="fill:none;stroke:#ff0000;stroke-width:1.00699997;stroke-linecap:butt;stroke-linejoin:miter;stroke-miterlimit:10;stroke-dasharray:none;stroke-opacity:1" />
  <path
     style="fill:none;stroke:#ff0000;stroke-width:1.00699997;stroke-linecap:butt;stroke-linejoin:miter;stroke-miterlimit:10;stroke-dasharray:none;stroke-opacity:1"
     d="m 0.74982503,9880.75 v 15.0001 H 3.7501586 v 5.9997 H 0.74982503 v 6.0001 H 3.7501586 v 6.0002 H 0.74982503 v 6.0001 H 3.7501586 v 5.9997 H 0.74982503 v 3.0003 2.9998 H 3.7501586 8.7498533 v -2.9998 h 6.0001507 v 2.9998 h 6.00015 v -2.9998 h 5.999633 v 2.9998 h 6.000152 v -2.9998 h 6.00015 v 2.9998 h 6.000152 v -2.9998 h 5.999633 v 2.9998 h 6.000149 v -2.9998 h 6.000152 v 2.9998 h 5.999634 v -2.9998 h 6.000149 v 2.9998 h 6.000152 v -2.9998 h 5.999633 v 2.9998 h 6.00015 v -2.9998 h 6.000152 v 2.9998 h 6.000145 v -2.9998 h 5.99964 v 2.9998 h 6.00015 v -2.9998 h 6.00015 v 2.9998 h 5.99963 v -2.9998 h 6.00015 v 2.9998 h 6.00015 v -2.9998 h 6.00015 v 2.9998 h 5.99964 v -2.9998 H 158.75 v 2.9998 h 6.00015 v -2.9998 h 5.99963 v 2.9998 h 6.00015 v -2.9998 h 6.00015 v 2.9998 h 6.00015 v -2.9998 h 5.99964 v 2.9998 h 6.00015 v -2.9998 h 6.00015 v 2.9998 h 4.99969 3.00034 v -2.9998 -3.0003 h -3.00034 v -5.9997 h 3.00034 v -6.0001 h -3.00034 v -6.0002 h 3.00034 v -6.0001 h -3.00034 v -5.9997 h 3.00034 V 9880.75 l -8.61085,-10e-5 c -0.15771,10.361 -8.59836,18.6795 -18.9606,18.6862 -10.36365,0 -18.80648,-8.3237 -18.96421,-18.6861 l -14.82494,-10e-5 c -0.15771,10.361 -8.59836,18.6795 -18.9606,18.6862 -10.36385,0 -18.80699,-8.3235 -18.96473,-18.6862 h -14.82494 c -0.15771,10.3609 -8.598039,18.6792 -18.96008,18.6862 -10.363851,0 -18.806993,-8.3235 -18.964733,-18.6862 H 47.889583 c -0.157713,10.361 -8.598358,18.6795 -18.9606,18.6862 -10.36385,0 -18.806996,-8.3235 -18.9647335,-18.6862 z"
     id="path10416"
     inkscape:connector-curvature="0"
     sodipodi:nodetypes="ccccccccccccccccccccccccccccccccccccccccccccccccccccccccccccccccccccccccccccccccccccccccccccccccccccccccccccccccc" />
  <path
     inkscape:connector-curvature="0"
     id="path10418"
     d="m 56.5,9872.75 v 0 m 0,0 h -3 m 0,0 v -6 m 0,0 h 3 m 0,0 v 6"
     style="fill:none;stroke:#ff0000;stroke-width:1.00699997;stroke-linecap:butt;stroke-linejoin:miter;stroke-miterlimit:10;stroke-dasharray:none;stroke-opacity:1" />
  <path
     inkscape:connector-curvature="0"
     id="path10420"
     d="m 56.5,9860.75 v 0 m 0,0 h -3 m 0,0 v -6 m 0,0 h 3 m 0,0 v 6"
     style="fill:none;stroke:#ff0000;stroke-width:1.00699997;stroke-linecap:butt;stroke-linejoin:miter;stroke-miterlimit:10;stroke-dasharray:none;stroke-opacity:1" />
  <path
     inkscape:connector-curvature="0"
     id="path10422"
     d="m 56.5,9848.75 v 0 m 0,0 h -3 m 0,0 v -6 m 0,0 h 3 m 0,0 v 6"
     style="fill:none;stroke:#ff0000;stroke-width:1.00699997;stroke-linecap:butt;stroke-linejoin:miter;stroke-miterlimit:10;stroke-dasharray:none;stroke-opacity:1" />
  <path
     inkscape:connector-curvature="0"
     id="path10424"
     d="m 56.5,9836.75 v 0 m 0,0 h -3 m 0,0 v -6 m 0,0 h 3 m 0,0 v 6"
     style="fill:none;stroke:#ff0000;stroke-width:1.00699997;stroke-linecap:butt;stroke-linejoin:miter;stroke-miterlimit:10;stroke-dasharray:none;stroke-opacity:1" />
  <path
     inkscape:connector-curvature="0"
     id="path10426"
     d="m 56.5,9824.75 v 0 m 0,0 h -3 m 0,0 v -6 m 0,0 h 3 m 0,0 v 6"
     style="fill:none;stroke:#ff0000;stroke-width:1.00699997;stroke-linecap:butt;stroke-linejoin:miter;stroke-miterlimit:10;stroke-dasharray:none;stroke-opacity:1" />
  <path
     inkscape:connector-curvature="0"
     id="path10428"
     d="m 56.5,9812.75 v 0 m 0,0 h -3 m 0,0 v -6 m 0,0 h 3 m 0,0 v 6"
     style="fill:none;stroke:#ff0000;stroke-width:1.00699997;stroke-linecap:butt;stroke-linejoin:miter;stroke-miterlimit:10;stroke-dasharray:none;stroke-opacity:1" />
  <path
     inkscape:connector-curvature="0"
     id="path10430"
     d="m 56.5,9800.75 v 0 m 0,0 h -3 m 0,0 v -6 m 0,0 h 3 m 0,0 v 6"
     style="fill:none;stroke:#ff0000;stroke-width:1.00699997;stroke-linecap:butt;stroke-linejoin:miter;stroke-miterlimit:10;stroke-dasharray:none;stroke-opacity:1" />
  <path
     inkscape:connector-curvature="0"
     id="path10432"
     d="m 56.5,9788.75 v 0 m 0,0 h -3 m 0,0 v -6 m 0,0 h 3 m 0,0 v 6"
     style="fill:none;stroke:#ff0000;stroke-width:1.00699997;stroke-linecap:butt;stroke-linejoin:miter;stroke-miterlimit:10;stroke-dasharray:none;stroke-opacity:1" />
  <path
     inkscape:connector-curvature="0"
     id="path10434"
     d="m 56.5,9776.75 v 0 m 0,0 h -3 m 0,0 v -6 m 0,0 h 3 m 0,0 v 6"
     style="fill:none;stroke:#ff0000;stroke-width:1.00699997;stroke-linecap:butt;stroke-linejoin:miter;stroke-miterlimit:10;stroke-dasharray:none;stroke-opacity:1" />
  <path
     inkscape:connector-curvature="0"
     id="path10436"
     d="m 56.5,9764.75 v 0 m 0,0 h -3 m 0,0 v -6 m 0,0 h 3 m 0,0 v 6"
     style="fill:none;stroke:#ff0000;stroke-width:1.00699997;stroke-linecap:butt;stroke-linejoin:miter;stroke-miterlimit:10;stroke-dasharray:none;stroke-opacity:1" />
  <path
     inkscape:connector-curvature="0"
     id="path10438"
     d="m 56.5,9752.75 v 0 m 0,0 h -3 m 0,0 v -6 m 0,0 h 3 m 0,0 v 6"
     style="fill:none;stroke:#ff0000;stroke-width:1.00699997;stroke-linecap:butt;stroke-linejoin:miter;stroke-miterlimit:10;stroke-dasharray:none;stroke-opacity:1" />
  <path
     inkscape:connector-curvature="0"
     id="path10440"
     d="m 56.5,9740.75 v 0 m 0,0 h -3 m 0,0 v -6 m 0,0 h 3 m 0,0 v 6"
     style="fill:none;stroke:#ff0000;stroke-width:1.00699997;stroke-linecap:butt;stroke-linejoin:miter;stroke-miterlimit:10;stroke-dasharray:none;stroke-opacity:1" />
  <path
     inkscape:connector-curvature="0"
     id="path10442"
     d="m 56.5,9728.75 v 0 m 0,0 h -3 m 0,0 v -6 m 0,0 h 3 m 0,0 v 6"
     style="fill:none;stroke:#ff0000;stroke-width:1.00699997;stroke-linecap:butt;stroke-linejoin:miter;stroke-miterlimit:10;stroke-dasharray:none;stroke-opacity:1" />
  <path
     inkscape:connector-curvature="0"
     id="path10444"
     d="m 56.5,9716.75 v 0 m 0,0 h -3 m 0,0 v -6 m 0,0 h 3 m 0,0 v 6"
     style="fill:none;stroke:#ff0000;stroke-width:1.00699997;stroke-linecap:butt;stroke-linejoin:miter;stroke-miterlimit:10;stroke-dasharray:none;stroke-opacity:1" />
  <path
     inkscape:connector-curvature="0"
     id="path10446"
     d="m 56.5,9704.75 v 0 m 0,0 h -3 m 0,0 v -6 m 0,0 h 3 m 0,0 v 6"
     style="fill:none;stroke:#ff0000;stroke-width:1.00699997;stroke-linecap:butt;stroke-linejoin:miter;stroke-miterlimit:10;stroke-dasharray:none;stroke-opacity:1" />
  <path
     inkscape:connector-curvature="0"
     id="path10448"
     d="m 56.5,9692.75 v 0 m 0,0 h -3 m 0,0 v -6 m 0,0 h 3 m 0,0 v 6"
     style="fill:none;stroke:#ff0000;stroke-width:1.00699997;stroke-linecap:butt;stroke-linejoin:miter;stroke-miterlimit:10;stroke-dasharray:none;stroke-opacity:1" />
  <path
     inkscape:connector-curvature="0"
     id="path10450"
     d="m 109.25,9872.75 v 0 m 0,0 h -3 m 0,0 v -6 m 0,0 h 3 m 0,0 v 6"
     style="fill:none;stroke:#ff0000;stroke-width:1.00699997;stroke-linecap:butt;stroke-linejoin:miter;stroke-miterlimit:10;stroke-dasharray:none;stroke-opacity:1" />
  <path
     inkscape:connector-curvature="0"
     id="path10452"
     d="m 109.25,9860.75 v 0 m 0,0 h -3 m 0,0 v -6 m 0,0 h 3 m 0,0 v 6"
     style="fill:none;stroke:#ff0000;stroke-width:1.00699997;stroke-linecap:butt;stroke-linejoin:miter;stroke-miterlimit:10;stroke-dasharray:none;stroke-opacity:1" />
  <path
     inkscape:connector-curvature="0"
     id="path10454"
     d="m 109.25,9848.75 v 0 m 0,0 h -3 m 0,0 v -6 m 0,0 h 3 m 0,0 v 6"
     style="fill:none;stroke:#ff0000;stroke-width:1.00699997;stroke-linecap:butt;stroke-linejoin:miter;stroke-miterlimit:10;stroke-dasharray:none;stroke-opacity:1" />
  <path
     inkscape:connector-curvature="0"
     id="path10456"
     d="m 109.25,9836.75 v 0 m 0,0 h -3 m 0,0 v -6 m 0,0 h 3 m 0,0 v 6"
     style="fill:none;stroke:#ff0000;stroke-width:1.00699997;stroke-linecap:butt;stroke-linejoin:miter;stroke-miterlimit:10;stroke-dasharray:none;stroke-opacity:1" />
  <path
     inkscape:connector-curvature="0"
     id="path10458"
     d="m 109.25,9824.75 v 0 m 0,0 h -3 m 0,0 v -6 m 0,0 h 3 m 0,0 v 6"
     style="fill:none;stroke:#ff0000;stroke-width:1.00699997;stroke-linecap:butt;stroke-linejoin:miter;stroke-miterlimit:10;stroke-dasharray:none;stroke-opacity:1" />
  <path
     inkscape:connector-curvature="0"
     id="path10460"
     d="m 109.25,9812.75 v 0 m 0,0 h -3 m 0,0 v -6 m 0,0 h 3 m 0,0 v 6"
     style="fill:none;stroke:#ff0000;stroke-width:1.00699997;stroke-linecap:butt;stroke-linejoin:miter;stroke-miterlimit:10;stroke-dasharray:none;stroke-opacity:1" />
  <path
     inkscape:connector-curvature="0"
     id="path10462"
     d="m 109.25,9800.75 v 0 m 0,0 h -3 m 0,0 v -6 m 0,0 h 3 m 0,0 v 6"
     style="fill:none;stroke:#ff0000;stroke-width:1.00699997;stroke-linecap:butt;stroke-linejoin:miter;stroke-miterlimit:10;stroke-dasharray:none;stroke-opacity:1" />
  <path
     inkscape:connector-curvature="0"
     id="path10464"
     d="m 109.25,9788.75 v 0 m 0,0 h -3 m 0,0 v -6 m 0,0 h 3 m 0,0 v 6"
     style="fill:none;stroke:#ff0000;stroke-width:1.00699997;stroke-linecap:butt;stroke-linejoin:miter;stroke-miterlimit:10;stroke-dasharray:none;stroke-opacity:1" />
  <path
     inkscape:connector-curvature="0"
     id="path10466"
     d="m 109.25,9776.75 v 0 m 0,0 h -3 m 0,0 v -6 m 0,0 h 3 m 0,0 v 6"
     style="fill:none;stroke:#ff0000;stroke-width:1.00699997;stroke-linecap:butt;stroke-linejoin:miter;stroke-miterlimit:10;stroke-dasharray:none;stroke-opacity:1" />
  <path
     inkscape:connector-curvature="0"
     id="path10468"
     d="m 109.25,9764.75 v 0 m 0,0 h -3 m 0,0 v -6 m 0,0 h 3 m 0,0 v 6"
     style="fill:none;stroke:#ff0000;stroke-width:1.00699997;stroke-linecap:butt;stroke-linejoin:miter;stroke-miterlimit:10;stroke-dasharray:none;stroke-opacity:1" />
  <path
     inkscape:connector-curvature="0"
     id="path10470"
     d="m 109.25,9752.75 v 0 m 0,0 h -3 m 0,0 v -6 m 0,0 h 3 m 0,0 v 6"
     style="fill:none;stroke:#ff0000;stroke-width:1.00699997;stroke-linecap:butt;stroke-linejoin:miter;stroke-miterlimit:10;stroke-dasharray:none;stroke-opacity:1" />
  <path
     inkscape:connector-curvature="0"
     id="path10472"
     d="m 109.25,9740.75 v 0 m 0,0 h -3 m 0,0 v -6 m 0,0 h 3 m 0,0 v 6"
     style="fill:none;stroke:#ff0000;stroke-width:1.00699997;stroke-linecap:butt;stroke-linejoin:miter;stroke-miterlimit:10;stroke-dasharray:none;stroke-opacity:1" />
  <path
     inkscape:connector-curvature="0"
     id="path10474"
     d="m 109.25,9728.75 v 0 m 0,0 h -3 m 0,0 v -6 m 0,0 h 3 m 0,0 v 6"
     style="fill:none;stroke:#ff0000;stroke-width:1.00699997;stroke-linecap:butt;stroke-linejoin:miter;stroke-miterlimit:10;stroke-dasharray:none;stroke-opacity:1" />
  <path
     inkscape:connector-curvature="0"
     id="path10476"
     d="m 109.25,9716.75 v 0 m 0,0 h -3 m 0,0 v -6 m 0,0 h 3 m 0,0 v 6"
     style="fill:none;stroke:#ff0000;stroke-width:1.00699997;stroke-linecap:butt;stroke-linejoin:miter;stroke-miterlimit:10;stroke-dasharray:none;stroke-opacity:1" />
  <path
     inkscape:connector-curvature="0"
     id="path10478"
     d="m 109.25,9704.75 v 0 m 0,0 h -3 m 0,0 v -6 m 0,0 h 3 m 0,0 v 6"
     style="fill:none;stroke:#ff0000;stroke-width:1.00699997;stroke-linecap:butt;stroke-linejoin:miter;stroke-miterlimit:10;stroke-dasharray:none;stroke-opacity:1" />
  <path
     inkscape:connector-curvature="0"
     id="path10480"
     d="m 109.25,9692.75 v 0 m 0,0 h -3 m 0,0 v -6 m 0,0 h 3 m 0,0 v 6"
     style="fill:none;stroke:#ff0000;stroke-width:1.00699997;stroke-linecap:butt;stroke-linejoin:miter;stroke-miterlimit:10;stroke-dasharray:none;stroke-opacity:1" />
  <path
     inkscape:connector-curvature="0"
     id="path10482"
     d="m 162,9872.75 v 0 m 0,0 h -3 m 0,0 v -6 m 0,0 h 3 m 0,0 v 6"
     style="fill:none;stroke:#ff0000;stroke-width:1.00699997;stroke-linecap:butt;stroke-linejoin:miter;stroke-miterlimit:10;stroke-dasharray:none;stroke-opacity:1" />
  <path
     inkscape:connector-curvature="0"
     id="path10484"
     d="m 162,9860.75 v 0 m 0,0 h -3 m 0,0 v -6 m 0,0 h 3 m 0,0 v 6"
     style="fill:none;stroke:#ff0000;stroke-width:1.00699997;stroke-linecap:butt;stroke-linejoin:miter;stroke-miterlimit:10;stroke-dasharray:none;stroke-opacity:1" />
  <path
     inkscape:connector-curvature="0"
     id="path10486"
     d="m 162,9848.75 v 0 m 0,0 h -3 m 0,0 v -6 m 0,0 h 3 m 0,0 v 6"
     style="fill:none;stroke:#ff0000;stroke-width:1.00699997;stroke-linecap:butt;stroke-linejoin:miter;stroke-miterlimit:10;stroke-dasharray:none;stroke-opacity:1" />
  <path
     inkscape:connector-curvature="0"
     id="path10488"
     d="m 162,9836.75 v 0 m 0,0 h -3 m 0,0 v -6 m 0,0 h 3 m 0,0 v 6"
     style="fill:none;stroke:#ff0000;stroke-width:1.00699997;stroke-linecap:butt;stroke-linejoin:miter;stroke-miterlimit:10;stroke-dasharray:none;stroke-opacity:1" />
  <path
     inkscape:connector-curvature="0"
     id="path10490"
     d="m 162,9824.75 v 0 m 0,0 h -3 m 0,0 v -6 m 0,0 h 3 m 0,0 v 6"
     style="fill:none;stroke:#ff0000;stroke-width:1.00699997;stroke-linecap:butt;stroke-linejoin:miter;stroke-miterlimit:10;stroke-dasharray:none;stroke-opacity:1" />
  <path
     inkscape:connector-curvature="0"
     id="path10492"
     d="m 162,9812.75 v 0 m 0,0 h -3 m 0,0 v -6 m 0,0 h 3 m 0,0 v 6"
     style="fill:none;stroke:#ff0000;stroke-width:1.00699997;stroke-linecap:butt;stroke-linejoin:miter;stroke-miterlimit:10;stroke-dasharray:none;stroke-opacity:1" />
  <path
     inkscape:connector-curvature="0"
     id="path10494"
     d="m 162,9800.75 v 0 m 0,0 h -3 m 0,0 v -6 m 0,0 h 3 m 0,0 v 6"
     style="fill:none;stroke:#ff0000;stroke-width:1.00699997;stroke-linecap:butt;stroke-linejoin:miter;stroke-miterlimit:10;stroke-dasharray:none;stroke-opacity:1" />
  <path
     inkscape:connector-curvature="0"
     id="path10496"
     d="m 162,9788.75 v 0 m 0,0 h -3 m 0,0 v -6 m 0,0 h 3 m 0,0 v 6"
     style="fill:none;stroke:#ff0000;stroke-width:1.00699997;stroke-linecap:butt;stroke-linejoin:miter;stroke-miterlimit:10;stroke-dasharray:none;stroke-opacity:1" />
  <path
     inkscape:connector-curvature="0"
     id="path10498"
     d="m 162,9776.75 v 0 m 0,0 h -3 m 0,0 v -6 m 0,0 h 3 m 0,0 v 6"
     style="fill:none;stroke:#ff0000;stroke-width:1.00699997;stroke-linecap:butt;stroke-linejoin:miter;stroke-miterlimit:10;stroke-dasharray:none;stroke-opacity:1" />
  <path
     inkscape:connector-curvature="0"
     id="path10500"
     d="m 162,9764.75 v 0 m 0,0 h -3 m 0,0 v -6 m 0,0 h 3 m 0,0 v 6"
     style="fill:none;stroke:#ff0000;stroke-width:1.00699997;stroke-linecap:butt;stroke-linejoin:miter;stroke-miterlimit:10;stroke-dasharray:none;stroke-opacity:1" />
  <path
     inkscape:connector-curvature="0"
     id="path10502"
     d="m 162,9752.75 v 0 m 0,0 h -3 m 0,0 v -6 m 0,0 h 3 m 0,0 v 6"
     style="fill:none;stroke:#ff0000;stroke-width:1.00699997;stroke-linecap:butt;stroke-linejoin:miter;stroke-miterlimit:10;stroke-dasharray:none;stroke-opacity:1" />
  <path
     inkscape:connector-curvature="0"
     id="path10504"
     d="m 162,9740.75 v 0 m 0,0 h -3 m 0,0 v -6 m 0,0 h 3 m 0,0 v 6"
     style="fill:none;stroke:#ff0000;stroke-width:1.00699997;stroke-linecap:butt;stroke-linejoin:miter;stroke-miterlimit:10;stroke-dasharray:none;stroke-opacity:1" />
  <path
     inkscape:connector-curvature="0"
     id="path10506"
     d="m 162,9728.75 v 0 m 0,0 h -3 m 0,0 v -6 m 0,0 h 3 m 0,0 v 6"
     style="fill:none;stroke:#ff0000;stroke-width:1.00699997;stroke-linecap:butt;stroke-linejoin:miter;stroke-miterlimit:10;stroke-dasharray:none;stroke-opacity:1" />
  <path
     inkscape:connector-curvature="0"
     id="path10508"
     d="m 162,9716.75 v 0 m 0,0 h -3 m 0,0 v -6 m 0,0 h 3 m 0,0 v 6"
     style="fill:none;stroke:#ff0000;stroke-width:1.00699997;stroke-linecap:butt;stroke-linejoin:miter;stroke-miterlimit:10;stroke-dasharray:none;stroke-opacity:1" />
  <path
     inkscape:connector-curvature="0"
     id="path10510"
     d="m 162,9704.75 v 0 m 0,0 h -3 m 0,0 v -6 m 0,0 h 3 m 0,0 v 6"
     style="fill:none;stroke:#ff0000;stroke-width:1.00699997;stroke-linecap:butt;stroke-linejoin:miter;stroke-miterlimit:10;stroke-dasharray:none;stroke-opacity:1" />
  <path
     inkscape:connector-curvature="0"
     id="path10512"
     d="m 162,9692.75 v 0 m 0,0 h -3 m 0,0 v -6 m 0,0 h 3 m 0,0 v 6"
     style="fill:none;stroke:#ff0000;stroke-width:1.00699997;stroke-linecap:butt;stroke-linejoin:miter;stroke-miterlimit:10;stroke-dasharray:none;stroke-opacity:1" />
  <path
     inkscape:connector-curvature="0"
     id="path10514"
     d="m 3.75,9874.25 h 5 m 0,0 v 0 m 0,0 v 3 m 0,0 h 6 m 0,0 v -3 m 0,0 h 6 m 0,0 v 0 m 0,0 v 3 m 0,0 h 6 m 0,0 v -3 m 0,0 h 6 m 0,0 v 0 m 0,0 v 3 m 0,0 h 6 m 0,0 v -3 m 0,0 h 6 m 0,0 v 0 m 0,0 v 3 m 0,0 h 6 m 0,0 v -3 m 0,0 h 6 m 0,0 v 0 m 0,0 v 3 m 0,0 h 6 m 0,0 v -3 m 0,0 h 6 m 0,0 v 0 m 0,0 v 3 m 0,0 h 6 m 0,0 v -3 m 0,0 h 6 m 0,0 v 0 m 0,0 v 3 m 0,0 h 6 m 0,0 v -3 m 0,0 h 6 m 0,0 v 0 m 0,0 v 3 m 0,0 h 6 m 0,0 v -3 m 0,0 h 6 m 0,0 v 0 m 0,0 v 3 m 0,0 h 6 m 0,0 v -3 m 0,0 h 6 m 0,0 v 0 m 0,0 v 3 m 0,0 h 6 m 0,0 v -3 m 0,0 h 6 m 0,0 v 0 m 0,0 v 3 m 0,0 h 6 m 0,0 v -3 m 0,0 h 6 m 0,0 v 0 m 0,0 v 3 m 0,0 h 6 m 0,0 v -3 m 0,0 h 6 m 0,0 v 0 m 0,0 v 3 m 0,0 h 6 m 0,0 v -3 m 0,0 h 6 m 0,0 v 0 m 0,0 v 3 m 0,0 h 6 m 0,0 v -3 m 0,0 h 6 m 0,0 v 0 m 0,0 v 3 m 0,0 h 6 m 0,0 v -3 m 0,0 h 6 m 0,0 v 0 m 0,0 v 3 m 0,0 h 6 m 0,0 v -3 m 0,0 h 6 m 0,0 v 0 m 0,0 v 3 m 0,0 h 6 m 0,0 v -3 m 0,0 h 5 m 0,0 v 0 m 0,0 v 0 m 0,-46.5"
     style="fill:none;stroke:#ff0000;stroke-width:1.00699997;stroke-linecap:butt;stroke-linejoin:miter;stroke-miterlimit:10;stroke-dasharray:none;stroke-opacity:1" />
  <path
     inkscape:connector-curvature="0"
     id="path10516"
     d="m 207.875,9826.25 v 0 m 0,0 v 3 m 0,0 h -6 m 0,0 v -3 m 0,0 h 6"
     style="fill:none;stroke:#ff0000;stroke-width:1.00699997;stroke-linecap:butt;stroke-linejoin:miter;stroke-miterlimit:10;stroke-dasharray:none;stroke-opacity:1" />
  <path
     inkscape:connector-curvature="0"
     id="path10518"
     d="m 195.875,9826.25 v 0 m 0,0 v 3 m 0,0 h -6 m 0,0 v -3 m 0,0 h 6"
     style="fill:none;stroke:#ff0000;stroke-width:1.00699997;stroke-linecap:butt;stroke-linejoin:miter;stroke-miterlimit:10;stroke-dasharray:none;stroke-opacity:1" />
  <path
     inkscape:connector-curvature="0"
     id="path10520"
     d="m 183.875,9826.25 v 0 m 0,0 v 3 m 0,0 h -6 m 0,0 v -3 m 0,0 h 6"
     style="fill:none;stroke:#ff0000;stroke-width:1.00699997;stroke-linecap:butt;stroke-linejoin:miter;stroke-miterlimit:10;stroke-dasharray:none;stroke-opacity:1" />
  <path
     inkscape:connector-curvature="0"
     id="path10522"
     d="m 171.875,9826.25 v 0 m 0,0 v 3 m 0,0 h -6 m 0,0 v -3 m 0,0 h 6"
     style="fill:none;stroke:#ff0000;stroke-width:1.00699997;stroke-linecap:butt;stroke-linejoin:miter;stroke-miterlimit:10;stroke-dasharray:none;stroke-opacity:1" />
  <path
     inkscape:connector-curvature="0"
     id="path10524"
     d="m 155.125,9826.25 v 0 m 0,0 v 3 m 0,0 h -6 m 0,0 v -3 m 0,0 h 6"
     style="fill:none;stroke:#ff0000;stroke-width:1.00699997;stroke-linecap:butt;stroke-linejoin:miter;stroke-miterlimit:10;stroke-dasharray:none;stroke-opacity:1" />
  <path
     inkscape:connector-curvature="0"
     id="path10526"
     d="m 143.125,9826.25 v 0 m 0,0 v 3 m 0,0 h -6 m 0,0 v -3 m 0,0 h 6"
     style="fill:none;stroke:#ff0000;stroke-width:1.00699997;stroke-linecap:butt;stroke-linejoin:miter;stroke-miterlimit:10;stroke-dasharray:none;stroke-opacity:1" />
  <path
     inkscape:connector-curvature="0"
     id="path10528"
     d="m 131.125,9826.25 v 0 m 0,0 v 3 m 0,0 h -6 m 0,0 v -3 m 0,0 h 6"
     style="fill:none;stroke:#ff0000;stroke-width:1.00699997;stroke-linecap:butt;stroke-linejoin:miter;stroke-miterlimit:10;stroke-dasharray:none;stroke-opacity:1" />
  <path
     inkscape:connector-curvature="0"
     id="path10530"
     d="m 119.125,9826.25 v 0 m 0,0 v 3 m 0,0 h -6 m 0,0 v -3 m 0,0 h 6"
     style="fill:none;stroke:#ff0000;stroke-width:1.00699997;stroke-linecap:butt;stroke-linejoin:miter;stroke-miterlimit:10;stroke-dasharray:none;stroke-opacity:1" />
  <path
     inkscape:connector-curvature="0"
     id="path10532"
     d="m 102.375,9826.25 v 0 m 0,0 v 3 m 0,0 h -6 m 0,0 v -3 m 0,0 h 6"
     style="fill:none;stroke:#ff0000;stroke-width:1.00699997;stroke-linecap:butt;stroke-linejoin:miter;stroke-miterlimit:10;stroke-dasharray:none;stroke-opacity:1" />
  <path
     inkscape:connector-curvature="0"
     id="path10534"
     d="m 90.375,9826.25 v 0 m 0,0 v 3 m 0,0 h -6 m 0,0 v -3 m 0,0 h 6"
     style="fill:none;stroke:#ff0000;stroke-width:1.00699997;stroke-linecap:butt;stroke-linejoin:miter;stroke-miterlimit:10;stroke-dasharray:none;stroke-opacity:1" />
  <path
     inkscape:connector-curvature="0"
     id="path10536"
     d="m 78.375,9826.25 v 0 m 0,0 v 3 m 0,0 h -6 m 0,0 v -3 m 0,0 h 6"
     style="fill:none;stroke:#ff0000;stroke-width:1.00699997;stroke-linecap:butt;stroke-linejoin:miter;stroke-miterlimit:10;stroke-dasharray:none;stroke-opacity:1" />
  <path
     inkscape:connector-curvature="0"
     id="path10538"
     d="m 66.375,9826.25 v 0 m 0,0 v 3 m 0,0 h -6 m 0,0 v -3 m 0,0 h 6"
     style="fill:none;stroke:#ff0000;stroke-width:1.00699997;stroke-linecap:butt;stroke-linejoin:miter;stroke-miterlimit:10;stroke-dasharray:none;stroke-opacity:1" />
  <path
     inkscape:connector-curvature="0"
     id="path10540"
     d="m 49.625,9826.25 v 0 m 0,0 v 3 m 0,0 h -6 m 0,0 v -3 m 0,0 h 6"
     style="fill:none;stroke:#ff0000;stroke-width:1.00699997;stroke-linecap:butt;stroke-linejoin:miter;stroke-miterlimit:10;stroke-dasharray:none;stroke-opacity:1" />
  <path
     inkscape:connector-curvature="0"
     id="path10542"
     d="m 37.625,9826.25 v 0 m 0,0 v 3 m 0,0 h -6 m 0,0 v -3 m 0,0 h 6"
     style="fill:none;stroke:#ff0000;stroke-width:1.00699997;stroke-linecap:butt;stroke-linejoin:miter;stroke-miterlimit:10;stroke-dasharray:none;stroke-opacity:1" />
  <path
     inkscape:connector-curvature="0"
     id="path10544"
     d="m 25.625,9826.25 v 0 m 0,0 v 3 m 0,0 h -6 m 0,0 v -3 m 0,0 h 6"
     style="fill:none;stroke:#ff0000;stroke-width:1.00699997;stroke-linecap:butt;stroke-linejoin:miter;stroke-miterlimit:10;stroke-dasharray:none;stroke-opacity:1" />
  <path
     inkscape:connector-curvature="0"
     id="path10546"
     d="m 13.625,9826.25 v 0 m 0,0 v 3 m 0,0 h -6 m 0,0 v -3 m 0,0 h 6"
     style="fill:none;stroke:#ff0000;stroke-width:1.00699997;stroke-linecap:butt;stroke-linejoin:miter;stroke-miterlimit:10;stroke-dasharray:none;stroke-opacity:1" />
  <path
     inkscape:connector-curvature="0"
     id="path10548"
     d="m 207.875,9778.25 v 0 m 0,0 v 3 m 0,0 h -6 m 0,0 v -3 m 0,0 h 6"
     style="fill:none;stroke:#ff0000;stroke-width:1.00699997;stroke-linecap:butt;stroke-linejoin:miter;stroke-miterlimit:10;stroke-dasharray:none;stroke-opacity:1" />
  <path
     inkscape:connector-curvature="0"
     id="path10550"
     d="m 195.875,9778.25 v 0 m 0,0 v 3 m 0,0 h -6 m 0,0 v -3 m 0,0 h 6"
     style="fill:none;stroke:#ff0000;stroke-width:1.00699997;stroke-linecap:butt;stroke-linejoin:miter;stroke-miterlimit:10;stroke-dasharray:none;stroke-opacity:1" />
  <path
     inkscape:connector-curvature="0"
     id="path10552"
     d="m 183.875,9778.25 v 0 m 0,0 v 3 m 0,0 h -6 m 0,0 v -3 m 0,0 h 6"
     style="fill:none;stroke:#ff0000;stroke-width:1.00699997;stroke-linecap:butt;stroke-linejoin:miter;stroke-miterlimit:10;stroke-dasharray:none;stroke-opacity:1" />
  <path
     inkscape:connector-curvature="0"
     id="path10554"
     d="m 171.875,9778.25 v 0 m 0,0 v 3 m 0,0 h -6 m 0,0 v -3 m 0,0 h 6"
     style="fill:none;stroke:#ff0000;stroke-width:1.00699997;stroke-linecap:butt;stroke-linejoin:miter;stroke-miterlimit:10;stroke-dasharray:none;stroke-opacity:1" />
  <path
     inkscape:connector-curvature="0"
     id="path10556"
     d="m 155.125,9778.25 v 0 m 0,0 v 3 m 0,0 h -6 m 0,0 v -3 m 0,0 h 6"
     style="fill:none;stroke:#ff0000;stroke-width:1.00699997;stroke-linecap:butt;stroke-linejoin:miter;stroke-miterlimit:10;stroke-dasharray:none;stroke-opacity:1" />
  <path
     inkscape:connector-curvature="0"
     id="path10558"
     d="m 143.125,9778.25 v 0 m 0,0 v 3 m 0,0 h -6 m 0,0 v -3 m 0,0 h 6"
     style="fill:none;stroke:#ff0000;stroke-width:1.00699997;stroke-linecap:butt;stroke-linejoin:miter;stroke-miterlimit:10;stroke-dasharray:none;stroke-opacity:1" />
  <path
     inkscape:connector-curvature="0"
     id="path10560"
     d="m 131.125,9778.25 v 0 m 0,0 v 3 m 0,0 h -6 m 0,0 v -3 m 0,0 h 6"
     style="fill:none;stroke:#ff0000;stroke-width:1.00699997;stroke-linecap:butt;stroke-linejoin:miter;stroke-miterlimit:10;stroke-dasharray:none;stroke-opacity:1" />
  <path
     inkscape:connector-curvature="0"
     id="path10562"
     d="m 119.125,9778.25 v 0 m 0,0 v 3 m 0,0 h -6 m 0,0 v -3 m 0,0 h 6"
     style="fill:none;stroke:#ff0000;stroke-width:1.00699997;stroke-linecap:butt;stroke-linejoin:miter;stroke-miterlimit:10;stroke-dasharray:none;stroke-opacity:1" />
  <path
     inkscape:connector-curvature="0"
     id="path10564"
     d="m 102.375,9778.25 v 0 m 0,0 v 3 m 0,0 h -6 m 0,0 v -3 m 0,0 h 6"
     style="fill:none;stroke:#ff0000;stroke-width:1.00699997;stroke-linecap:butt;stroke-linejoin:miter;stroke-miterlimit:10;stroke-dasharray:none;stroke-opacity:1" />
  <path
     inkscape:connector-curvature="0"
     id="path10566"
     d="m 90.375,9778.25 v 0 m 0,0 v 3 m 0,0 h -6 m 0,0 v -3 m 0,0 h 6"
     style="fill:none;stroke:#ff0000;stroke-width:1.00699997;stroke-linecap:butt;stroke-linejoin:miter;stroke-miterlimit:10;stroke-dasharray:none;stroke-opacity:1" />
  <path
     inkscape:connector-curvature="0"
     id="path10568"
     d="m 78.375,9778.25 v 0 m 0,0 v 3 m 0,0 h -6 m 0,0 v -3 m 0,0 h 6"
     style="fill:none;stroke:#ff0000;stroke-width:1.00699997;stroke-linecap:butt;stroke-linejoin:miter;stroke-miterlimit:10;stroke-dasharray:none;stroke-opacity:1" />
  <path
     inkscape:connector-curvature="0"
     id="path10570"
     d="m 66.375,9778.25 v 0 m 0,0 v 3 m 0,0 h -6 m 0,0 v -3 m 0,0 h 6"
     style="fill:none;stroke:#ff0000;stroke-width:1.00699997;stroke-linecap:butt;stroke-linejoin:miter;stroke-miterlimit:10;stroke-dasharray:none;stroke-opacity:1" />
  <path
     inkscape:connector-curvature="0"
     id="path10572"
     d="m 49.625,9778.25 v 0 m 0,0 v 3 m 0,0 h -6 m 0,0 v -3 m 0,0 h 6"
     style="fill:none;stroke:#ff0000;stroke-width:1.00699997;stroke-linecap:butt;stroke-linejoin:miter;stroke-miterlimit:10;stroke-dasharray:none;stroke-opacity:1" />
  <path
     inkscape:connector-curvature="0"
     id="path10574"
     d="m 37.625,9778.25 v 0 m 0,0 v 3 m 0,0 h -6 m 0,0 v -3 m 0,0 h 6"
     style="fill:none;stroke:#ff0000;stroke-width:1.00699997;stroke-linecap:butt;stroke-linejoin:miter;stroke-miterlimit:10;stroke-dasharray:none;stroke-opacity:1" />
  <path
     inkscape:connector-curvature="0"
     id="path10576"
     d="m 25.625,9778.25 v 0 m 0,0 v 3 m 0,0 h -6 m 0,0 v -3 m 0,0 h 6"
     style="fill:none;stroke:#ff0000;stroke-width:1.00699997;stroke-linecap:butt;stroke-linejoin:miter;stroke-miterlimit:10;stroke-dasharray:none;stroke-opacity:1" />
  <path
     inkscape:connector-curvature="0"
     id="path10578"
     d="m 13.625,9778.25 v 0 m 0,0 v 3 m 0,0 h -6 m 0,0 v -3 m 0,0 h 6"
     style="fill:none;stroke:#ff0000;stroke-width:1.00699997;stroke-linecap:butt;stroke-linejoin:miter;stroke-miterlimit:10;stroke-dasharray:none;stroke-opacity:1" />
  <path
     inkscape:connector-curvature="0"
     id="path10580"
     d="m 207.875,9730.25 v 0 m 0,0 v 3 m 0,0 h -6 m 0,0 v -3 m 0,0 h 6"
     style="fill:none;stroke:#ff0000;stroke-width:1.00699997;stroke-linecap:butt;stroke-linejoin:miter;stroke-miterlimit:10;stroke-dasharray:none;stroke-opacity:1" />
  <path
     inkscape:connector-curvature="0"
     id="path10582"
     d="m 195.875,9730.25 v 0 m 0,0 v 3 m 0,0 h -6 m 0,0 v -3 m 0,0 h 6"
     style="fill:none;stroke:#ff0000;stroke-width:1.00699997;stroke-linecap:butt;stroke-linejoin:miter;stroke-miterlimit:10;stroke-dasharray:none;stroke-opacity:1" />
  <path
     inkscape:connector-curvature="0"
     id="path10584"
     d="m 183.875,9730.25 v 0 m 0,0 v 3 m 0,0 h -6 m 0,0 v -3 m 0,0 h 6"
     style="fill:none;stroke:#ff0000;stroke-width:1.00699997;stroke-linecap:butt;stroke-linejoin:miter;stroke-miterlimit:10;stroke-dasharray:none;stroke-opacity:1" />
  <path
     inkscape:connector-curvature="0"
     id="path10586"
     d="m 171.875,9730.25 v 0 m 0,0 v 3 m 0,0 h -6 m 0,0 v -3 m 0,0 h 6"
     style="fill:none;stroke:#ff0000;stroke-width:1.00699997;stroke-linecap:butt;stroke-linejoin:miter;stroke-miterlimit:10;stroke-dasharray:none;stroke-opacity:1" />
  <path
     inkscape:connector-curvature="0"
     id="path10588"
     d="m 155.125,9730.25 v 0 m 0,0 v 3 m 0,0 h -6 m 0,0 v -3 m 0,0 h 6"
     style="fill:none;stroke:#ff0000;stroke-width:1.00699997;stroke-linecap:butt;stroke-linejoin:miter;stroke-miterlimit:10;stroke-dasharray:none;stroke-opacity:1" />
  <path
     inkscape:connector-curvature="0"
     id="path10590"
     d="m 143.125,9730.25 v 0 m 0,0 v 3 m 0,0 h -6 m 0,0 v -3 m 0,0 h 6"
     style="fill:none;stroke:#ff0000;stroke-width:1.00699997;stroke-linecap:butt;stroke-linejoin:miter;stroke-miterlimit:10;stroke-dasharray:none;stroke-opacity:1" />
  <path
     inkscape:connector-curvature="0"
     id="path10592"
     d="m 131.125,9730.25 v 0 m 0,0 v 3 m 0,0 h -6 m 0,0 v -3 m 0,0 h 6"
     style="fill:none;stroke:#ff0000;stroke-width:1.00699997;stroke-linecap:butt;stroke-linejoin:miter;stroke-miterlimit:10;stroke-dasharray:none;stroke-opacity:1" />
  <path
     inkscape:connector-curvature="0"
     id="path10594"
     d="m 119.125,9730.25 v 0 m 0,0 v 3 m 0,0 h -6 m 0,0 v -3 m 0,0 h 6"
     style="fill:none;stroke:#ff0000;stroke-width:1.00699997;stroke-linecap:butt;stroke-linejoin:miter;stroke-miterlimit:10;stroke-dasharray:none;stroke-opacity:1" />
  <path
     inkscape:connector-curvature="0"
     id="path10596"
     d="m 102.375,9730.25 v 0 m 0,0 v 3 m 0,0 h -6 m 0,0 v -3 m 0,0 h 6"
     style="fill:none;stroke:#ff0000;stroke-width:1.00699997;stroke-linecap:butt;stroke-linejoin:miter;stroke-miterlimit:10;stroke-dasharray:none;stroke-opacity:1" />
  <path
     inkscape:connector-curvature="0"
     id="path10598"
     d="m 90.375,9730.25 v 0 m 0,0 v 3 m 0,0 h -6 m 0,0 v -3 m 0,0 h 6"
     style="fill:none;stroke:#ff0000;stroke-width:1.00699997;stroke-linecap:butt;stroke-linejoin:miter;stroke-miterlimit:10;stroke-dasharray:none;stroke-opacity:1" />
  <path
     inkscape:connector-curvature="0"
     id="path10600"
     d="m 78.375,9730.25 v 0 m 0,0 v 3 m 0,0 h -6 m 0,0 v -3 m 0,0 h 6"
     style="fill:none;stroke:#ff0000;stroke-width:1.00699997;stroke-linecap:butt;stroke-linejoin:miter;stroke-miterlimit:10;stroke-dasharray:none;stroke-opacity:1" />
  <path
     inkscape:connector-curvature="0"
     id="path10602"
     d="m 66.375,9730.25 v 0 m 0,0 v 3 m 0,0 h -6 m 0,0 v -3 m 0,0 h 6"
     style="fill:none;stroke:#ff0000;stroke-width:1.00699997;stroke-linecap:butt;stroke-linejoin:miter;stroke-miterlimit:10;stroke-dasharray:none;stroke-opacity:1" />
  <path
     inkscape:connector-curvature="0"
     id="path10604"
     d="m 49.625,9730.25 v 0 m 0,0 v 3 m 0,0 h -6 m 0,0 v -3 m 0,0 h 6"
     style="fill:none;stroke:#ff0000;stroke-width:1.00699997;stroke-linecap:butt;stroke-linejoin:miter;stroke-miterlimit:10;stroke-dasharray:none;stroke-opacity:1" />
  <path
     inkscape:connector-curvature="0"
     id="path10606"
     d="m 37.625,9730.25 v 0 m 0,0 v 3 m 0,0 h -6 m 0,0 v -3 m 0,0 h 6"
     style="fill:none;stroke:#ff0000;stroke-width:1.00699997;stroke-linecap:butt;stroke-linejoin:miter;stroke-miterlimit:10;stroke-dasharray:none;stroke-opacity:1" />
  <path
     inkscape:connector-curvature="0"
     id="path10608"
     d="m 25.625,9730.25 v 0 m 0,0 v 3 m 0,0 h -6 m 0,0 v -3 m 0,0 h 6"
     style="fill:none;stroke:#ff0000;stroke-width:1.00699997;stroke-linecap:butt;stroke-linejoin:miter;stroke-miterlimit:10;stroke-dasharray:none;stroke-opacity:1" />
  <path
     inkscape:connector-curvature="0"
     id="path10610"
     d="m 13.625,9730.25 v 0 m 0,0 v 3 m 0,0 h -6 m 0,0 v -3 m 0,0 h 6"
     style="fill:none;stroke:#ff0000;stroke-width:1.00699997;stroke-linecap:butt;stroke-linejoin:miter;stroke-miterlimit:10;stroke-dasharray:none;stroke-opacity:1" />
  <path
     inkscape:connector-curvature="0"
     id="path10612"
     d="m 211.75,9874.25 v -1.5 m 0,0 v 0 m 0,0 h 3 m 0,0 v -6 m 0,0 h -3 m 0,0 v -6 m 0,0 v 0 m 0,0 h 3 m 0,0 v -6 m 0,0 h -3 m 0,0 v -6 m 0,0 v 0 m 0,0 h 3 m 0,0 v -6 m 0,0 h -3 m 0,0 v -6 m 0,0 v 0 m 0,0 h 3 m 0,0 v -6 m 0,0 h -3 m 0,0 v -6 m 0,0 v 0 m 0,0 h 3 m 0,0 v -6 m 0,0 h -3 m 0,0 v -6 m 0,0 v 0 m 0,0 h 3 m 0,0 v -6 m 0,0 h -3 m 0,0 v -6 m 0,0 v 0 m 0,0 h 3 m 0,0 v -6 m 0,0 h -3 m 0,0 v -6 m 0,0 v 0 m 0,0 h 3 m 0,0 v -6 m 0,0 h -3 m 0,0 v -6 m 0,0 v 0 m 0,0 h 3 m 0,0 v -6 m 0,0 h -3 m 0,0 v -6 m 0,0 v 0 m 0,0 h 3 m 0,0 v -6 m 0,0 h -3 m 0,0 v -6 m 0,0 v 0 m 0,0 h 3 m 0,0 v -6 m 0,0 h -3 m 0,0 v -6 m 0,0 v 0 m 0,0 h 3 m 0,0 v -6 m 0,0 h -3 m 0,0 v -6 m 0,0 v 0 m 0,0 h 3 m 0,0 v -6 m 0,0 h -3 m 0,0 v -6 m 0,0 v 0 m 0,0 h 3 m 0,0 v -6 m 0,0 h -3 m 0,0 v -6 m 0,0 v 0 m 0,0 h 3 m 0,0 v -6 m 0,0 h -3 m 0,0 v -6 m 0,0 v 0 m 0,0 h 3 m 0,0 v -6 m 0,0 h -3 m 0,0 v -1.5 m 0,0 v 0 m 0,0 v 0 m 0,0 h -5 m 0,0 v 0 m 0,0 v -3 m 0,0 h -6 m 0,0 v 3 m 0,0 h -6 m 0,0 v 0 m 0,0 v -3 m 0,0 h -6 m 0,0 v 3 m 0,0 h -6 m 0,0 v 0 m 0,0 v -3 m 0,0 h -6 m 0,0 v 3 m 0,0 h -6 m 0,0 v 0 m 0,0 v -3 m 0,0 h -6 m 0,0 v 3 m 0,0 h -6 m 0,0 v 0 m 0,0 v -3 m 0,0 h -6 m 0,0 v 3 m 0,0 h -6 m 0,0 v 0 m 0,0 v -3 m 0,0 h -6 m 0,0 v 3 m 0,0 h -6 m 0,0 v 0 m 0,0 v -3 m 0,0 h -6 m 0,0 v 3 m 0,0 h -6 m 0,0 v 0 m 0,0 v -3 m 0,0 h -6 m 0,0 v 3 m 0,0 h -6 m 0,0 v 0 m 0,0 v -3 m 0,0 h -6 m 0,0 v 3 m 0,0 h -6 m 0,0 v 0 m 0,0 v -3 m 0,0 h -6 m 0,0 v 3 m 0,0 h -6 m 0,0 v 0 m 0,0 v -3 m 0,0 h -6 m 0,0 v 3 m 0,0 h -6 m 0,0 v 0 m 0,0 v -3 m 0,0 h -6 m 0,0 v 3 m 0,0 h -6 m 0,0 v 0 m 0,0 v -3 m 0,0 h -6 m 0,0 v 3 m 0,0 h -6 m 0,0 v 0 m 0,0 v -3 m 0,0 h -6 m 0,0 v 3 m 0,0 h -6 m 0,0 v 0 m 0,0 v -3 m 0,0 h -6 m 0,0 v 3 m 0,0 h -6 m 0,0 v 0 m 0,0 v -3 m 0,0 h -6 m 0,0 v 3 m 0,0 h -6 m 0,0 v 0 m 0,0 v -3 m 0,0 h -6 m 0,0 v 3 m 0,0 h -5 m 0,0 v 0 m 0,0 v 0 m 0,0 v 1.5 m 0,0 v 0 m 0,0 h -3 m 0,0 v 6 m 0,0 h 3 m 0,0 v 6 m 0,0 v 0 m 0,0 h -3 m 0,0 v 6 m 0,0 h 3 m 0,0 v 6 m 0,0 v 0 m 0,0 h -3 m 0,0 v 6 m 0,0 h 3 m 0,0 v 6 m 0,0 v 0 m 0,0 h -3 m 0,0 v 6 m 0,0 h 3 m 0,0 v 6 m 0,0 v 0 m 0,0 h -3 m 0,0 v 6 m 0,0 h 3 m 0,0 v 6 m 0,0 v 0 m 0,0 h -3 m 0,0 v 6 m 0,0 h 3 m 0,0 v 6 m 0,0 v 0 m 0,0 h -3 m 0,0 v 6 m 0,0 h 3 m 0,0 v 6 m 0,0 v 0 m 0,0 h -3 m 0,0 v 6 m 0,0 h 3 m 0,0 v 6 m 0,0 v 0 m 0,0 h -3 m 0,0 v 6 m 0,0 h 3 m 0,0 v 6 m 0,0 v 0 m 0,0 h -3 m 0,0 v 6 m 0,0 h 3 m 0,0 v 6 m 0,0 v 0 m 0,0 h -3 m 0,0 v 6 m 0,0 h 3 m 0,0 v 6 m 0,0 v 0 m 0,0 h -3 m 0,0 v 6 m 0,0 h 3 m 0,0 v 6 m 0,0 v 0 m 0,0 h -3 m 0,0 v 6 m 0,0 h 3 m 0,0 v 6 m 0,0 v 0 m 0,0 h -3 m 0,0 v 6 m 0,0 h 3 m 0,0 v 6 m 0,0 v 0 m 0,0 h -3 m 0,0 v 6 m 0,0 h 3 m 0,0 v 6 m 0,0 v 0 m 0,0 h -3 m 0,0 v 6 m 0,0 h 3 m 0,0 v 1.5 m 0,0 v 0 m 0,0 v 0"
     style="fill:none;stroke:#ff0000;stroke-width:1.00699997;stroke-linecap:butt;stroke-linejoin:miter;stroke-miterlimit:10;stroke-dasharray:none;stroke-opacity:1" />
  <path
     style="fill:none;stroke:#ff0000;stroke-width:1.00699997;stroke-linecap:butt;stroke-linejoin:miter;stroke-miterlimit:10;stroke-dasharray:none;stroke-opacity:1"
     d="m 219.38138,9679.2503 v 11.9998 h -3.00033 v 6.0002 h 3.00033 v 6.0001 h -3.00033 v 5.9996 h 3.00033 v 6.0002 h -3.00033 v 6.0002 h 3.00033 v 2.9998 h 3.8747 v 3.0003 h 6.00015 v -3.0003 h 6.00015 v 3.0003 h 5.99964 v -3.0003 h 6.00015 v 3.0003 h 6.00015 v -3.0003 h 6.00015 v 3.0003 h 5.99963 v -3.0003 h 3.87522 1.49965 1.50016 3.87522 v 3.0003 h 5.99963 v -3.0003 h 6.00015 v 3.0003 h 6.00015 v -3.0003 h 6.00016 v 3.0003 h 5.99963 v -3.0003 h 6.00015 v 3.0003 h 6.00015 v -3.0003 h 3.8747 1.50016 1.50017 3.8747 v 3.0003 h 6.00015 v -3.0003 h 6.00015 v 3.0003 h 5.99963 v -3.0003 h 6.00016 v 3.0003 h 6.00015 v -3.0003 h 5.99963 v 3.0003 h 6.00015 v -3.0003 h 3.87522 1.49965 1.50016 3.87522 v 3.0003 h 5.99963 v -3.0003 h 6.00015 v 3.0003 h 6.00015 v -3.0003 h 6.00015 v 3.0003 h 5.99964 v -3.0003 h 6.00015 v 3.0003 h 6.00015 v -3.0003 h 3.8747 v -2.9998 h 3.00033 v -6.0002 h -3.00033 v -6.0002 h 3.00033 v -5.9996 h -3.00033 v -6.0001 h 3.00033 v -6.0002 h -3.00033 v -11.9998 l -5.60534,-3e-4 c -0.10112,10.4039 -8.56137,18.786 -18.96577,18.7906 -10.40521,0 -18.86671,-8.3859 -18.96784,-18.7906 h -6.21099 v 15.0005 h -2.99981 V 9679.25 h -5.60535 c -0.10111,10.4039 -8.56136,18.786 -18.96576,18.7906 -10.40542,0 -18.86723,-8.3857 -18.96835,-18.7906 h -6.21048 v 15.0005 h -3.00033 V 9679.25 h -5.60534 c -0.10112,10.4037 -8.56105,18.7857 -18.96526,18.7906 -10.40541,0 -18.86722,-8.3857 -18.96835,-18.7906 h -6.21099 v 15.0005 h -2.99981 v -15.0002 l -5.60535,-3e-4 c -0.10111,10.4039 -8.56136,18.786 -18.96576,18.7906 -10.40542,0 -18.86723,-8.3857 -18.96835,-18.7906 z"
     id="path10618"
     inkscape:connector-curvature="0"
     sodipodi:nodetypes="cccccccccccccccccccccccccccccccccccccccccccccccccccccccccccccccccccccccccccccccccccccccccccccccccccccccccccccccccccccccccccccc" />
  <path
     inkscape:connector-curvature="0"
     id="path10652"
     d="m 267.25,9925.75 v 0 m 0,0 h -3 m 0,0 v -6 m 0,0 h 3 m 0,0 v 6"
     style="fill:none;stroke:#ff0000;stroke-width:1.00699997;stroke-linecap:butt;stroke-linejoin:miter;stroke-miterlimit:10;stroke-dasharray:none;stroke-opacity:1" />
  <path
     inkscape:connector-curvature="0"
     id="path10654"
     d="m 267.25,9913.75 v 0 m 0,0 h -3 m 0,0 v -6 m 0,0 h 3 m 0,0 v 6"
     style="fill:none;stroke:#ff0000;stroke-width:1.00699997;stroke-linecap:butt;stroke-linejoin:miter;stroke-miterlimit:10;stroke-dasharray:none;stroke-opacity:1" />
  <path
     inkscape:connector-curvature="0"
     id="path10656"
     d="m 267.25,9901.75 v 0 m 0,0 h -3 m 0,0 v -6 m 0,0 h 3 m 0,0 v 6"
     style="fill:none;stroke:#ff0000;stroke-width:1.00699997;stroke-linecap:butt;stroke-linejoin:miter;stroke-miterlimit:10;stroke-dasharray:none;stroke-opacity:1" />
  <path
     inkscape:connector-curvature="0"
     id="path10662"
     d="m 315.25,9925.75 v 0 m 0,0 h -3 m 0,0 v -6 m 0,0 h 3 m 0,0 v 6"
     style="fill:none;stroke:#ff0000;stroke-width:1.00699997;stroke-linecap:butt;stroke-linejoin:miter;stroke-miterlimit:10;stroke-dasharray:none;stroke-opacity:1" />
  <path
     inkscape:connector-curvature="0"
     id="path10664"
     d="m 315.25,9913.75 v 0 m 0,0 h -3 m 0,0 v -6 m 0,0 h 3 m 0,0 v 6"
     style="fill:none;stroke:#ff0000;stroke-width:1.00699997;stroke-linecap:butt;stroke-linejoin:miter;stroke-miterlimit:10;stroke-dasharray:none;stroke-opacity:1" />
  <path
     inkscape:connector-curvature="0"
     id="path10666"
     d="m 315.25,9901.75 v 0 m 0,0 h -3 m 0,0 v -6 m 0,0 h 3 m 0,0 v 6"
     style="fill:none;stroke:#ff0000;stroke-width:1.00699997;stroke-linecap:butt;stroke-linejoin:miter;stroke-miterlimit:10;stroke-dasharray:none;stroke-opacity:1" />
  <path
     inkscape:connector-curvature="0"
     id="path10672"
     d="m 363.25,9925.75 v 0 m 0,0 h -3 m 0,0 v -6 m 0,0 h 3 m 0,0 v 6"
     style="fill:none;stroke:#ff0000;stroke-width:1.00699997;stroke-linecap:butt;stroke-linejoin:miter;stroke-miterlimit:10;stroke-dasharray:none;stroke-opacity:1" />
  <path
     inkscape:connector-curvature="0"
     id="path10674"
     d="m 363.25,9913.75 v 0 m 0,0 h -3 m 0,0 v -6 m 0,0 h 3 m 0,0 v 6"
     style="fill:none;stroke:#ff0000;stroke-width:1.00699997;stroke-linecap:butt;stroke-linejoin:miter;stroke-miterlimit:10;stroke-dasharray:none;stroke-opacity:1" />
  <path
     inkscape:connector-curvature="0"
     id="path10676"
     d="m 363.25,9901.75 v 0 m 0,0 h -3 m 0,0 v -6 m 0,0 h 3 m 0,0 v 6"
     style="fill:none;stroke:#ff0000;stroke-width:1.00699997;stroke-linecap:butt;stroke-linejoin:miter;stroke-miterlimit:10;stroke-dasharray:none;stroke-opacity:1" />
  <path
     style="fill:none;stroke:#ff0000;stroke-width:1.00699997;stroke-linecap:butt;stroke-linejoin:miter;stroke-miterlimit:10;stroke-dasharray:none;stroke-opacity:1"
     d="m 219.25018,9880.75 v 15.0001 h -3.00033 v 5.9997 h 3.00033 v 6.0001 h -3.00033 v 6.0002 h 3.00033 v 6.0001 h -3.00033 v 5.9997 h 3.00033 v 3.0003 2.9998 h 1.49965 v -2.9998 h 6.00015 v 2.9998 h 6.00015 v -2.9998 h 5.99964 v 2.9998 h 6.00014 v -2.9998 h 6.00016 v 2.9998 h 6.00015 v -2.9998 h 5.99963 v 2.9998 h 6.00014 v -2.9998 h 6.00017 v 2.9998 h 5.99963 v -2.9998 h 6.00015 v 2.9998 h 6.00014 v -2.9998 h 6.00017 v 2.9998 h 5.99961 v -2.9998 h 6.00017 v 2.9998 h 6.00014 v -2.9998 h 5.99964 v 2.9998 h 6.00014 v -2.9998 h 6.00016 v 2.9998 h 5.99962 v -2.9998 h 6.00016 v 2.9998 h 6.00015 v -2.9998 h 6.00014 v 2.9998 h 5.99964 v -2.9998 h 6.00016 v 2.9998 h 6.00015 v -2.9998 h 5.99963 v 2.9998 h 6.00015 v -2.9998 h 6.00016 v 2.9998 h 6.00014 v -2.9998 h 5.99964 v 2.9998 h 1.50016 v -2.9998 -3.0003 h 2.99982 v -5.9997 h -2.99982 v -6.0001 h 2.99982 v -6.0002 h -2.99982 v -6.0001 h 2.99982 v -5.9997 h -2.99982 V 9880.75 h -3.30522 c -0.10393,10.4019 -8.56335,18.7809 -18.96576,18.7854 -10.40342,0 -18.86439,-8.3825 -18.96835,-18.7854 h -10.06607 c -0.10393,10.4019 -8.56335,18.7812 -18.96576,18.7857 -10.40341,0 -18.86439,-8.3825 -18.96835,-18.7854 h -10.06604 c -0.10393,10.4017 -8.56306,18.7806 -18.96526,18.7854 -10.40341,0 -18.86439,-8.3825 -18.96835,-18.7854 h -10.06606 c -0.10393,10.4019 -8.56335,18.7809 -18.96576,18.7854 -10.40342,0 -18.86441,-8.3825 -18.96836,-18.7854 z"
     id="path10682"
     inkscape:connector-curvature="0"
     sodipodi:nodetypes="cccccccccccccccccccccccccccccccccccccccccccccccccccccccccccccccccccccccccccccccccccccccccccccccccccccccccccc" />
  <path
     style="fill:none;stroke:#ff0000;stroke-width:1.00699997;stroke-linecap:butt;stroke-linejoin:miter;stroke-miterlimit:10;stroke-dasharray:none;stroke-opacity:1"
     d="m 219.25018,9729.25 v 12 h -3.00033 v 6.0001 h 3.00033 v 5.9997 h -3.00033 v 6.0001 h 3.00033 v 6.0002 h -3.00033 v 6.0001 h 3.00033 v 2.9999 h 1.49965 v 2.9998 h 6.00015 v -2.9998 h 6.00015 v 2.9998 h 5.99964 v -2.9998 h 6.00014 v 2.9998 h 6.00016 v -2.9998 h 6.00015 v 2.9998 h 5.99963 v -2.9998 h 1.50017 v -30.0003 h 2.99981 v 30.0003 h 1.50016 v 2.9998 h 6.00017 v -2.9998 h 5.99963 v 2.9998 h 6.00015 v -2.9998 h 6.00014 v 2.9998 h 6.00017 v -2.9998 h 5.99961 v 2.9998 h 6.00017 v -2.9998 h 1.50016 v -30.0003 h 2.99982 v 30.0003 h 1.50016 v 2.9998 h 5.99964 v -2.9998 h 6.00014 v 2.9998 h 6.00016 v -2.9998 h 5.99962 v 2.9998 h 6.00016 v -2.9998 h 6.00015 v 2.9998 h 6.00014 v -2.9998 h 1.49966 v -30.0003 h 3.00034 v 30.0003 h 1.49964 v 2.9998 h 6.00016 v -2.9998 h 6.00015 v 2.9998 h 5.99963 v -2.9998 h 6.00015 v 2.9998 h 6.00016 v -2.9998 h 6.00014 v 2.9998 h 5.99964 v -2.9998 h 1.50016 v -2.9999 h 2.99982 v -6.0001 h -2.99982 v -6.0002 h 2.99982 v -6.0001 h -2.99982 v -5.9997 h 2.99982 v -6.0001 h -2.99982 v -12 l -3.30006,5e-4 c -0.0429,10.4476 -8.52329,18.8949 -18.97092,18.8971 -10.44826,0 -18.92956,-8.4489 -18.9725,-18.8971 h -10.05674 c -0.0429,10.4476 -8.52328,18.8949 -18.97094,18.8971 -10.44824,0 -18.92953,-8.4489 -18.97248,-18.8971 h -10.05675 c -0.0429,10.4474 -8.52297,18.8946 -18.97042,18.8971 -10.44826,0 -18.92956,-8.4489 -18.9725,-18.8971 h -10.05674 c -0.0429,10.4476 -8.52329,18.8949 -18.97093,18.8971 -10.44825,0 -18.92956,-8.4494 -18.97249,-18.8976 z"
     id="path10688"
     inkscape:connector-curvature="0"
     sodipodi:nodetypes="ccccccccccccccccccccccccccccccccccccccccccccccccccccccccccccccccccccccccccccccccccccccccccccccccccccccccccccccccccccc" />
  <path
     sodipodi:nodetypes="cccccccccccccccccccccccccccccccccccccccccccccccccccccccccccccccccccccccccccccccccccccccccccccccccccccccccccccccccccccccccccccc"
     inkscape:connector-curvature="0"
     id="path3284"
     d="m 5.3539486,9627.5583 v 11.9998 H 2.353615 v 6.0002 h 3.0003336 v 6.0001 H 2.353615 v 5.9997 h 3.0003336 v 6.0001 H 2.353615 v 6.0002 h 3.0003336 v 2.9998 H 9.228647 v 3.0003 h 6.000151 v -3.0003 h 6.00015 v 3.0003 h 5.999634 v -3.0003 h 6.00015 v 3.0003 h 6.000152 v -3.0003 h 6.000149 v 3.0003 h 5.999633 v -3.0003 h 3.875217 1.499651 1.500166 3.875215 v 3.0003 h 5.999633 v -3.0003 H 73.9787 v 3.0003 h 6.000149 v -3.0003 h 6.000152 v 3.0003 h 5.999634 v -3.0003 h 6.000145 v 3.0003 h 6.00016 v -3.0003 h 3.87469 1.50017 1.50017 3.8747 v 3.0003 h 6.00015 v -3.0003 h 6.00015 v 3.0003 h 5.99963 v -3.0003 h 6.00015 v 3.0003 h 6.00015 v -3.0003 h 5.99963 v 3.0003 h 6.00016 v -3.0003 h 3.87521 1.49965 1.50017 3.87522 v 3.0003 h 5.99963 v -3.0003 h 6.00015 v 3.0003 h 6.00015 v -3.0003 h 6.00015 v 3.0003 h 5.99963 v -3.0003 h 6.00015 v 3.0003 h 6.00015 v -3.0003 h 3.8747 v -2.9998 h 3.00034 v -6.0002 h -3.00034 v -6.0001 h 3.00034 v -5.9997 h -3.00034 v -6.0001 h 3.00034 v -6.0002 h -3.00034 v -11.9998 l -5.60534,-3e-4 c -0.10112,10.404 -8.56136,18.786 -18.96577,18.7906 -10.40521,0 -18.86671,-8.3858 -18.96783,-18.7906 h -6.21099 v 15.0005 h -2.99982 v -15.0005 h -5.60534 c -0.10112,10.404 -8.56136,18.786 -18.96577,18.7906 -10.40541,0 -18.86722,-8.3856 -18.96835,-18.7906 h -6.21047 v 15.0005 h -3.00034 v -15.0005 h -5.60534 c -0.10111,10.4037 -8.561045,18.7858 -18.96525,18.7906 -10.405414,0 -18.867223,-8.3856 -18.968349,-18.7906 H 58.1037 v 15.0005 h -2.999817 v -15.0002 l -5.605343,-2e-4 c -0.101118,10.4039 -8.561361,18.786 -18.965767,18.7905 -10.405414,0 -18.867223,-8.3856 -18.968351,-18.7906 z"
     style="fill:none;stroke:#ff0000;stroke-width:1.00699997;stroke-linecap:butt;stroke-linejoin:miter;stroke-miterlimit:10;stroke-dasharray:none;stroke-opacity:1" />
  <path
     style="fill:none;stroke:#ff0000;stroke-width:1.00699997;stroke-linecap:butt;stroke-linejoin:miter;stroke-miterlimit:10;stroke-dasharray:none;stroke-opacity:1"
     d="m 223.35433,9627.5583 v 11.9998 h -3.00034 v 6.0002 h 3.00034 v 6.0001 h -3.00034 v 5.9997 h 3.00034 v 6.0001 h -3.00034 v 6.0002 h 3.00034 v 2.9998 h 3.87469 v 3.0003 h 6.00016 v -3.0003 h 6.00015 v 3.0003 h 5.99963 v -3.0003 h 6.00015 v 3.0003 h 6.00015 v -3.0003 h 6.00015 v 3.0003 h 5.99963 v -3.0003 h 3.87522 1.49965 1.50017 3.87521 v 3.0003 h 5.99964 v -3.0003 h 6.00015 v 3.0003 h 6.00015 v -3.0003 h 6.00015 v 3.0003 h 5.99963 v -3.0003 h 6.00015 v 3.0003 h 6.00016 v -3.0003 h 3.87469 1.50017 1.50017 3.8747 v 3.0003 h 6.00015 v -3.0003 h 6.00015 v 3.0003 h 5.99963 v -3.0003 h 6.00015 v 3.0003 h 6.00015 v -3.0003 h 5.99963 v 3.0003 h 6.00016 v -3.0003 h 3.87521 1.49965 1.50017 3.87522 v 3.0003 h 5.99963 v -3.0003 h 6.00015 v 3.0003 h 6.00015 v -3.0003 h 6.00015 v 3.0003 h 5.99963 v -3.0003 h 6.00015 v 3.0003 h 6.00015 v -3.0003 h 3.8747 v -2.9998 h 3.00034 v -6.0002 h -3.00034 v -6.0001 h 3.00034 v -5.9997 h -3.00034 v -6.0001 h 3.00034 v -6.0002 h -3.00034 v -11.9998 l -5.60534,-3e-4 c -0.10112,10.404 -8.56136,18.786 -18.96577,18.7906 -10.40521,0 -18.86671,-8.3858 -18.96783,-18.7906 h -6.21099 v 15.0005 h -2.99982 v -15.0005 h -5.60534 c -0.10112,10.404 -8.56136,18.786 -18.96577,18.7906 -10.40541,0 -18.86722,-8.3856 -18.96835,-18.7906 h -6.21047 v 15.0005 h -3.00034 v -15.0005 h -5.60534 c -0.10111,10.4037 -8.56105,18.7858 -18.96525,18.7906 -10.40542,0 -18.86723,-8.3856 -18.96835,-18.7906 h -6.21099 v 15.0005 h -2.99982 v -15.0002 l -5.60534,-2e-4 c -0.10112,10.4039 -8.56136,18.786 -18.96577,18.7905 -10.40541,0 -18.86722,-8.3856 -18.96835,-18.7906 z"
     id="path3286"
     inkscape:connector-curvature="0"
     sodipodi:nodetypes="cccccccccccccccccccccccccccccccccccccccccccccccccccccccccccccccccccccccccccccccccccccccccccccccccccccccccccccccccccccccccccccc" />
  <path
     sodipodi:nodetypes="ccccccccccccccccccccccccccccccccccccccccccccccccccccccccccccccccccccccccccccccccccccccccccccccccccccccccccccccccccccc"
     inkscape:connector-curvature="0"
     id="path3288"
     d="m 219.25018,9779.25 v 12 h -3.00033 v 6.0001 h 3.00033 v 5.9997 h -3.00033 v 6.0001 h 3.00033 v 6.0002 h -3.00033 v 6.0001 h 3.00033 v 2.9999 h 1.49965 v 2.9998 h 6.00015 v -2.9998 h 6.00015 v 2.9998 h 5.99964 v -2.9998 h 6.00014 v 2.9998 h 6.00016 v -2.9998 h 6.00015 v 2.9998 h 5.99963 v -2.9998 h 1.50017 v -30.0003 h 2.99981 v 30.0003 h 1.50016 v 2.9998 h 6.00017 v -2.9998 h 5.99963 v 2.9998 h 6.00015 v -2.9998 h 6.00014 v 2.9998 h 6.00017 v -2.9998 h 5.99961 v 2.9998 h 6.00017 v -2.9998 h 1.50016 v -30.0003 h 2.99982 v 30.0003 h 1.50016 v 2.9998 h 5.99964 v -2.9998 h 6.00014 v 2.9998 h 6.00016 v -2.9998 h 5.99962 v 2.9998 h 6.00016 v -2.9998 h 6.00015 v 2.9998 h 6.00014 v -2.9998 h 1.49966 v -30.0003 h 3.00034 v 30.0003 h 1.49964 v 2.9998 h 6.00016 v -2.9998 h 6.00015 v 2.9998 h 5.99963 v -2.9998 h 6.00015 v 2.9998 h 6.00016 v -2.9998 h 6.00014 v 2.9998 h 5.99964 v -2.9998 h 1.50016 v -2.9999 h 2.99982 v -6.0001 h -2.99982 v -6.0002 h 2.99982 v -6.0001 h -2.99982 v -5.9997 h 2.99982 v -6.0001 h -2.99982 v -12 l -3.30006,5e-4 c -0.0429,10.4476 -8.52329,18.8949 -18.97092,18.8971 -10.44826,0 -18.92956,-8.4489 -18.9725,-18.8971 h -10.05674 c -0.0429,10.4476 -8.52328,18.8949 -18.97094,18.8971 -10.44824,0 -18.92953,-8.4489 -18.97248,-18.8971 h -10.05675 c -0.0429,10.4474 -8.52297,18.8946 -18.97042,18.8971 -10.44826,0 -18.92956,-8.4489 -18.9725,-18.8971 h -10.05674 c -0.0429,10.4476 -8.52329,18.8949 -18.97093,18.8971 -10.44825,0 -18.92956,-8.4494 -18.97249,-18.8976 z"
     style="fill:none;stroke:#ff0000;stroke-width:1.00699997;stroke-linecap:butt;stroke-linejoin:miter;stroke-miterlimit:10;stroke-dasharray:none;stroke-opacity:1" />
  <path
     style="fill:none;stroke:#ff0000;stroke-width:1.00699997;stroke-linecap:butt;stroke-linejoin:miter;stroke-miterlimit:10;stroke-dasharray:none;stroke-opacity:1"
     d="m 219.25018,9829.25 v 12 h -3.00033 v 6.0001 h 3.00033 v 5.9997 h -3.00033 v 6.0001 h 3.00033 v 6.0002 h -3.00033 v 6.0001 h 3.00033 v 2.9999 h 1.49965 v 2.9998 h 6.00015 v -2.9998 h 6.00015 v 2.9998 h 5.99964 v -2.9998 h 6.00014 v 2.9998 h 6.00016 v -2.9998 h 6.00015 v 2.9998 h 5.99963 v -2.9998 h 1.50017 v -30.0003 h 2.99981 v 30.0003 h 1.50016 v 2.9998 h 6.00017 v -2.9998 h 5.99963 v 2.9998 h 6.00015 v -2.9998 h 6.00014 v 2.9998 h 6.00017 v -2.9998 h 5.99961 v 2.9998 h 6.00017 v -2.9998 h 1.50016 v -30.0003 h 2.99982 v 30.0003 h 1.50016 v 2.9998 h 5.99964 v -2.9998 h 6.00014 v 2.9998 h 6.00016 v -2.9998 h 5.99962 v 2.9998 h 6.00016 v -2.9998 h 6.00015 v 2.9998 h 6.00014 v -2.9998 h 1.49966 v -30.0003 h 3.00034 v 30.0003 h 1.49964 v 2.9998 h 6.00016 v -2.9998 h 6.00015 v 2.9998 h 5.99963 v -2.9998 h 6.00015 v 2.9998 h 6.00016 v -2.9998 h 6.00014 v 2.9998 h 5.99964 v -2.9998 h 1.50016 v -2.9999 h 2.99982 v -6.0001 h -2.99982 v -6.0002 h 2.99982 v -6.0001 h -2.99982 v -5.9997 h 2.99982 v -6.0001 h -2.99982 v -12 l -3.30006,5e-4 c -0.0429,10.4476 -8.52329,18.8949 -18.97092,18.8971 -10.44826,0 -18.92956,-8.4489 -18.9725,-18.8971 h -10.05674 c -0.0429,10.4476 -8.52328,18.8949 -18.97094,18.8971 -10.44824,0 -18.92953,-8.4489 -18.97248,-18.8971 h -10.05675 c -0.0429,10.4474 -8.52297,18.8946 -18.97042,18.8971 -10.44826,0 -18.92956,-8.4489 -18.9725,-18.8971 h -10.05674 c -0.0429,10.4476 -8.52329,18.8949 -18.97093,18.8971 -10.44825,0 -18.92956,-8.4494 -18.97249,-18.8976 z"
     id="path3290"
     inkscape:connector-curvature="0"
     sodipodi:nodetypes="ccccccccccccccccccccccccccccccccccccccccccccccccccccccccccccccccccccccccccccccccccccccccccccccccccccccccccccccccccccc" />
  <path
     style="fill:none;stroke:#ff0000;stroke-width:1.00699997;stroke-linecap:butt;stroke-linejoin:miter;stroke-miterlimit:10;stroke-dasharray:none;stroke-opacity:1"
     d="m 56.5,9978.75 v 0 m 0,0 h -3 m 0,0 v -6 m 0,0 h 3 m 0,0 v 6"
     id="path3292"
     inkscape:connector-curvature="0" />
  <path
     style="fill:none;stroke:#ff0000;stroke-width:1.00699997;stroke-linecap:butt;stroke-linejoin:miter;stroke-miterlimit:10;stroke-dasharray:none;stroke-opacity:1"
     d="m 56.5,9966.75 v 0 m 0,0 h -3 m 0,0 v -6 m 0,0 h 3 m 0,0 v 6"
     id="path3294"
     inkscape:connector-curvature="0" />
  <path
     style="fill:none;stroke:#ff0000;stroke-width:1.00699997;stroke-linecap:butt;stroke-linejoin:miter;stroke-miterlimit:10;stroke-dasharray:none;stroke-opacity:1"
     d="m 56.5,9954.75 v 0 m 0,0 h -3 m 0,0 v -6 m 0,0 h 3 m 0,0 v 6"
     id="path3296"
     inkscape:connector-curvature="0" />
  <path
     style="fill:none;stroke:#ff0000;stroke-width:1.00699997;stroke-linecap:butt;stroke-linejoin:miter;stroke-miterlimit:10;stroke-dasharray:none;stroke-opacity:1"
     d="m 109.25,9978.75 v 0 m 0,0 h -3 m 0,0 v -6 m 0,0 h 3 m 0,0 v 6"
     id="path3298"
     inkscape:connector-curvature="0" />
  <path
     style="fill:none;stroke:#ff0000;stroke-width:1.00699997;stroke-linecap:butt;stroke-linejoin:miter;stroke-miterlimit:10;stroke-dasharray:none;stroke-opacity:1"
     d="m 109.25,9966.75 v 0 m 0,0 h -3 m 0,0 v -6 m 0,0 h 3 m 0,0 v 6"
     id="path3300"
     inkscape:connector-curvature="0" />
  <path
     style="fill:none;stroke:#ff0000;stroke-width:1.00699997;stroke-linecap:butt;stroke-linejoin:miter;stroke-miterlimit:10;stroke-dasharray:none;stroke-opacity:1"
     d="m 109.25,9954.75 v 0 m 0,0 h -3 m 0,0 v -6 m 0,0 h 3 m 0,0 v 6"
     id="path3302"
     inkscape:connector-curvature="0" />
  <path
     style="fill:none;stroke:#ff0000;stroke-width:1.00699997;stroke-linecap:butt;stroke-linejoin:miter;stroke-miterlimit:10;stroke-dasharray:none;stroke-opacity:1"
     d="m 162,9978.75 v 0 m 0,0 h -3 m 0,0 v -6 m 0,0 h 3 m 0,0 v 6"
     id="path3304"
     inkscape:connector-curvature="0" />
  <path
     style="fill:none;stroke:#ff0000;stroke-width:1.00699997;stroke-linecap:butt;stroke-linejoin:miter;stroke-miterlimit:10;stroke-dasharray:none;stroke-opacity:1"
     d="m 162,9966.75 v 0 m 0,0 h -3 m 0,0 v -6 m 0,0 h 3 m 0,0 v 6"
     id="path3306"
     inkscape:connector-curvature="0" />
  <path
     style="fill:none;stroke:#ff0000;stroke-width:1.00699997;stroke-linecap:butt;stroke-linejoin:miter;stroke-miterlimit:10;stroke-dasharray:none;stroke-opacity:1"
     d="m 162,9954.75 v 0 m 0,0 h -3 m 0,0 v -6 m 0,0 h 3 m 0,0 v 6"
     id="path3308"
     inkscape:connector-curvature="0" />
  <path
     sodipodi:nodetypes="ccccccccccccccccccccccccccccccccccccccccccccccccccccccccccccccccccccccccccccccccccccccccccccccccccccccccccccccccc"
     inkscape:connector-curvature="0"
     id="path3310"
     d="m 0.74982503,9933.75 v 15.0001 H 3.7501586 v 5.9997 H 0.74982503 v 6.0001 H 3.7501586 v 6.0002 H 0.74982503 v 6.0001 H 3.7501586 v 5.9997 H 0.74982503 v 3.0003 2.9998 H 3.7501586 8.7498533 v -2.9998 h 6.0001507 v 2.9998 h 6.00015 v -2.9998 h 5.999633 v 2.9998 h 6.000152 v -2.9998 h 6.00015 v 2.9998 h 6.000152 v -2.9998 h 5.999633 v 2.9998 h 6.000149 v -2.9998 h 6.000152 v 2.9998 h 5.999634 v -2.9998 h 6.000149 v 2.9998 h 6.000152 v -2.9998 h 5.999633 v 2.9998 h 6.00015 v -2.9998 h 6.000152 v 2.9998 h 6.000145 v -2.9998 h 5.99964 v 2.9998 h 6.00015 v -2.9998 h 6.00015 v 2.9998 h 5.99963 v -2.9998 h 6.00015 v 2.9998 h 6.00015 v -2.9998 h 6.00015 v 2.9998 h 5.99964 v -2.9998 H 158.75 v 2.9998 h 6.00015 v -2.9998 h 5.99963 v 2.9998 h 6.00015 v -2.9998 h 6.00015 v 2.9998 h 6.00015 v -2.9998 h 5.99964 v 2.9998 h 6.00015 v -2.9998 h 6.00015 v 2.9998 h 4.99969 3.00034 v -2.9998 -3.0003 h -3.00034 v -5.9997 h 3.00034 v -6.0001 h -3.00034 v -6.0002 h 3.00034 v -6.0001 h -3.00034 v -5.9997 h 3.00034 V 9933.75 l -8.61085,-10e-5 c -0.15771,10.361 -8.59836,18.6795 -18.9606,18.6862 -10.36365,0 -18.80648,-8.3237 -18.96421,-18.6861 l -14.82494,-10e-5 c -0.15771,10.361 -8.59836,18.6795 -18.9606,18.6862 -10.36385,0 -18.80699,-8.3235 -18.96473,-18.6862 h -14.82494 c -0.15771,10.3609 -8.598039,18.6792 -18.96008,18.6862 -10.363851,0 -18.806993,-8.3235 -18.964733,-18.6862 H 47.889583 c -0.157713,10.361 -8.598358,18.6795 -18.9606,18.6862 -10.36385,0 -18.806996,-8.3235 -18.9647335,-18.6862 z"
     style="fill:none;stroke:#ff0000;stroke-width:1.00699997;stroke-linecap:butt;stroke-linejoin:miter;stroke-miterlimit:10;stroke-dasharray:none;stroke-opacity:1" />
  <path
     style="fill:none;stroke:#ff0000;stroke-width:1.00699997;stroke-linecap:butt;stroke-linejoin:miter;stroke-miterlimit:10;stroke-dasharray:none;stroke-opacity:1"
     d="m 267.25,9978.75 v 0 m 0,0 h -3 m 0,0 v -6 m 0,0 h 3 m 0,0 v 6"
     id="path3312"
     inkscape:connector-curvature="0" />
  <path
     style="fill:none;stroke:#ff0000;stroke-width:1.00699997;stroke-linecap:butt;stroke-linejoin:miter;stroke-miterlimit:10;stroke-dasharray:none;stroke-opacity:1"
     d="m 267.25,9966.75 v 0 m 0,0 h -3 m 0,0 v -6 m 0,0 h 3 m 0,0 v 6"
     id="path3314"
     inkscape:connector-curvature="0" />
  <path
     style="fill:none;stroke:#ff0000;stroke-width:1.00699997;stroke-linecap:butt;stroke-linejoin:miter;stroke-miterlimit:10;stroke-dasharray:none;stroke-opacity:1"
     d="m 267.25,9954.75 v 0 m 0,0 h -3 m 0,0 v -6 m 0,0 h 3 m 0,0 v 6"
     id="path3316"
     inkscape:connector-curvature="0" />
  <path
     style="fill:none;stroke:#ff0000;stroke-width:1.00699997;stroke-linecap:butt;stroke-linejoin:miter;stroke-miterlimit:10;stroke-dasharray:none;stroke-opacity:1"
     d="m 315.25,9978.75 v 0 m 0,0 h -3 m 0,0 v -6 m 0,0 h 3 m 0,0 v 6"
     id="path3318"
     inkscape:connector-curvature="0" />
  <path
     style="fill:none;stroke:#ff0000;stroke-width:1.00699997;stroke-linecap:butt;stroke-linejoin:miter;stroke-miterlimit:10;stroke-dasharray:none;stroke-opacity:1"
     d="m 315.25,9966.75 v 0 m 0,0 h -3 m 0,0 v -6 m 0,0 h 3 m 0,0 v 6"
     id="path3320"
     inkscape:connector-curvature="0" />
  <path
     style="fill:none;stroke:#ff0000;stroke-width:1.00699997;stroke-linecap:butt;stroke-linejoin:miter;stroke-miterlimit:10;stroke-dasharray:none;stroke-opacity:1"
     d="m 315.25,9954.75 v 0 m 0,0 h -3 m 0,0 v -6 m 0,0 h 3 m 0,0 v 6"
     id="path3322"
     inkscape:connector-curvature="0" />
  <path
     style="fill:none;stroke:#ff0000;stroke-width:1.00699997;stroke-linecap:butt;stroke-linejoin:miter;stroke-miterlimit:10;stroke-dasharray:none;stroke-opacity:1"
     d="m 363.25,9978.75 v 0 m 0,0 h -3 m 0,0 v -6 m 0,0 h 3 m 0,0 v 6"
     id="path3324"
     inkscape:connector-curvature="0" />
  <path
     style="fill:none;stroke:#ff0000;stroke-width:1.00699997;stroke-linecap:butt;stroke-linejoin:miter;stroke-miterlimit:10;stroke-dasharray:none;stroke-opacity:1"
     d="m 363.25,9966.75 v 0 m 0,0 h -3 m 0,0 v -6 m 0,0 h 3 m 0,0 v 6"
     id="path3326"
     inkscape:connector-curvature="0" />
  <path
     style="fill:none;stroke:#ff0000;stroke-width:1.00699997;stroke-linecap:butt;stroke-linejoin:miter;stroke-miterlimit:10;stroke-dasharray:none;stroke-opacity:1"
     d="m 363.25,9954.75 v 0 m 0,0 h -3 m 0,0 v -6 m 0,0 h 3 m 0,0 v 6"
     id="path3328"
     inkscape:connector-curvature="0" />
  <path
     sodipodi:nodetypes="cccccccccccccccccccccccccccccccccccccccccccccccccccccccccccccccccccccccccccccccccccccccccccccccccccccccccccc"
     inkscape:connector-curvature="0"
     id="path3330"
     d="m 219.25018,9933.75 v 15.0001 h -3.00033 v 5.9997 h 3.00033 v 6.0001 h -3.00033 v 6.0002 h 3.00033 v 6.0001 h -3.00033 v 5.9997 h 3.00033 v 3.0003 2.9998 h 1.49965 v -2.9998 h 6.00015 v 2.9998 h 6.00015 v -2.9998 h 5.99964 v 2.9998 h 6.00014 v -2.9998 h 6.00016 v 2.9998 h 6.00015 v -2.9998 h 5.99963 v 2.9998 h 6.00014 v -2.9998 h 6.00017 v 2.9998 h 5.99963 v -2.9998 h 6.00015 v 2.9998 h 6.00014 v -2.9998 h 6.00017 v 2.9998 h 5.99961 v -2.9998 h 6.00017 v 2.9998 h 6.00014 v -2.9998 h 5.99964 v 2.9998 h 6.00014 v -2.9998 h 6.00016 v 2.9998 h 5.99962 v -2.9998 h 6.00016 v 2.9998 h 6.00015 v -2.9998 h 6.00014 v 2.9998 h 5.99964 v -2.9998 h 6.00016 v 2.9998 h 6.00015 v -2.9998 h 5.99963 v 2.9998 h 6.00015 v -2.9998 h 6.00016 v 2.9998 h 6.00014 v -2.9998 h 5.99964 v 2.9998 h 1.50016 v -2.9998 -3.0003 h 2.99982 v -5.9997 h -2.99982 v -6.0001 h 2.99982 v -6.0002 h -2.99982 v -6.0001 h 2.99982 v -5.9997 h -2.99982 V 9933.75 h -3.30522 c -0.10393,10.4019 -8.56335,18.7809 -18.96576,18.7854 -10.40342,0 -18.86439,-8.3825 -18.96835,-18.7854 h -10.06607 c -0.10393,10.4019 -8.56335,18.7812 -18.96576,18.7857 -10.40341,0 -18.86439,-8.3825 -18.96835,-18.7854 h -10.06604 c -0.10393,10.4017 -8.56306,18.7806 -18.96526,18.7854 -10.40341,0 -18.86439,-8.3825 -18.96835,-18.7854 h -10.06606 c -0.10393,10.4019 -8.56335,18.7809 -18.96576,18.7854 -10.40342,0 -18.86441,-8.3825 -18.96836,-18.7854 z"
     style="fill:none;stroke:#ff0000;stroke-width:1.00699997;stroke-linecap:butt;stroke-linejoin:miter;stroke-miterlimit:10;stroke-dasharray:none;stroke-opacity:1" />
</svg>
