<?xml version="1.0" encoding="UTF-8" standalone="no"?>
<svg
   xmlns:dc="http://purl.org/dc/elements/1.1/"
   xmlns:cc="http://creativecommons.org/ns#"
   xmlns:rdf="http://www.w3.org/1999/02/22-rdf-syntax-ns#"
   xmlns:svg="http://www.w3.org/2000/svg"
   xmlns="http://www.w3.org/2000/svg"
   xmlns:sodipodi="http://sodipodi.sourceforge.net/DTD/sodipodi-0.dtd"
   xmlns:inkscape="http://www.inkscape.org/namespaces/inkscape"
   width="270mm"
   height="330mm"
   viewBox="0 9670 270 330"
   version="1.1"
   id="svg2731"
   sodipodi:docname="2 st monster.svg"
   inkscape:version="0.91 r13725">
  <metadata
     id="metadata2737">
    <rdf:RDF>
      <cc:Work
         rdf:about="">
        <dc:format>image/svg+xml</dc:format>
        <dc:type
           rdf:resource="http://purl.org/dc/dcmitype/StillImage" />
      </cc:Work>
    </rdf:RDF>
  </metadata>
  <defs
     id="defs2735" />
  <sodipodi:namedview
     pagecolor="#ffffff"
     bordercolor="#666666"
     borderopacity="1"
     objecttolerance="10"
     gridtolerance="10"
     guidetolerance="10"
     inkscape:pageopacity="0"
     inkscape:pageshadow="2"
     inkscape:window-width="1366"
     inkscape:window-height="705"
     id="namedview2733"
     showgrid="false"
     inkscape:zoom="1"
     inkscape:cx="468.94498"
     inkscape:cy="483.622"
     inkscape:window-x="-8"
     inkscape:window-y="-8"
     inkscape:window-maximized="1"
     inkscape:current-layer="svg2731" />
  <path
     inkscape:connector-curvature="0"
     id="path2672"
     d="m 88.75,9990.75 v 0 m 0,0 h -3 m 0,0 v -6 m 0,0 h 3 m 0,0 v 6"
     style="fill:none;stroke:#ff0000;stroke-width:1.00699997;stroke-linecap:butt;stroke-linejoin:miter;stroke-miterlimit:10;stroke-opacity:1;stroke-dasharray:none" />
  <path
     inkscape:connector-curvature="0"
     id="path2674"
     d="m 88.75,9978.75 v 0 m 0,0 h -3 m 0,0 v -6 m 0,0 h 3 m 0,0 v 6"
     style="fill:none;stroke:#ff0000;stroke-width:1.00699997;stroke-linecap:butt;stroke-linejoin:miter;stroke-miterlimit:10;stroke-opacity:1;stroke-dasharray:none" />
  <path
     inkscape:connector-curvature="0"
     id="path2676"
     d="m 88.75,9966.75 v 0 m 0,0 h -3 m 0,0 v -6 m 0,0 h 3 m 0,0 v 6"
     style="fill:none;stroke:#ff0000;stroke-width:1.00699997;stroke-linecap:butt;stroke-linejoin:miter;stroke-miterlimit:10;stroke-opacity:1;stroke-dasharray:none" />
  <path
     inkscape:connector-curvature="0"
     id="path2678"
     d="m 88.75,9954.75 v 0 m 0,0 h -3 m 0,0 v -6 m 0,0 h 3 m 0,0 v 6"
     style="fill:none;stroke:#ff0000;stroke-width:1.00699997;stroke-linecap:butt;stroke-linejoin:miter;stroke-miterlimit:10;stroke-opacity:1;stroke-dasharray:none" />
  <path
     inkscape:connector-curvature="0"
     id="path2680"
     d="m 88.75,9942.75 v 0 m 0,0 h -3 m 0,0 v -6 m 0,0 h 3 m 0,0 v 6"
     style="fill:none;stroke:#ff0000;stroke-width:1.00699997;stroke-linecap:butt;stroke-linejoin:miter;stroke-miterlimit:10;stroke-opacity:1;stroke-dasharray:none" />
  <path
     inkscape:connector-curvature="0"
     id="path2682"
     d="m 88.75,9930.75 v 0 m 0,0 h -3 m 0,0 v -6 m 0,0 h 3 m 0,0 v 6"
     style="fill:none;stroke:#ff0000;stroke-width:1.00699997;stroke-linecap:butt;stroke-linejoin:miter;stroke-miterlimit:10;stroke-opacity:1;stroke-dasharray:none" />
  <path
     inkscape:connector-curvature="0"
     id="path2684"
     d="m 88.75,9918.75 v 0 m 0,0 h -3 m 0,0 v -6 m 0,0 h 3 m 0,0 v 6"
     style="fill:none;stroke:#ff0000;stroke-width:1.00699997;stroke-linecap:butt;stroke-linejoin:miter;stroke-miterlimit:10;stroke-opacity:1;stroke-dasharray:none" />
  <path
     inkscape:connector-curvature="0"
     id="path2686"
     d="m 88.75,9906.75 v 0 m 0,0 h -3 m 0,0 v -6 m 0,0 h 3 m 0,0 v 6"
     style="fill:none;stroke:#ff0000;stroke-width:1.00699997;stroke-linecap:butt;stroke-linejoin:miter;stroke-miterlimit:10;stroke-opacity:1;stroke-dasharray:none" />
  <path
     style="fill:none;stroke:#ff0000;stroke-width:3.8059842;stroke-linecap:butt;stroke-linejoin:miter;stroke-miterlimit:10;stroke-opacity:1;stroke-dasharray:none"
     d="M 2.8339844 851.33789 L 2.8339844 872.12695 L 14.173828 872.12695 L 14.173828 894.80273 L 2.8339844 894.80273 L 2.8339844 917.48047 L 14.173828 917.48047 L 14.173828 940.1582 L 2.8339844 940.1582 L 2.8339844 962.83398 L 14.173828 962.83398 L 14.173828 985.51172 L 2.8339844 985.51172 L 2.8339844 1008.1895 L 14.173828 1008.1895 L 14.173828 1030.8652 L 2.8339844 1030.8652 L 2.8339844 1053.543 L 14.173828 1053.543 L 14.173828 1076.2207 L 2.8339844 1076.2207 L 2.8339844 1098.8984 L 14.173828 1098.8984 L 14.173828 1121.5742 L 2.8339844 1121.5742 L 2.8339844 1144.252 L 14.173828 1144.252 L 14.173828 1166.9297 L 2.8339844 1166.9297 L 2.8339844 1189.6055 L 14.173828 1189.6055 L 14.173828 1212.2832 L 2.8339844 1212.2832 L 2.8339844 1233.0703 L 2.8339844 1244.4102 L 14.173828 1244.4102 L 23.621094 1244.4102 L 23.621094 1233.0703 L 46.298828 1233.0703 L 46.298828 1244.4102 L 68.976562 1244.4102 L 68.976562 1233.0703 L 91.654297 1233.0703 L 91.654297 1244.4102 L 114.33008 1244.4102 L 114.33008 1233.0703 L 137.00781 1233.0703 L 137.00781 1244.4102 L 159.68555 1244.4102 L 159.68555 1233.0703 L 182.36133 1233.0703 L 182.36133 1244.4102 L 205.03906 1244.4102 L 205.03906 1233.0703 L 227.7168 1233.0703 L 227.7168 1244.4102 L 250.39453 1244.4102 L 250.39453 1233.0703 L 273.07031 1233.0703 L 273.07031 1244.4102 L 295.74805 1244.4102 L 295.74805 1233.0703 L 318.42578 1233.0703 L 318.42578 1244.4102 L 341.10156 1244.4102 L 341.10156 1233.0703 L 363.7793 1233.0703 L 363.7793 1244.4102 L 386.45703 1244.4102 L 386.45703 1233.0703 L 409.13477 1233.0703 L 409.13477 1244.4102 L 431.81055 1244.4102 L 431.81055 1233.0703 L 454.48828 1233.0703 L 454.48828 1244.4102 L 477.16602 1244.4102 L 477.16602 1233.0703 L 499.8418 1233.0703 L 499.8418 1244.4102 L 522.51953 1244.4102 L 522.51953 1233.0703 L 545.19727 1233.0703 L 545.19727 1244.4102 L 567.87305 1244.4102 L 567.87305 1233.0703 L 590.55078 1233.0703 L 590.55078 1244.4102 L 613.22852 1244.4102 L 613.22852 1233.0703 L 635.90625 1233.0703 L 635.90625 1244.4102 L 645.35352 1244.4102 L 656.69336 1244.4102 L 656.69336 1233.0703 L 656.69336 1212.2832 L 645.35352 1212.2832 L 645.35352 1189.6055 L 656.69336 1189.6055 L 656.69336 1166.9297 L 645.35352 1166.9297 L 645.35352 1144.252 L 656.69336 1144.252 L 656.69336 1121.5742 L 645.35352 1121.5742 L 645.35352 1098.8984 L 656.69336 1098.8984 L 656.69336 1076.2207 L 645.35352 1076.2207 L 645.35352 1053.543 L 656.69336 1053.543 L 656.69336 1030.8652 L 645.35352 1030.8652 L 645.35352 1008.1895 L 656.69336 1008.1895 L 656.69336 985.51172 L 645.35352 985.51172 L 645.35352 962.83398 L 656.69336 962.83398 L 656.69336 940.1582 L 645.35352 940.1582 L 645.35352 917.48047 L 656.69336 917.48047 L 656.69336 894.80273 L 645.35352 894.80273 L 645.35352 872.12695 L 656.69336 872.12695 L 656.69336 851.33789 L 645.35352 851.33789 L 610.38672 851.33789 A 122.74015 122.74015 0 0 1 487.75586 971.89062 A 122.74015 122.74015 0 0 1 365.09375 851.33789 L 289.12695 851.33789 A 122.74015 122.74015 0 0 1 166.49609 971.89062 A 122.74015 122.74015 0 0 1 43.833984 851.33789 L 14.173828 851.33789 L 2.8339844 851.33789 z "
     transform="matrix(0.26458333,0,0,0.26458333,0,9670)"
     id="path2688" />
  <path
     inkscape:connector-curvature="0"
     id="path2690"
     d="m 88.75,9885.25 v 0 m 0,0 h -3 m 0,0 v -6 m 0,0 h 3 m 0,0 v 6"
     style="fill:none;stroke:#ff0000;stroke-width:1.00699997;stroke-linecap:butt;stroke-linejoin:miter;stroke-miterlimit:10;stroke-opacity:1;stroke-dasharray:none" />
  <path
     inkscape:connector-curvature="0"
     id="path2692"
     d="m 88.75,9873.25 v 0 m 0,0 h -3 m 0,0 v -6 m 0,0 h 3 m 0,0 v 6"
     style="fill:none;stroke:#ff0000;stroke-width:1.00699997;stroke-linecap:butt;stroke-linejoin:miter;stroke-miterlimit:10;stroke-opacity:1;stroke-dasharray:none" />
  <path
     inkscape:connector-curvature="0"
     id="path2694"
     d="m 88.75,9861.25 v 0 m 0,0 h -3 m 0,0 v -6 m 0,0 h 3 m 0,0 v 6"
     style="fill:none;stroke:#ff0000;stroke-width:1.00699997;stroke-linecap:butt;stroke-linejoin:miter;stroke-miterlimit:10;stroke-opacity:1;stroke-dasharray:none" />
  <path
     inkscape:connector-curvature="0"
     id="path2696"
     d="m 88.75,9849.25 v 0 m 0,0 h -3 m 0,0 v -6 m 0,0 h 3 m 0,0 v 6"
     style="fill:none;stroke:#ff0000;stroke-width:1.00699997;stroke-linecap:butt;stroke-linejoin:miter;stroke-miterlimit:10;stroke-opacity:1;stroke-dasharray:none" />
  <path
     inkscape:connector-curvature="0"
     id="path2698"
     d="m 88.75,9837.25 v 0 m 0,0 h -3 m 0,0 v -6 m 0,0 h 3 m 0,0 v 6"
     style="fill:none;stroke:#ff0000;stroke-width:1.00699997;stroke-linecap:butt;stroke-linejoin:miter;stroke-miterlimit:10;stroke-opacity:1;stroke-dasharray:none" />
  <path
     inkscape:connector-curvature="0"
     id="path2700"
     d="m 88.75,9825.25 v 0 m 0,0 h -3 m 0,0 v -6 m 0,0 h 3 m 0,0 v 6"
     style="fill:none;stroke:#ff0000;stroke-width:1.00699997;stroke-linecap:butt;stroke-linejoin:miter;stroke-miterlimit:10;stroke-opacity:1;stroke-dasharray:none" />
  <path
     inkscape:connector-curvature="0"
     id="path2702"
     d="m 88.75,9813.25 v 0 m 0,0 h -3 m 0,0 v -6 m 0,0 h 3 m 0,0 v 6"
     style="fill:none;stroke:#ff0000;stroke-width:1.00699997;stroke-linecap:butt;stroke-linejoin:miter;stroke-miterlimit:10;stroke-opacity:1;stroke-dasharray:none" />
  <path
     inkscape:connector-curvature="0"
     id="path2704"
     d="m 88.75,9801.25 v 0 m 0,0 h -3 m 0,0 v -6 m 0,0 h 3 m 0,0 v 6"
     style="fill:none;stroke:#ff0000;stroke-width:1.00699997;stroke-linecap:butt;stroke-linejoin:miter;stroke-miterlimit:10;stroke-opacity:1;stroke-dasharray:none" />
  <path
     style="fill:none;stroke:#ff0000;stroke-width:3.8059842;stroke-linecap:butt;stroke-linejoin:miter;stroke-miterlimit:10;stroke-opacity:1;stroke-dasharray:none"
     d="M 2.8339844 452.59766 L 2.8339844 473.38672 L 14.173828 473.38672 L 14.173828 496.0625 L 2.8339844 496.0625 L 2.8339844 518.74023 L 14.173828 518.74023 L 14.173828 541.41797 L 2.8339844 541.41797 L 2.8339844 564.09375 L 14.173828 564.09375 L 14.173828 586.77148 L 2.8339844 586.77148 L 2.8339844 609.44922 L 14.173828 609.44922 L 14.173828 632.12695 L 2.8339844 632.12695 L 2.8339844 654.80273 L 14.173828 654.80273 L 14.173828 677.48047 L 2.8339844 677.48047 L 2.8339844 700.1582 L 14.173828 700.1582 L 14.173828 722.83398 L 2.8339844 722.83398 L 2.8339844 745.51172 L 14.173828 745.51172 L 14.173828 768.18945 L 2.8339844 768.18945 L 2.8339844 790.86523 L 14.173828 790.86523 L 14.173828 813.54297 L 2.8339844 813.54297 L 2.8339844 834.33008 L 2.8339844 845.66992 L 14.173828 845.66992 L 23.621094 845.66992 L 23.621094 834.33008 L 46.298828 834.33008 L 46.298828 845.66992 L 68.976562 845.66992 L 68.976562 834.33008 L 91.654297 834.33008 L 91.654297 845.66992 L 114.33008 845.66992 L 114.33008 834.33008 L 137.00781 834.33008 L 137.00781 845.66992 L 159.68555 845.66992 L 159.68555 834.33008 L 182.36133 834.33008 L 182.36133 845.66992 L 205.03906 845.66992 L 205.03906 834.33008 L 227.7168 834.33008 L 227.7168 845.66992 L 250.39453 845.66992 L 250.39453 834.33008 L 273.07031 834.33008 L 273.07031 845.66992 L 295.74805 845.66992 L 295.74805 834.33008 L 318.42578 834.33008 L 318.42578 845.66992 L 341.10156 845.66992 L 341.10156 834.33008 L 363.7793 834.33008 L 363.7793 845.66992 L 386.45703 845.66992 L 386.45703 834.33008 L 409.13477 834.33008 L 409.13477 845.66992 L 431.81055 845.66992 L 431.81055 834.33008 L 454.48828 834.33008 L 454.48828 845.66992 L 477.16602 845.66992 L 477.16602 834.33008 L 499.8418 834.33008 L 499.8418 845.66992 L 522.51953 845.66992 L 522.51953 834.33008 L 545.19727 834.33008 L 545.19727 845.66992 L 567.87305 845.66992 L 567.87305 834.33008 L 590.55078 834.33008 L 590.55078 845.66992 L 613.22852 845.66992 L 613.22852 834.33008 L 635.90625 834.33008 L 635.90625 845.66992 L 645.35352 845.66992 L 656.69336 845.66992 L 656.69336 834.33008 L 656.69336 813.54297 L 645.35352 813.54297 L 645.35352 790.86523 L 656.69336 790.86523 L 656.69336 768.18945 L 645.35352 768.18945 L 645.35352 745.51172 L 656.69336 745.51172 L 656.69336 722.83398 L 645.35352 722.83398 L 645.35352 700.1582 L 656.69336 700.1582 L 656.69336 677.48047 L 645.35352 677.48047 L 645.35352 654.80273 L 656.69336 654.80273 L 656.69336 632.12695 L 645.35352 632.12695 L 645.35352 609.44922 L 656.69336 609.44922 L 656.69336 586.77148 L 645.35352 586.77148 L 645.35352 564.09375 L 656.69336 564.09375 L 656.69336 541.41797 L 645.35352 541.41797 L 645.35352 518.74023 L 656.69336 518.74023 L 656.69336 496.0625 L 645.35352 496.0625 L 645.35352 473.38672 L 656.69336 473.38672 L 656.69336 452.59766 L 645.35352 452.59766 L 610.44336 452.59766 A 122.74015 122.74015 0 0 1 487.75586 574.2832 A 122.74015 122.74015 0 0 1 365.05273 452.59766 L 289.18359 452.59766 A 122.74015 122.74015 0 0 1 166.49609 574.2832 A 122.74015 122.74015 0 0 1 43.792969 452.59766 L 14.173828 452.59766 L 2.8339844 452.59766 z "
     transform="matrix(0.26458333,0,0,0.26458333,0,9670)"
     id="path2706" />
  <path
     inkscape:connector-curvature="0"
     id="path2708"
     d="m 88.75,9782.25 v 0 m 0,0 h -3 m 0,0 v -6 m 0,0 h 3 m 0,0 v 6"
     style="fill:none;stroke:#ff0000;stroke-width:1.00699997;stroke-linecap:butt;stroke-linejoin:miter;stroke-miterlimit:10;stroke-opacity:1;stroke-dasharray:none" />
  <path
     inkscape:connector-curvature="0"
     id="path2710"
     d="m 88.75,9770.25 v 0 m 0,0 h -3 m 0,0 v -6 m 0,0 h 3 m 0,0 v 6"
     style="fill:none;stroke:#ff0000;stroke-width:1.00699997;stroke-linecap:butt;stroke-linejoin:miter;stroke-miterlimit:10;stroke-opacity:1;stroke-dasharray:none" />
  <path
     inkscape:connector-curvature="0"
     id="path2712"
     d="m 88.75,9758.25 v 0 m 0,0 h -3 m 0,0 v -6 m 0,0 h 3 m 0,0 v 6"
     style="fill:none;stroke:#ff0000;stroke-width:1.00699997;stroke-linecap:butt;stroke-linejoin:miter;stroke-miterlimit:10;stroke-opacity:1;stroke-dasharray:none" />
  <path
     inkscape:connector-curvature="0"
     id="path2714"
     d="m 88.75,9746.25 v 0 m 0,0 h -3 m 0,0 v -6 m 0,0 h 3 m 0,0 v 6"
     style="fill:none;stroke:#ff0000;stroke-width:1.00699997;stroke-linecap:butt;stroke-linejoin:miter;stroke-miterlimit:10;stroke-opacity:1;stroke-dasharray:none" />
  <path
     inkscape:connector-curvature="0"
     id="path2716"
     d="m 88.75,9734.25 v 0 m 0,0 h -3 m 0,0 v -6 m 0,0 h 3 m 0,0 v 6"
     style="fill:none;stroke:#ff0000;stroke-width:1.00699997;stroke-linecap:butt;stroke-linejoin:miter;stroke-miterlimit:10;stroke-opacity:1;stroke-dasharray:none" />
  <path
     inkscape:connector-curvature="0"
     id="path2718"
     d="m 88.75,9722.25 v 0 m 0,0 h -3 m 0,0 v -6 m 0,0 h 3 m 0,0 v 6"
     style="fill:none;stroke:#ff0000;stroke-width:1.00699997;stroke-linecap:butt;stroke-linejoin:miter;stroke-miterlimit:10;stroke-opacity:1;stroke-dasharray:none" />
  <path
     inkscape:connector-curvature="0"
     id="path2720"
     d="m 88.75,9710.25 v 0 m 0,0 h -3 m 0,0 v -6 m 0,0 h 3 m 0,0 v 6"
     style="fill:none;stroke:#ff0000;stroke-width:1.00699997;stroke-linecap:butt;stroke-linejoin:miter;stroke-miterlimit:10;stroke-opacity:1;stroke-dasharray:none" />
  <path
     inkscape:connector-curvature="0"
     id="path2722"
     d="m 3.75,9785.25 h 2.5 m 0,0 v 0 m 0,0 v 3 m 0,0 h 6 m 0,0 v -3 m 0,0 h 6 m 0,0 v 0 m 0,0 v 3 m 0,0 h 6 m 0,0 v -3 m 0,0 h 6 m 0,0 v 0 m 0,0 v 3 m 0,0 h 6 m 0,0 v -3 m 0,0 h 6 m 0,0 v 0 m 0,0 v 3 m 0,0 h 6 m 0,0 v -3 m 0,0 h 6 m 0,0 v 0 m 0,0 v 3 m 0,0 h 6 m 0,0 v -3 m 0,0 h 6 m 0,0 v 0 m 0,0 v 3 m 0,0 h 6 m 0,0 v -3 m 0,0 h 6 m 0,0 v 0 m 0,0 v 3 m 0,0 h 6 m 0,0 v -3 m 0,0 h 6 m 0,0 v 0 m 0,0 v 3 m 0,0 h 6 m 0,0 v -3 m 0,0 h 6 m 0,0 v 0 m 0,0 v 3 m 0,0 h 6 m 0,0 v -3 m 0,0 h 6 m 0,0 v 0 m 0,0 v 3 m 0,0 h 6 m 0,0 v -3 m 0,0 h 6 m 0,0 v 0 m 0,0 v 3 m 0,0 h 6 m 0,0 v -3 m 0,0 h 6 m 0,0 v 0 m 0,0 v 3 m 0,0 h 6 m 0,0 v -3 m 0,0 h 6 m 0,0 v 0 m 0,0 v 3 m 0,0 h 6 m 0,0 v -3 m 0,0 h 6 m 0,0 v 0 m 0,0 v 3 m 0,0 h 6 m 0,0 v -3 m 0,0 h 2.5 m 0,0 v 0 m 0,0 v 0 m 0,0 v -3 m 0,0 v 0 m 0,0 h 3 m 0,0 v -6 m 0,0 h -3 m 0,0 v -6 m 0,0 v 0 m 0,0 h 3 m 0,0 v -6 m 0,0 h -3 m 0,0 v -6 m 0,0 v 0 m 0,0 h 3 m 0,0 v -6 m 0,0 h -3 m 0,0 v -6 m 0,0 v 0 m 0,0 h 3 m 0,0 v -6 m 0,0 h -3 m 0,0 v -6 m 0,0 v 0 m 0,0 h 3 m 0,0 v -6 m 0,0 h -3 m 0,0 v -6 m 0,0 v 0 m 0,0 h 3 m 0,0 v -6 m 0,0 h -3 m 0,0 v -6 m 0,0 v 0 m 0,0 h 3 m 0,0 v -6 m 0,0 h -3 m 0,0 v -3 m 0,0 v 0 m 0,0 v 0 m 0,0 h -2.5 m 0,0 v 0 m 0,0 v -3 m 0,0 h -6 m 0,0 v 3 m 0,0 h -6 m 0,0 v 0 m 0,0 v -3 m 0,0 h -6 m 0,0 v 3 m 0,0 h -6 m 0,0 v 0 m 0,0 v -3 m 0,0 h -6 m 0,0 v 3 m 0,0 h -6 m 0,0 v 0 m 0,0 v -3 m 0,0 h -6 m 0,0 v 3 m 0,0 h -6 m 0,0 v 0 m 0,0 v -3 m 0,0 h -6 m 0,0 v 3 m 0,0 h -6 m 0,0 v 0 m 0,0 v -3 m 0,0 h -6 m 0,0 v 3 m 0,0 h -6 m 0,0 v 0 m 0,0 v -3 m 0,0 h -6 m 0,0 v 3 m 0,0 h -6 m 0,0 v 0 m 0,0 v -3 m 0,0 h -6 m 0,0 v 3 m 0,0 h -6 m 0,0 v 0 m 0,0 v -3 m 0,0 h -6 m 0,0 v 3 m 0,0 h -6 m 0,0 v 0 m 0,0 v -3 m 0,0 h -6 m 0,0 v 3 m 0,0 h -6 m 0,0 v 0 m 0,0 v -3 m 0,0 h -6 m 0,0 v 3 m 0,0 h -6 m 0,0 v 0 m 0,0 v -3 m 0,0 h -6 m 0,0 v 3 m 0,0 h -6 m 0,0 v 0 m 0,0 v -3 m 0,0 h -6 m 0,0 v 3 m 0,0 h -6 m 0,0 v 0 m 0,0 v -3 m 0,0 h -6 m 0,0 v 3 m 0,0 h -2.5 m 0,0 v 0 m 0,0 v 0 m 0,0 v 3 m 0,0 v 0 m 0,0 h -3 m 0,0 v 6 m 0,0 h 3 m 0,0 v 6 m 0,0 v 0 m 0,0 h -3 m 0,0 v 6 m 0,0 h 3 m 0,0 v 6 m 0,0 v 0 m 0,0 h -3 m 0,0 v 6 m 0,0 h 3 m 0,0 v 6 m 0,0 v 0 m 0,0 h -3 m 0,0 v 6 m 0,0 h 3 m 0,0 v 6 m 0,0 v 0 m 0,0 h -3 m 0,0 v 6 m 0,0 h 3 m 0,0 v 6 m 0,0 v 0 m 0,0 h -3 m 0,0 v 6 m 0,0 h 3 m 0,0 v 6 m 0,0 v 0 m 0,0 h -3 m 0,0 v 6 m 0,0 h 3 m 0,0 v 3 m 0,0 v 0 m 0,0 v 0"
     style="fill:none;stroke:#ff0000;stroke-width:1.00699997;stroke-linecap:butt;stroke-linejoin:miter;stroke-miterlimit:10;stroke-opacity:1;stroke-dasharray:none" />
  <path
     inkscape:connector-curvature="0"
     id="path2724"
     d="m 178.25,9999.25 h 3 m 0,0 v 0 m 0,0 v -3 m 0,0 h 6 m 0,0 v 3 m 0,0 h 6 m 0,0 v 0 m 0,0 v -3 m 0,0 h 6 m 0,0 v 3 m 0,0 h 6 m 0,0 v 0 m 0,0 v -3 m 0,0 h 6 m 0,0 v 3 m 0,0 h 6 m 0,0 v 0 m 0,0 v -3 m 0,0 h 6 m 0,0 v 3 m 0,0 h 6 m 0,0 v 0 m 0,0 v -3 m 0,0 h 6 m 0,0 v 3 m 0,0 h 6 m 0,0 v 0 m 0,0 v -3 m 0,0 h 6 m 0,0 v 3 m 0,0 h 6 m 0,0 v 0 m 0,0 v -3 m 0,0 h 6 m 0,0 v 3 m 0,0 h 3 m 0,0 v 0 m 0,0 v -3 m 0,0 v -5.5 m 0,0 v 0 m 0,0 h 3 m 0,0 v -6 m 0,0 h -3 m 0,0 v -6 m 0,0 v 0 m 0,0 h 3 m 0,0 v -6 m 0,0 h -3 m 0,0 v -6 m 0,0 v 0 m 0,0 h 3 m 0,0 v -6 m 0,0 h -3 m 0,0 v -6 m 0,0 v 0 m 0,0 h 3 m 0,0 v -6 m 0,0 h -3 m 0,0 v -6 m 0,0 v 0 m 0,0 h 3 m 0,0 v -6 m 0,0 h -3 m 0,0 v -6 m 0,0 v 0 m 0,0 h 3 m 0,0 v -6 m 0,0 h -3 m 0,0 v -6 m 0,0 v 0 m 0,0 h 3 m 0,0 v -6 m 0,0 h -3 m 0,0 v -6 m 0,0 v 0 m 0,0 h 3 m 0,0 v -6 m 0,0 h -3 m 0,0 v -5.5 m 0,0 v 0 m 0,0 v 0 m 0,0 h -84 m 0,0 v 0 m 0,0 v 0 m 0,0 v 5.5 m 0,0 v 0 m 0,0 h -3 m 0,0 v 6 m 0,0 h 3 m 0,0 v 6 m 0,0 v 0 m 0,0 h -3 m 0,0 v 6 m 0,0 h 3 m 0,0 v 6 m 0,0 v 0 m 0,0 h -3 m 0,0 v 6 m 0,0 h 3 m 0,0 v 6 m 0,0 v 0 m 0,0 h -3 m 0,0 v 6 m 0,0 h 3 m 0,0 v 6 m 0,0 v 0 m 0,0 h -3 m 0,0 v 6 m 0,0 h 3 m 0,0 v 6 m 0,0 v 0 m 0,0 h -3 m 0,0 v 6 m 0,0 h 3 m 0,0 v 6 m 0,0 v 0 m 0,0 h -3 m 0,0 v 6 m 0,0 h 3 m 0,0 v 6 m 0,0 v 0 m 0,0 h -3 m 0,0 v 6 m 0,0 h 3 m 0,0 v 5.5 m 0,0 v 3 m 0,0 v 0"
     style="fill:none;stroke:#ff0000;stroke-width:1.00699997;stroke-linecap:butt;stroke-linejoin:miter;stroke-miterlimit:10;stroke-opacity:1;stroke-dasharray:none" />
  <path
     inkscape:connector-curvature="0"
     id="path2726"
     d="m 178.25,9893.75 h 3 m 0,0 v 0 m 0,0 v -3 m 0,0 h 6 m 0,0 v 3 m 0,0 h 6 m 0,0 v 0 m 0,0 v -3 m 0,0 h 6 m 0,0 v 3 m 0,0 h 6 m 0,0 v 0 m 0,0 v -3 m 0,0 h 6 m 0,0 v 3 m 0,0 h 6 m 0,0 v 0 m 0,0 v -3 m 0,0 h 6 m 0,0 v 3 m 0,0 h 6 m 0,0 v 0 m 0,0 v -3 m 0,0 h 6 m 0,0 v 3 m 0,0 h 6 m 0,0 v 0 m 0,0 v -3 m 0,0 h 6 m 0,0 v 3 m 0,0 h 6 m 0,0 v 0 m 0,0 v -3 m 0,0 h 6 m 0,0 v 3 m 0,0 h 3 m 0,0 v 0 m 0,0 v -3 m 0,0 v -5.5 m 0,0 v 0 m 0,0 h 3 m 0,0 v -6 m 0,0 h -3 m 0,0 v -6 m 0,0 v 0 m 0,0 h 3 m 0,0 v -6 m 0,0 h -3 m 0,0 v -6 m 0,0 v 0 m 0,0 h 3 m 0,0 v -6 m 0,0 h -3 m 0,0 v -6 m 0,0 v 0 m 0,0 h 3 m 0,0 v -6 m 0,0 h -3 m 0,0 v -6 m 0,0 v 0 m 0,0 h 3 m 0,0 v -6 m 0,0 h -3 m 0,0 v -6 m 0,0 v 0 m 0,0 h 3 m 0,0 v -6 m 0,0 h -3 m 0,0 v -6 m 0,0 v 0 m 0,0 h 3 m 0,0 v -6 m 0,0 h -3 m 0,0 v -6 m 0,0 v 0 m 0,0 h 3 m 0,0 v -6 m 0,0 h -3 m 0,0 v -5.5 m 0,0 v 0 m 0,0 v 0 m 0,0 h -84 m 0,0 v 0 m 0,0 v 0 m 0,0 v 5.5 m 0,0 v 0 m 0,0 h -3 m 0,0 v 6 m 0,0 h 3 m 0,0 v 6 m 0,0 v 0 m 0,0 h -3 m 0,0 v 6 m 0,0 h 3 m 0,0 v 6 m 0,0 v 0 m 0,0 h -3 m 0,0 v 6 m 0,0 h 3 m 0,0 v 6 m 0,0 v 0 m 0,0 h -3 m 0,0 v 6 m 0,0 h 3 m 0,0 v 6 m 0,0 v 0 m 0,0 h -3 m 0,0 v 6 m 0,0 h 3 m 0,0 v 6 m 0,0 v 0 m 0,0 h -3 m 0,0 v 6 m 0,0 h 3 m 0,0 v 6 m 0,0 v 0 m 0,0 h -3 m 0,0 v 6 m 0,0 h 3 m 0,0 v 6 m 0,0 v 0 m 0,0 h -3 m 0,0 v 6 m 0,0 h 3 m 0,0 v 5.5 m 0,0 v 3 m 0,0 v 0"
     style="fill:none;stroke:#ff0000;stroke-width:1.00699997;stroke-linecap:butt;stroke-linejoin:miter;stroke-miterlimit:10;stroke-opacity:1;stroke-dasharray:none" />
  <path
     inkscape:connector-curvature="0"
     id="path2728"
     d="m 178.25,9785.25 h 3 m 0,0 v 0 m 0,0 v 3 m 0,0 h 6 m 0,0 v -3 m 0,0 h 6 m 0,0 v 0 m 0,0 v 3 m 0,0 h 6 m 0,0 v -3 m 0,0 h 6 m 0,0 v 0 m 0,0 v 3 m 0,0 h 6 m 0,0 v -3 m 0,0 h 6 m 0,0 v 0 m 0,0 v 3 m 0,0 h 6 m 0,0 v -3 m 0,0 h 6 m 0,0 v 0 m 0,0 v 3 m 0,0 h 6 m 0,0 v -3 m 0,0 h 6 m 0,0 v 0 m 0,0 v 3 m 0,0 h 6 m 0,0 v -3 m 0,0 h 6 m 0,0 v 0 m 0,0 v 3 m 0,0 h 6 m 0,0 v -3 m 0,0 h 3 m 0,0 v 0 m 0,0 v 0 m 0,0 v -5.5 m 0,0 v 0 m 0,0 h 3 m 0,0 v -6 m 0,0 h -3 m 0,0 v -6 m 0,0 v 0 m 0,0 h 3 m 0,0 v -6 m 0,0 h -3 m 0,0 v -6 m 0,0 v 0 m 0,0 h 3 m 0,0 v -6 m 0,0 h -3 m 0,0 v -6 m 0,0 v 0 m 0,0 h 3 m 0,0 v -6 m 0,0 h -3 m 0,0 v -6 m 0,0 v 0 m 0,0 h 3 m 0,0 v -6 m 0,0 h -3 m 0,0 v -6 m 0,0 v 0 m 0,0 h 3 m 0,0 v -6 m 0,0 h -3 m 0,0 v -6 m 0,0 v 0 m 0,0 h 3 m 0,0 v -6 m 0,0 h -3 m 0,0 v -6 m 0,0 v 0 m 0,0 h 3 m 0,0 v -6 m 0,0 h -3 m 0,0 v -5.5 m 0,0 v 0 m 0,0 v 0 m 0,0 h -84 m 0,0 v 0 m 0,0 v 0 m 0,0 v 5.5 m 0,0 v 0 m 0,0 h -3 m 0,0 v 6 m 0,0 h 3 m 0,0 v 6 m 0,0 v 0 m 0,0 h -3 m 0,0 v 6 m 0,0 h 3 m 0,0 v 6 m 0,0 v 0 m 0,0 h -3 m 0,0 v 6 m 0,0 h 3 m 0,0 v 6 m 0,0 v 0 m 0,0 h -3 m 0,0 v 6 m 0,0 h 3 m 0,0 v 6 m 0,0 v 0 m 0,0 h -3 m 0,0 v 6 m 0,0 h 3 m 0,0 v 6 m 0,0 v 0 m 0,0 h -3 m 0,0 v 6 m 0,0 h 3 m 0,0 v 6 m 0,0 v 0 m 0,0 h -3 m 0,0 v 6 m 0,0 h 3 m 0,0 v 6 m 0,0 v 0 m 0,0 h -3 m 0,0 v 6 m 0,0 h 3 m 0,0 v 5.5 m 0,0 v 0 m 0,0 v 0"
     style="fill:none;stroke:#ff0000;stroke-width:1.00699997;stroke-linecap:butt;stroke-linejoin:miter;stroke-miterlimit:10;stroke-opacity:1;stroke-dasharray:none" />
</svg>
