<?xml version="1.0" encoding="UTF-8" standalone="no"?>
<svg
   xmlns:dc="http://purl.org/dc/elements/1.1/"
   xmlns:cc="http://creativecommons.org/ns#"
   xmlns:rdf="http://www.w3.org/1999/02/22-rdf-syntax-ns#"
   xmlns:svg="http://www.w3.org/2000/svg"
   xmlns="http://www.w3.org/2000/svg"
   xmlns:sodipodi="http://sodipodi.sourceforge.net/DTD/sodipodi-0.dtd"
   xmlns:inkscape="http://www.inkscape.org/namespaces/inkscape"
   width="230mm"
   height="270mm"
   viewBox="0 9730 230 270"
   version="1.1"
   id="svg6149"
   sodipodi:docname="Cards.svg"
   inkscape:version="0.91 r13725">
  <metadata
     id="metadata6155">
    <rdf:RDF>
      <cc:Work
         rdf:about="">
        <dc:format>image/svg+xml</dc:format>
        <dc:type
           rdf:resource="http://purl.org/dc/dcmitype/StillImage" />
        <dc:title />
      </cc:Work>
    </rdf:RDF>
  </metadata>
  <defs
     id="defs6153" />
  <sodipodi:namedview
     pagecolor="#ffffff"
     bordercolor="#666666"
     borderopacity="1"
     objecttolerance="10"
     gridtolerance="10"
     guidetolerance="10"
     inkscape:pageopacity="0"
     inkscape:pageshadow="2"
     inkscape:window-width="1366"
     inkscape:window-height="705"
     id="namedview6151"
     showgrid="false"
     inkscape:zoom="1.5"
     inkscape:cx="294.96511"
     inkscape:cy="590.23622"
     inkscape:window-x="-8"
     inkscape:window-y="-8"
     inkscape:window-maximized="1"
     inkscape:current-layer="svg6149"
     inkscape:measure-start="126,506.667"
     inkscape:measure-end="225.827,501.732" />
  <path
     inkscape:connector-curvature="0"
     id="path6074"
     d="m 52.75,9993.25 v 0 m 0,0 h -3 m 0,0 v -6 m 0,0 h 3 m 0,0 v 6"
     style="fill:none;stroke:#ff0000;stroke-width:1.00699999;stroke-linecap:butt;stroke-linejoin:miter;stroke-miterlimit:10;stroke-opacity:1;stroke-dasharray:none" />
  <path
     inkscape:connector-curvature="0"
     id="path6076"
     d="m 52.75,9981.25 v 0 m 0,0 h -3 m 0,0 v -6 m 0,0 h 3 m 0,0 v 6"
     style="fill:none;stroke:#ff0000;stroke-width:1.00699999;stroke-linecap:butt;stroke-linejoin:miter;stroke-miterlimit:10;stroke-opacity:1;stroke-dasharray:none" />
  <path
     inkscape:connector-curvature="0"
     id="path6078"
     d="m 52.75,9969.25 v 0 m 0,0 h -3 m 0,0 v -6 m 0,0 h 3 m 0,0 v 6"
     style="fill:none;stroke:#ff0000;stroke-width:1.00699999;stroke-linecap:butt;stroke-linejoin:miter;stroke-miterlimit:10;stroke-opacity:1;stroke-dasharray:none" />
  <path
     inkscape:connector-curvature="0"
     id="path6080"
     d="m 52.75,9957.25 v 0 m 0,0 h -3 m 0,0 v -6 m 0,0 h 3 m 0,0 v 6"
     style="fill:none;stroke:#ff0000;stroke-width:1.00699999;stroke-linecap:butt;stroke-linejoin:miter;stroke-miterlimit:10;stroke-opacity:1;stroke-dasharray:none" />
  <path
     inkscape:connector-curvature="0"
     id="path6082"
     d="m 52.75,9945.25 v 0 m 0,0 h -3 m 0,0 v -6 m 0,0 h 3 m 0,0 v 6"
     style="fill:none;stroke:#ff0000;stroke-width:1.00699999;stroke-linecap:butt;stroke-linejoin:miter;stroke-miterlimit:10;stroke-opacity:1;stroke-dasharray:none" />
  <path
     inkscape:connector-curvature="0"
     id="path6084"
     d="m 101.75,9993.25 v 0 m 0,0 h -3 m 0,0 v -6 m 0,0 h 3 m 0,0 v 6"
     style="fill:none;stroke:#ff0000;stroke-width:1.00699999;stroke-linecap:butt;stroke-linejoin:miter;stroke-miterlimit:10;stroke-opacity:1;stroke-dasharray:none" />
  <path
     inkscape:connector-curvature="0"
     id="path6086"
     d="m 101.75,9981.25 v 0 m 0,0 h -3 m 0,0 v -6 m 0,0 h 3 m 0,0 v 6"
     style="fill:none;stroke:#ff0000;stroke-width:1.00699999;stroke-linecap:butt;stroke-linejoin:miter;stroke-miterlimit:10;stroke-opacity:1;stroke-dasharray:none" />
  <path
     inkscape:connector-curvature="0"
     id="path6088"
     d="m 101.75,9969.25 v 0 m 0,0 h -3 m 0,0 v -6 m 0,0 h 3 m 0,0 v 6"
     style="fill:none;stroke:#ff0000;stroke-width:1.00699999;stroke-linecap:butt;stroke-linejoin:miter;stroke-miterlimit:10;stroke-opacity:1;stroke-dasharray:none" />
  <path
     inkscape:connector-curvature="0"
     id="path6090"
     d="m 101.75,9957.25 v 0 m 0,0 h -3 m 0,0 v -6 m 0,0 h 3 m 0,0 v 6"
     style="fill:none;stroke:#ff0000;stroke-width:1.00699999;stroke-linecap:butt;stroke-linejoin:miter;stroke-miterlimit:10;stroke-opacity:1;stroke-dasharray:none" />
  <path
     inkscape:connector-curvature="0"
     id="path6092"
     d="m 101.75,9945.25 v 0 m 0,0 h -3 m 0,0 v -6 m 0,0 h 3 m 0,0 v 6"
     style="fill:none;stroke:#ff0000;stroke-width:1.00699999;stroke-linecap:butt;stroke-linejoin:miter;stroke-miterlimit:10;stroke-opacity:1;stroke-dasharray:none" />
  <path
     inkscape:connector-curvature="0"
     id="path6094"
     d="m 3.75,9999.25 h 3 m 0,0 v 0 m 0,0 v -3 m 0,0 h 6 m 0,0 v 3 m 0,0 h 6 m 0,0 v 0 m 0,0 v -3 m 0,0 h 6 m 0,0 v 3 m 0,0 h 6 m 0,0 v 0 m 0,0 v -3 m 0,0 h 6 m 0,0 v 3 m 0,0 h 6 m 0,0 v 0 m 0,0 v -3 m 0,0 h 6 m 0,0 v 3 m 0,0 h 6 m 0,0 v 0 m 0,0 v -3 m 0,0 h 6 m 0,0 v 3 m 0,0 h 6 m 0,0 v 0 m 0,0 v -3 m 0,0 h 6 m 0,0 v 3 m 0,0 h 6 m 0,0 v 0 m 0,0 v -3 m 0,0 h 6 m 0,0 v 3 m 0,0 h 6 m 0,0 v 0 m 0,0 v -3 m 0,0 h 6 m 0,0 v 3 m 0,0 h 6 m 0,0 v 0 m 0,0 v -3 m 0,0 h 6 m 0,0 v 3 m 0,0 h 6 m 0,0 v 0 m 0,0 v -3 m 0,0 h 6 m 0,0 v 3 m 0,0 h 6 m 0,0 v 0 m 0,0 v -3 m 0,0 h 6 m 0,0 v 3 m 0,0 h 6 m 0,0 v 0 m 0,0 v -3 m 0,0 h 6 m 0,0 v 3 m 0,0 h 3 m 0,0 h 3 m 0,0 v -3 m 0,0 v -3 m 0,0 v 0 m 0,0 h -3 m 0,0 v -6 m 0,0 h 3 m 0,0 v -6 m 0,0 v 0 m 0,0 h -3 m 0,0 v -6 m 0,0 h 3 m 0,0 v -6 m 0,0 v 0 m 0,0 h -3 m 0,0 v -6 m 0,0 h 3 m 0,0 v -6 m 0,0 v 0 m 0,0 h -3 m 0,0 v -6 m 0,0 h 3 m 0,0 v -6 m 0,0 v 0 m 0,0 h -3 m 0,0 v -6 m 0,0 h 3 m 0,0 v -3 m 0,0 v 0 m 0,0 h -3 m 0,0 h -144 m 0,0 h -3 m 0,0 v 0 m 0,0 v 3 m 0,0 v 0 m 0,0 h 3 m 0,0 v 6 m 0,0 h -3 m 0,0 v 6 m 0,0 v 0 m 0,0 h 3 m 0,0 v 6 m 0,0 h -3 m 0,0 v 6 m 0,0 v 0 m 0,0 h 3 m 0,0 v 6 m 0,0 h -3 m 0,0 v 6 m 0,0 v 0 m 0,0 h 3 m 0,0 v 6 m 0,0 h -3 m 0,0 v 6 m 0,0 v 0 m 0,0 h 3 m 0,0 v 6 m 0,0 h -3 m 0,0 v 3 m 0,0 v 3 m 0,0 h 3"
     style="fill:none;stroke:#ff0000;stroke-width:1.00699999;stroke-linecap:butt;stroke-linejoin:miter;stroke-miterlimit:10;stroke-opacity:1;stroke-dasharray:none" />
  <path
     inkscape:connector-curvature="0"
     id="path6096"
     d="m 52.75,9928.75 v 0 m 0,0 h -3 m 0,0 v -6 m 0,0 h 3 m 0,0 v 6"
     style="fill:none;stroke:#ff0000;stroke-width:1.00699999;stroke-linecap:butt;stroke-linejoin:miter;stroke-miterlimit:10;stroke-opacity:1;stroke-dasharray:none" />
  <path
     inkscape:connector-curvature="0"
     id="path6098"
     d="m 52.75,9916.75 v 0 m 0,0 h -3 m 0,0 v -6 m 0,0 h 3 m 0,0 v 6"
     style="fill:none;stroke:#ff0000;stroke-width:1.00699999;stroke-linecap:butt;stroke-linejoin:miter;stroke-miterlimit:10;stroke-opacity:1;stroke-dasharray:none" />
  <path
     inkscape:connector-curvature="0"
     id="path6100"
     d="m 52.75,9904.75 v 0 m 0,0 h -3 m 0,0 v -6 m 0,0 h 3 m 0,0 v 6"
     style="fill:none;stroke:#ff0000;stroke-width:1.00699999;stroke-linecap:butt;stroke-linejoin:miter;stroke-miterlimit:10;stroke-opacity:1;stroke-dasharray:none" />
  <path
     inkscape:connector-curvature="0"
     id="path6102"
     d="m 52.75,9892.75 v 0 m 0,0 h -3 m 0,0 v -6 m 0,0 h 3 m 0,0 v 6"
     style="fill:none;stroke:#ff0000;stroke-width:1.00699999;stroke-linecap:butt;stroke-linejoin:miter;stroke-miterlimit:10;stroke-opacity:1;stroke-dasharray:none" />
  <path
     inkscape:connector-curvature="0"
     id="path6104"
     d="m 52.75,9880.75 v 0 m 0,0 h -3 m 0,0 v -6 m 0,0 h 3 m 0,0 v 6"
     style="fill:none;stroke:#ff0000;stroke-width:1.00699999;stroke-linecap:butt;stroke-linejoin:miter;stroke-miterlimit:10;stroke-opacity:1;stroke-dasharray:none" />
  <path
     inkscape:connector-curvature="0"
     id="path6106"
     d="m 101.75,9928.75 v 0 m 0,0 h -3 m 0,0 v -6 m 0,0 h 3 m 0,0 v 6"
     style="fill:none;stroke:#ff0000;stroke-width:1.00699999;stroke-linecap:butt;stroke-linejoin:miter;stroke-miterlimit:10;stroke-opacity:1;stroke-dasharray:none" />
  <path
     inkscape:connector-curvature="0"
     id="path6108"
     d="m 101.75,9916.75 v 0 m 0,0 h -3 m 0,0 v -6 m 0,0 h 3 m 0,0 v 6"
     style="fill:none;stroke:#ff0000;stroke-width:1.00699999;stroke-linecap:butt;stroke-linejoin:miter;stroke-miterlimit:10;stroke-opacity:1;stroke-dasharray:none" />
  <path
     inkscape:connector-curvature="0"
     id="path6110"
     d="m 101.75,9904.75 v 0 m 0,0 h -3 m 0,0 v -6 m 0,0 h 3 m 0,0 v 6"
     style="fill:none;stroke:#ff0000;stroke-width:1.00699999;stroke-linecap:butt;stroke-linejoin:miter;stroke-miterlimit:10;stroke-opacity:1;stroke-dasharray:none" />
  <path
     inkscape:connector-curvature="0"
     id="path6112"
     d="m 101.75,9892.75 v 0 m 0,0 h -3 m 0,0 v -6 m 0,0 h 3 m 0,0 v 6"
     style="fill:none;stroke:#ff0000;stroke-width:1.00699999;stroke-linecap:butt;stroke-linejoin:miter;stroke-miterlimit:10;stroke-opacity:1;stroke-dasharray:none" />
  <path
     inkscape:connector-curvature="0"
     id="path6114"
     d="m 101.75,9880.75 v 0 m 0,0 h -3 m 0,0 v -6 m 0,0 h 3 m 0,0 v 6"
     style="fill:none;stroke:#ff0000;stroke-width:1.00699999;stroke-linecap:butt;stroke-linejoin:miter;stroke-miterlimit:10;stroke-opacity:1;stroke-dasharray:none" />
  <path
     inkscape:connector-curvature="0"
     id="path6116"
     d="m 150.75,9886.75 v -6 h -3 v -6 h 3 v -3 0 h -3 -10 v 0 63 h 13 v -3 -3 h -3 v -6 h 3 v -6 h -3 v -6 h 3 v -6 h -3 v -6 h 3 v -6 0 h -3 v -6 z m -147,0 v 6 h -3 v 6 h 3 v 6 h -3 v 6 0 h 3 v 6 h -3 v 6 0 h 3 v 6 h -3 v 3 3 h 13 v -63 h -10 -3 v 0 3 h 3 v 6 h -3 v 6 z m 38.000001,-15 v 63 h 20.000001 v -63 0 z m 48.000001,0 0.595831,63 H 109.75 v -63 0 z"
     style="fill:none;stroke:#ff0000;stroke-width:1.00699999;stroke-linecap:butt;stroke-linejoin:miter;stroke-miterlimit:10;stroke-opacity:1;stroke-dasharray:none"
     sodipodi:nodetypes="cccccccccccccccccccccccccccccccccccccccccccccccccccccccccccccccccccccccc" />
  <path
     inkscape:connector-curvature="0"
     id="path6118"
     d="m 52.75,9861.75 v 0 m 0,0 h -3 m 0,0 v -6 m 0,0 h 3 m 0,0 v 6"
     style="fill:none;stroke:#ff0000;stroke-width:1.00699999;stroke-linecap:butt;stroke-linejoin:miter;stroke-miterlimit:10;stroke-opacity:1;stroke-dasharray:none" />
  <path
     inkscape:connector-curvature="0"
     id="path6120"
     d="m 52.75,9849.75 v 0 m 0,0 h -3 m 0,0 v -6 m 0,0 h 3 m 0,0 v 6"
     style="fill:none;stroke:#ff0000;stroke-width:1.00699999;stroke-linecap:butt;stroke-linejoin:miter;stroke-miterlimit:10;stroke-opacity:1;stroke-dasharray:none" />
  <path
     inkscape:connector-curvature="0"
     id="path6122"
     d="m 52.75,9837.75 v 0 m 0,0 h -3 m 0,0 v -6 m 0,0 h 3 m 0,0 v 6"
     style="fill:none;stroke:#ff0000;stroke-width:1.00699999;stroke-linecap:butt;stroke-linejoin:miter;stroke-miterlimit:10;stroke-opacity:1;stroke-dasharray:none" />
  <path
     inkscape:connector-curvature="0"
     id="path6124"
     d="m 52.75,9825.75 v 0 m 0,0 h -3 m 0,0 v -6 m 0,0 h 3 m 0,0 v 6"
     style="fill:none;stroke:#ff0000;stroke-width:1.00699999;stroke-linecap:butt;stroke-linejoin:miter;stroke-miterlimit:10;stroke-opacity:1;stroke-dasharray:none" />
  <path
     inkscape:connector-curvature="0"
     id="path6126"
     d="m 52.75,9813.75 v 0 m 0,0 h -3 m 0,0 v -6 m 0,0 h 3 m 0,0 v 6"
     style="fill:none;stroke:#ff0000;stroke-width:1.00699999;stroke-linecap:butt;stroke-linejoin:miter;stroke-miterlimit:10;stroke-opacity:1;stroke-dasharray:none" />
  <path
     inkscape:connector-curvature="0"
     id="path6128"
     d="m 101.75,9861.75 v 0 m 0,0 h -3 m 0,0 v -6 m 0,0 h 3 m 0,0 v 6"
     style="fill:none;stroke:#ff0000;stroke-width:1.00699999;stroke-linecap:butt;stroke-linejoin:miter;stroke-miterlimit:10;stroke-opacity:1;stroke-dasharray:none" />
  <path
     inkscape:connector-curvature="0"
     id="path6130"
     d="m 101.75,9849.75 v 0 m 0,0 h -3 m 0,0 v -6 m 0,0 h 3 m 0,0 v 6"
     style="fill:none;stroke:#ff0000;stroke-width:1.00699999;stroke-linecap:butt;stroke-linejoin:miter;stroke-miterlimit:10;stroke-opacity:1;stroke-dasharray:none" />
  <path
     inkscape:connector-curvature="0"
     id="path6132"
     d="m 101.75,9837.75 v 0 m 0,0 h -3 m 0,0 v -6 m 0,0 h 3 m 0,0 v 6"
     style="fill:none;stroke:#ff0000;stroke-width:1.00699999;stroke-linecap:butt;stroke-linejoin:miter;stroke-miterlimit:10;stroke-opacity:1;stroke-dasharray:none" />
  <path
     inkscape:connector-curvature="0"
     id="path6134"
     d="m 101.75,9825.75 v 0 m 0,0 h -3 m 0,0 v -6 m 0,0 h 3 m 0,0 v 6"
     style="fill:none;stroke:#ff0000;stroke-width:1.00699999;stroke-linecap:butt;stroke-linejoin:miter;stroke-miterlimit:10;stroke-opacity:1;stroke-dasharray:none" />
  <path
     inkscape:connector-curvature="0"
     id="path6136"
     d="m 101.75,9813.75 v 0 m 0,0 h -3 m 0,0 v -6 m 0,0 h 3 m 0,0 v 6"
     style="fill:none;stroke:#ff0000;stroke-width:1.00699999;stroke-linecap:butt;stroke-linejoin:miter;stroke-miterlimit:10;stroke-opacity:1;stroke-dasharray:none" />
  <path
     inkscape:connector-curvature="0"
     id="path6138"
     d="m 3.75,9867.25 h 3 7 l 2e-6,-10 h 28.000001 l -2e-6,10 H 54.75 61.750002 l 10e-7,-10 h 28.000001 l -2e-6,10 H 109.75 v -10 h 28 v 10 h 10 v -5.5 m 0,0 v 0 m 0,0 h 3 m 0,0 v -6 m 0,0 h -3 m 0,0 v -6 m 0,0 v 0 m 0,0 h 3 m 0,0 v -6 m 0,0 h -3 m 0,0 v -6 m 0,0 v 0 m 0,0 h 3 m 0,0 v -6 m 0,0 h -3 m 0,0 v -6 m 0,0 v 0 m 0,0 h 3 m 0,0 v -6 m 0,0 h -3 m 0,0 v -6 m 0,0 v 0 m 0,0 h 3 m 0,0 v -6 m 0,0 h -3 m 0,0 v -5.5 m 0,0 v 0 m 0,0 v 0 m 0,0 h -3 m 0,0 v 0 m 0,0 v -3 m 0,0 h -6 m 0,0 v 3 m 0,0 h -6 m 0,0 v 0 m 0,0 v -3 m 0,0 h -6 m 0,0 v 3 m 0,0 h -6 m 0,0 v 0 m 0,0 v -3 m 0,0 h -6 m 0,0 v 3 m 0,0 h -6 m 0,0 v 0 m 0,0 v -3 m 0,0 h -6 m 0,0 v 3 m 0,0 h -6 m 0,0 v 0 m 0,0 v -3 m 0,0 h -6 m 0,0 v 3 m 0,0 h -6 m 0,0 v 0 m 0,0 v -3 m 0,0 h -6 m 0,0 v 3 m 0,0 h -6 m 0,0 v 0 m 0,0 v -3 m 0,0 h -6 m 0,0 v 3 m 0,0 h -6 m 0,0 v 0 m 0,0 v -3 m 0,0 h -6 m 0,0 v 3 m 0,0 h -6 m 0,0 v 0 m 0,0 v -3 m 0,0 h -6 m 0,0 v 3 m 0,0 h -6 m 0,0 v 0 m 0,0 v -3 m 0,0 h -6 m 0,0 v 3 m 0,0 h -6 m 0,0 v 0 m 0,0 v -3 m 0,0 h -6 m 0,0 v 3 m 0,0 h -6 m 0,0 v 0 m 0,0 v -3 m 0,0 h -6 m 0,0 v 3 m 0,0 h -3 m 0,0 v 0 m 0,0 v 0 m 0,0 v 5.5 m 0,0 v 0 m 0,0 h -3 m 0,0 v 6 m 0,0 h 3 m 0,0 v 6 m 0,0 v 0 m 0,0 h -3 m 0,0 v 6 m 0,0 h 3 m 0,0 v 6 m 0,0 v 0 m 0,0 h -3 m 0,0 v 6 m 0,0 h 3 m 0,0 v 6 m 0,0 v 0 m 0,0 h -3 m 0,0 v 6 m 0,0 h 3 m 0,0 v 6 m 0,0 v 0 m 0,0 h -3 m 0,0 v 6 m 0,0 h 3 m 0,0 v 5.5 m 0,0 v 0 m 0,0 v 0"
     style="fill:none;stroke:#ff0000;stroke-width:1.00699999;stroke-linecap:butt;stroke-linejoin:miter;stroke-miterlimit:10;stroke-opacity:1;stroke-dasharray:none"
     sodipodi:nodetypes="ccccccccccccccccccccccccccccccccccccccccccccccccccccccccccccccccccccccccccccccccccccccccccccccccccccccccccccccccccccccccccccccccccccccccccccccccccccccccccccccccccccccccccccccccccccccccccccccccccccccccccccccccccccccccccccccccccccccccccccccccccccccccccccc" />
  <path
     inkscape:connector-curvature="0"
     id="path6140"
     d="m 155.25,9999.25 h 5.5 m 0,0 v 0 m 0,0 v -3 m 0,0 h 6 m 0,0 v 3 m 0,0 h 6 m 0,0 v 0 m 0,0 v -3 m 0,0 h 6 m 0,0 v 3 m 0,0 h 6 m 0,0 v 0 m 0,0 v -3 m 0,0 h 6 m 0,0 v 3 m 0,0 h 6 m 0,0 v 0 m 0,0 v -3 m 0,0 h 6 m 0,0 v 3 m 0,0 h 6 m 0,0 v 0 m 0,0 v -3 m 0,0 h 6 m 0,0 v 3 m 0,0 h 5.5 m 0,0 v 0 m 0,0 v -3 m 0,0 v -3 m 0,0 v 0 m 0,0 h 3 m 0,0 v -6 m 0,0 h -3 m 0,0 v -6 m 0,0 v 0 m 0,0 h 3 m 0,0 v -6 m 0,0 h -3 m 0,0 v -6 m 0,0 v 0 m 0,0 h 3 m 0,0 v -6 m 0,0 h -3 m 0,0 v -6 m 0,0 v 0 m 0,0 h 3 m 0,0 v -6 m 0,0 h -3 m 0,0 v -6 m 0,0 v 0 m 0,0 h 3 m 0,0 v -6 m 0,0 h -3 m 0,0 v -3 m 0,0 v 0 m 0,0 v 0 m 0,0 h -65 m 0,0 v 0 m 0,0 v 0 m 0,0 v 3 m 0,0 v 0 m 0,0 h -3 m 0,0 v 6 m 0,0 h 3 m 0,0 v 6 m 0,0 v 0 m 0,0 h -3 m 0,0 v 6 m 0,0 h 3 m 0,0 v 6 m 0,0 v 0 m 0,0 h -3 m 0,0 v 6 m 0,0 h 3 m 0,0 v 6 m 0,0 v 0 m 0,0 h -3 m 0,0 v 6 m 0,0 h 3 m 0,0 v 6 m 0,0 v 0 m 0,0 h -3 m 0,0 v 6 m 0,0 h 3 m 0,0 v 3 m 0,0 v 3 m 0,0 v 0"
     style="fill:none;stroke:#ff0000;stroke-width:1.00699999;stroke-linecap:butt;stroke-linejoin:miter;stroke-miterlimit:10;stroke-opacity:1;stroke-dasharray:none" />
  <path
     inkscape:connector-curvature="0"
     id="path6142"
     d="m 155.25,9934.75 h 5.5 m 0,0 v 0 m 0,0 v -3 m 0,0 h 6 m 0,0 v 3 m 0,0 h 6 m 0,0 v 0 m 0,0 v -3 m 0,0 h 6 m 0,0 v 3 m 0,0 h 6 m 0,0 v 0 m 0,0 v -3 m 0,0 h 6 m 0,0 v 3 m 0,0 h 6 m 0,0 v 0 m 0,0 v -3 m 0,0 h 6 m 0,0 v 3 m 0,0 h 6 m 0,0 v 0 m 0,0 v -3 m 0,0 h 6 m 0,0 v 3 m 0,0 h 5.5 m 0,0 v 0 m 0,0 v -3 m 0,0 v -3 m 0,0 v 0 m 0,0 h 3 m 0,0 v -6 m 0,0 h -3 m 0,0 v -6 m 0,0 v 0 m 0,0 h 3 m 0,0 v -6 m 0,0 h -3 m 0,0 v -6 m 0,0 v 0 m 0,0 h 3 m 0,0 v -6 m 0,0 h -3 m 0,0 v -6 m 0,0 v 0 m 0,0 h 3 m 0,0 v -6 m 0,0 h -3 m 0,0 v -6 m 0,0 v 0 m 0,0 h 3 m 0,0 v -6 m 0,0 h -3 m 0,0 v -3 m 0,0 v 0 m 0,0 v 0 m 0,0 h -65 m 0,0 v 0 m 0,0 v 0 m 0,0 v 3 m 0,0 v 0 m 0,0 h -3 m 0,0 v 6 m 0,0 h 3 m 0,0 v 6 m 0,0 v 0 m 0,0 h -3 m 0,0 v 6 m 0,0 h 3 m 0,0 v 6 m 0,0 v 0 m 0,0 h -3 m 0,0 v 6 m 0,0 h 3 m 0,0 v 6 m 0,0 v 0 m 0,0 h -3 m 0,0 v 6 m 0,0 h 3 m 0,0 v 6 m 0,0 v 0 m 0,0 h -3 m 0,0 v 6 m 0,0 h 3 m 0,0 v 3 m 0,0 v 3 m 0,0 v 0"
     style="fill:none;stroke:#ff0000;stroke-width:1.00699999;stroke-linecap:butt;stroke-linejoin:miter;stroke-miterlimit:10;stroke-opacity:1;stroke-dasharray:none" />
  <path
     inkscape:connector-curvature="0"
     id="path6144"
     d="m 155.25,9867.25 h 5.5 m 0,0 v 0 m 0,0 v 3 m 0,0 h 6 m 0,0 v -3 m 0,0 h 6 m 0,0 v 0 m 0,0 v 3 m 0,0 h 6 m 0,0 v -3 m 0,0 h 6 m 0,0 v 0 m 0,0 v 3 m 0,0 h 6 m 0,0 v -3 m 0,0 h 6 m 0,0 v 0 m 0,0 v 3 m 0,0 h 6 m 0,0 v -3 m 0,0 h 6 m 0,0 v 0 m 0,0 v 3 m 0,0 h 6 m 0,0 v -3 m 0,0 h 5.5 m 0,0 v 0 m 0,0 v 0 m 0,0 v -3 m 0,0 v 0 m 0,0 h 3 m 0,0 v -6 m 0,0 h -3 m 0,0 v -6 m 0,0 v 0 m 0,0 h 3 m 0,0 v -6 m 0,0 h -3 m 0,0 v -6 m 0,0 v 0 m 0,0 h 3 m 0,0 v -6 m 0,0 h -3 m 0,0 v -6 m 0,0 v 0 m 0,0 h 3 m 0,0 v -6 m 0,0 h -3 m 0,0 v -6 m 0,0 v 0 m 0,0 h 3 m 0,0 v -6 m 0,0 h -3 m 0,0 v -3 m 0,0 v 0 m 0,0 v 0 m 0,0 h -65 m 0,0 v 0 m 0,0 v 0 m 0,0 v 3 m 0,0 v 0 m 0,0 h -3 m 0,0 v 6 m 0,0 h 3 m 0,0 v 6 m 0,0 v 0 m 0,0 h -3 m 0,0 v 6 m 0,0 h 3 m 0,0 v 6 m 0,0 v 0 m 0,0 h -3 m 0,0 v 6 m 0,0 h 3 m 0,0 v 6 m 0,0 v 0 m 0,0 h -3 m 0,0 v 6 m 0,0 h 3 m 0,0 v 6 m 0,0 v 0 m 0,0 h -3 m 0,0 v 6 m 0,0 h 3 m 0,0 v 3 m 0,0 v 0 m 0,0 v 0"
     style="fill:none;stroke:#ff0000;stroke-width:1.00699999;stroke-linecap:butt;stroke-linejoin:miter;stroke-miterlimit:10;stroke-opacity:1;stroke-dasharray:none" />
  <path
     inkscape:connector-curvature="0"
     id="path6146"
     d="m 155.25,9802.75 h 5.5 m 0,0 v 0 m 0,0 v 3 m 0,0 h 6 m 0,0 v -3 m 0,0 h 6 m 0,0 v 0 m 0,0 v 3 m 0,0 h 6 m 0,0 v -3 m 0,0 h 6 m 0,0 v 0 m 0,0 v 3 m 0,0 h 6 m 0,0 v -3 m 0,0 h 6 m 0,0 v 0 m 0,0 v 3 m 0,0 h 6 m 0,0 v -3 m 0,0 h 6 m 0,0 v 0 m 0,0 v 3 m 0,0 h 6 m 0,0 v -3 m 0,0 h 5.5 m 0,0 v 0 m 0,0 v 0 m 0,0 v -3 m 0,0 v 0 m 0,0 h 3 m 0,0 v -6 m 0,0 h -3 m 0,0 v -6 m 0,0 v 0 m 0,0 h 3 m 0,0 v -6 m 0,0 h -3 m 0,0 v -6 m 0,0 v 0 m 0,0 h 3 m 0,0 v -6 m 0,0 h -3 m 0,0 v -6 m 0,0 v 0 m 0,0 h 3 m 0,0 v -6 m 0,0 h -3 m 0,0 v -6 m 0,0 v 0 m 0,0 h 3 m 0,0 v -6 m 0,0 h -3 m 0,0 v -3 m 0,0 v 0 m 0,0 v 0 m 0,0 h -65 m 0,0 v 0 m 0,0 v 0 m 0,0 v 3 m 0,0 v 0 m 0,0 h -3 m 0,0 v 6 m 0,0 h 3 m 0,0 v 6 m 0,0 v 0 m 0,0 h -3 m 0,0 v 6 m 0,0 h 3 m 0,0 v 6 m 0,0 v 0 m 0,0 h -3 m 0,0 v 6 m 0,0 h 3 m 0,0 v 6 m 0,0 v 0 m 0,0 h -3 m 0,0 v 6 m 0,0 h 3 m 0,0 v 6 m 0,0 v 0 m 0,0 h -3 m 0,0 v 6 m 0,0 h 3 m 0,0 v 3 m 0,0 v 0 m 0,0 v 0"
     style="fill:none;stroke:#ff0000;stroke-width:1.00699999;stroke-linecap:butt;stroke-linejoin:miter;stroke-miterlimit:10;stroke-opacity:1;stroke-dasharray:none" />
</svg>
