<?xml version="1.0" encoding="UTF-8" standalone="no"?>
<!-- Created with Inkscape (http://www.inkscape.org/) -->

<svg
   xmlns:dc="http://purl.org/dc/elements/1.1/"
   xmlns:cc="http://creativecommons.org/ns#"
   xmlns:rdf="http://www.w3.org/1999/02/22-rdf-syntax-ns#"
   xmlns:svg="http://www.w3.org/2000/svg"
   xmlns="http://www.w3.org/2000/svg"
   xmlns:sodipodi="http://sodipodi.sourceforge.net/DTD/sodipodi-0.dtd"
   xmlns:inkscape="http://www.inkscape.org/namespaces/inkscape"
   version="1.1"
   id="svg3979"
   xml:space="preserve"
   width="590mm"
   height="290mm"
   viewBox="0 0 2229.9213 1096.063"
   sodipodi:docname="Print Part Extra 1.svg"
   inkscape:version="0.92.2 5c3e80d, 2017-08-06"><metadata
     id="metadata3985"><rdf:RDF><cc:Work
         rdf:about=""><dc:format>image/svg+xml</dc:format><dc:type
           rdf:resource="http://purl.org/dc/dcmitype/StillImage" /><dc:title /></cc:Work></rdf:RDF></metadata><defs
     id="defs3983" /><sodipodi:namedview
     pagecolor="#ffffff"
     bordercolor="#666666"
     borderopacity="1"
     objecttolerance="10"
     gridtolerance="10"
     guidetolerance="10"
     inkscape:pageopacity="0"
     inkscape:pageshadow="2"
     inkscape:window-width="1440"
     inkscape:window-height="787"
     id="namedview3981"
     showgrid="false"
     units="mm"
     inkscape:zoom="0.3"
     inkscape:cx="1423.5153"
     inkscape:cy="334.69816"
     inkscape:window-x="0"
     inkscape:window-y="1"
     inkscape:window-maximized="1"
     inkscape:current-layer="g3987" /><g
     id="g3987"
     inkscape:groupmode="layer"
     inkscape:label="Print Part 1"
     transform="matrix(1.3333333,0,0,-1.3333333,0,1096.063)"><path
       inkscape:connector-curvature="0"
       id="path10386"
       d="m 1375.5931,164.05009 v 0 m 0,0 v -8.50394 m 0,0 h -17.0079 m 0,0 v 8.50394 m 0,0 h 17.0079"
       style="fill:none;stroke:#ff0000;stroke-width:2.85448813;stroke-linecap:butt;stroke-linejoin:miter;stroke-miterlimit:10;stroke-dasharray:none;stroke-opacity:1" /><path
       inkscape:connector-curvature="0"
       id="path10388"
       d="m 1341.5773,164.05009 v 0 m 0,0 v -8.50394 m 0,0 h -17.0079 m 0,0 v 8.50394 m 0,0 h 17.0079"
       style="fill:none;stroke:#ff0000;stroke-width:2.85448813;stroke-linecap:butt;stroke-linejoin:miter;stroke-miterlimit:10;stroke-dasharray:none;stroke-opacity:1" /><path
       inkscape:connector-curvature="0"
       id="path10390"
       d="m 1307.5616,164.05009 v 0 m 0,0 v -8.50394 m 0,0 h -17.0079 m 0,0 v 8.50394 m 0,0 h 17.0079"
       style="fill:none;stroke:#ff0000;stroke-width:2.85448813;stroke-linecap:butt;stroke-linejoin:miter;stroke-miterlimit:10;stroke-dasharray:none;stroke-opacity:1" /><path
       inkscape:connector-curvature="0"
       id="path10396"
       d="m 1375.5931,313.57765 v 0 m 0,0 v -8.50394 m 0,0 h -17.0079 m 0,0 v 8.50394 m 0,0 h 17.0079"
       style="fill:none;stroke:#ff0000;stroke-width:2.85448813;stroke-linecap:butt;stroke-linejoin:miter;stroke-miterlimit:10;stroke-dasharray:none;stroke-opacity:1" /><path
       inkscape:connector-curvature="0"
       id="path10398"
       d="m 1341.5773,313.57765 v 0 m 0,0 v -8.50394 m 0,0 h -17.0079 m 0,0 v 8.50394 m 0,0 h 17.0079"
       style="fill:none;stroke:#ff0000;stroke-width:2.85448813;stroke-linecap:butt;stroke-linejoin:miter;stroke-miterlimit:10;stroke-dasharray:none;stroke-opacity:1" /><path
       inkscape:connector-curvature="0"
       id="path10400"
       d="m 1307.5616,313.57765 v 0 m 0,0 v -8.50394 m 0,0 h -17.0079 m 0,0 v 8.50394 m 0,0 h 17.0079"
       style="fill:none;stroke:#ff0000;stroke-width:2.85448813;stroke-linecap:butt;stroke-linejoin:miter;stroke-miterlimit:10;stroke-dasharray:none;stroke-opacity:1" /><path
       inkscape:connector-curvature="0"
       id="path10406"
       d="m 1375.5931,463.10521 v 0 m 0,0 v -8.50394 m 0,0 h -17.0079 m 0,0 v 8.50394 m 0,0 h 17.0079"
       style="fill:none;stroke:#ff0000;stroke-width:2.85448813;stroke-linecap:butt;stroke-linejoin:miter;stroke-miterlimit:10;stroke-dasharray:none;stroke-opacity:1" /><path
       inkscape:connector-curvature="0"
       id="path10408"
       d="m 1341.5773,463.10521 v 0 m 0,0 v -8.50394 m 0,0 h -17.0079 m 0,0 v 8.50394 m 0,0 h 17.0079"
       style="fill:none;stroke:#ff0000;stroke-width:2.85448813;stroke-linecap:butt;stroke-linejoin:miter;stroke-miterlimit:10;stroke-dasharray:none;stroke-opacity:1" /><path
       inkscape:connector-curvature="0"
       id="path10410"
       d="m 1307.5616,463.10521 v 0 m 0,0 v -8.50394 m 0,0 h -17.0079 m 0,0 v 8.50394 m 0,0 h 17.0079"
       style="fill:none;stroke:#ff0000;stroke-width:2.85448813;stroke-linecap:butt;stroke-linejoin:miter;stroke-miterlimit:10;stroke-dasharray:none;stroke-opacity:1" /><path
       style="fill:none;stroke:#ff0000;stroke-width:2.85448813;stroke-linecap:butt;stroke-linejoin:miter;stroke-miterlimit:10;stroke-dasharray:none;stroke-opacity:1"
       d="m 1248.034,6.018096 h 42.52 v 8.504883 h 17.007 V 6.018096 h 17.0082 v 8.504883 h 17.0084 V 6.018096 h 17.0082 v 8.504883 h 17.007 V 6.018096 h 8.5048 8.5033 v 8.504883 14.172363 h -8.5033 v 17.008301 h 8.5033 v 17.0083 h -8.5033 v 17.006834 h 8.5033 V 96.72708 h -8.5033 v 17.0083 h 8.5033 v 17.00831 h -8.5033 v 17.00683 h 8.5033 v 17.0083 h -8.5033 v 17.0083 h 8.5033 v 17.00684 h -8.5033 v 17.0083 h 8.5033 v 17.0083 h -8.5033 v 17.00683 h 8.5033 v 17.0083 h -8.5033 V 283.814 h 8.5033 v 17.00828 h -8.5033 v 17.00686 h 8.5033 v 17.0083 h -8.5033 v 17.0083 h 8.5033 v 17.00682 h -8.5033 v 17.0083 h 8.5033 v 17.0083 h -8.5033 v 17.0083 h 8.5033 v 17.00685 h -8.5033 v 17.0083 h 8.5033 v 17.0083 h -8.5033 v 17.00683 h 8.5033 v 17.0083 h -8.5033 v 17.0083 h 8.5033 v 17.0083 h -8.5033 v 17.00685 h 8.5033 v 17.0083 h -8.5033 v 17.0083 h 8.5033 v 14.17235 8.5049 h -8.5033 -8.5048 v -8.5049 h -17.007 v 8.5049 h -17.0082 v -8.5049 h -17.0084 v 8.5049 h -17.0082 v -8.5049 h -17.007 v 8.5049 h -42.52 l -3e-4,-24.40871 c 29.3698,-0.44705 52.9498,-24.3733 52.9688,-53.74658 0,-29.37728 -23.5948,-53.30971 -52.9685,-53.75682 l -3e-4,-42.02345 c 29.3698,-0.44705 52.9498,-24.37331 52.9688,-53.74659 0,-29.37784 -23.5942,-53.31115 -52.9688,-53.75829 v -42.02345 c 29.3695,-0.44705 52.9489,-24.37239 52.9688,-53.74511 0,-29.37784 -23.5942,-53.31116 -52.9688,-53.7583 v -42.02343 c 29.3698,-0.44706 52.9498,-24.3733 52.9688,-53.74658 0,-29.377848 -23.5942,-53.311175 -52.9688,-53.758305 z"
       id="path10416"
       inkscape:connector-curvature="0"
       sodipodi:nodetypes="ccccccccccccccccccccccccccccccccccccccccccccccccccccccccccccccccccccccccccccccccccccccccccccccccccccccccccccccccc" /><path
       inkscape:connector-curvature="0"
       id="path10418"
       d="m 179.70848,104.91867 v 0 m 0,0 h -8.50394 m 0,0 v 17.00787 m 0,0 h 8.50394 m 0,0 v -17.00787"
       style="fill:none;stroke:#ff0000;stroke-width:2.85448813;stroke-linecap:butt;stroke-linejoin:miter;stroke-miterlimit:10;stroke-dasharray:none;stroke-opacity:1" /><path
       inkscape:connector-curvature="0"
       id="path10420"
       d="m 179.70848,138.93441 v 0 m 0,0 h -8.50394 m 0,0 v 17.00788 m 0,0 h 8.50394 m 0,0 v -17.00788"
       style="fill:none;stroke:#ff0000;stroke-width:2.85448813;stroke-linecap:butt;stroke-linejoin:miter;stroke-miterlimit:10;stroke-dasharray:none;stroke-opacity:1" /><path
       inkscape:connector-curvature="0"
       id="path10422"
       d="m 179.70848,172.95016 v 0 m 0,0 h -8.50394 m 0,0 v 17.00788 m 0,0 h 8.50394 m 0,0 v -17.00788"
       style="fill:none;stroke:#ff0000;stroke-width:2.85448813;stroke-linecap:butt;stroke-linejoin:miter;stroke-miterlimit:10;stroke-dasharray:none;stroke-opacity:1" /><path
       inkscape:connector-curvature="0"
       id="path10424"
       d="m 179.70848,206.96591 v 0 m 0,0 h -8.50394 m 0,0 v 17.00787 m 0,0 h 8.50394 m 0,0 v -17.00787"
       style="fill:none;stroke:#ff0000;stroke-width:2.85448813;stroke-linecap:butt;stroke-linejoin:miter;stroke-miterlimit:10;stroke-dasharray:none;stroke-opacity:1" /><path
       inkscape:connector-curvature="0"
       id="path10426"
       d="m 179.70848,240.98166 v 0 m 0,0 h -8.50394 m 0,0 v 17.00787 m 0,0 h 8.50394 m 0,0 v -17.00787"
       style="fill:none;stroke:#ff0000;stroke-width:2.85448813;stroke-linecap:butt;stroke-linejoin:miter;stroke-miterlimit:10;stroke-dasharray:none;stroke-opacity:1" /><path
       inkscape:connector-curvature="0"
       id="path10428"
       d="m 179.70848,274.99741 v 0 m 0,0 h -8.50394 m 0,0 v 17.00787 m 0,0 h 8.50394 m 0,0 v -17.00787"
       style="fill:none;stroke:#ff0000;stroke-width:2.85448813;stroke-linecap:butt;stroke-linejoin:miter;stroke-miterlimit:10;stroke-dasharray:none;stroke-opacity:1" /><path
       inkscape:connector-curvature="0"
       id="path10430"
       d="m 179.70848,309.01316 v 0 m 0,0 h -8.50394 m 0,0 v 17.00787 m 0,0 h 8.50394 m 0,0 v -17.00787"
       style="fill:none;stroke:#ff0000;stroke-width:2.85448813;stroke-linecap:butt;stroke-linejoin:miter;stroke-miterlimit:10;stroke-dasharray:none;stroke-opacity:1" /><path
       inkscape:connector-curvature="0"
       id="path10432"
       d="m 179.70848,343.0289 v 0 m 0,0 h -8.50394 m 0,0 v 17.00788 m 0,0 h 8.50394 m 0,0 V 343.0289"
       style="fill:none;stroke:#ff0000;stroke-width:2.85448813;stroke-linecap:butt;stroke-linejoin:miter;stroke-miterlimit:10;stroke-dasharray:none;stroke-opacity:1" /><path
       inkscape:connector-curvature="0"
       id="path10434"
       d="m 179.70848,377.04465 v 0 m 0,0 h -8.50394 m 0,0 v 17.00788 m 0,0 h 8.50394 m 0,0 v -17.00788"
       style="fill:none;stroke:#ff0000;stroke-width:2.85448813;stroke-linecap:butt;stroke-linejoin:miter;stroke-miterlimit:10;stroke-dasharray:none;stroke-opacity:1" /><path
       inkscape:connector-curvature="0"
       id="path10436"
       d="m 179.70848,411.0604 v 0 m 0,0 h -8.50394 m 0,0 v 17.00788 m 0,0 h 8.50394 m 0,0 V 411.0604"
       style="fill:none;stroke:#ff0000;stroke-width:2.85448813;stroke-linecap:butt;stroke-linejoin:miter;stroke-miterlimit:10;stroke-dasharray:none;stroke-opacity:1" /><path
       inkscape:connector-curvature="0"
       id="path10438"
       d="m 179.70848,445.07615 v 0 m 0,0 h -8.50394 m 0,0 v 17.00787 m 0,0 h 8.50394 m 0,0 v -17.00787"
       style="fill:none;stroke:#ff0000;stroke-width:2.85448813;stroke-linecap:butt;stroke-linejoin:miter;stroke-miterlimit:10;stroke-dasharray:none;stroke-opacity:1" /><path
       inkscape:connector-curvature="0"
       id="path10440"
       d="m 179.70848,479.0919 v 0 m 0,0 h -8.50394 m 0,0 v 17.00787 m 0,0 h 8.50394 m 0,0 V 479.0919"
       style="fill:none;stroke:#ff0000;stroke-width:2.85448813;stroke-linecap:butt;stroke-linejoin:miter;stroke-miterlimit:10;stroke-dasharray:none;stroke-opacity:1" /><path
       inkscape:connector-curvature="0"
       id="path10442"
       d="m 179.70848,513.10765 v 0 m 0,0 h -8.50394 m 0,0 v 17.00787 m 0,0 h 8.50394 m 0,0 v -17.00787"
       style="fill:none;stroke:#ff0000;stroke-width:2.85448813;stroke-linecap:butt;stroke-linejoin:miter;stroke-miterlimit:10;stroke-dasharray:none;stroke-opacity:1" /><path
       inkscape:connector-curvature="0"
       id="path10444"
       d="m 179.70848,547.12339 v 0 m 0,0 h -8.50394 m 0,0 v 17.00788 m 0,0 h 8.50394 m 0,0 v -17.00788"
       style="fill:none;stroke:#ff0000;stroke-width:2.85448813;stroke-linecap:butt;stroke-linejoin:miter;stroke-miterlimit:10;stroke-dasharray:none;stroke-opacity:1" /><path
       inkscape:connector-curvature="0"
       id="path10446"
       d="m 179.70848,581.13914 v 0 m 0,0 h -8.50394 m 0,0 v 17.00788 m 0,0 h 8.50394 m 0,0 v -17.00788"
       style="fill:none;stroke:#ff0000;stroke-width:2.85448813;stroke-linecap:butt;stroke-linejoin:miter;stroke-miterlimit:10;stroke-dasharray:none;stroke-opacity:1" /><path
       inkscape:connector-curvature="0"
       id="path10448"
       d="m 179.70848,615.15489 v 0 m 0,0 h -8.50394 m 0,0 v 17.00788 m 0,0 h 8.50394 m 0,0 v -17.00788"
       style="fill:none;stroke:#ff0000;stroke-width:2.85448813;stroke-linecap:butt;stroke-linejoin:miter;stroke-miterlimit:10;stroke-dasharray:none;stroke-opacity:1" /><path
       inkscape:connector-curvature="0"
       id="path10450"
       d="m 329.23604,104.91867 v 0 m 0,0 h -8.50394 m 0,0 v 17.00787 m 0,0 h 8.50394 m 0,0 v -17.00787"
       style="fill:none;stroke:#ff0000;stroke-width:2.85448813;stroke-linecap:butt;stroke-linejoin:miter;stroke-miterlimit:10;stroke-dasharray:none;stroke-opacity:1" /><path
       inkscape:connector-curvature="0"
       id="path10452"
       d="m 329.23604,138.93441 v 0 m 0,0 h -8.50394 m 0,0 v 17.00788 m 0,0 h 8.50394 m 0,0 v -17.00788"
       style="fill:none;stroke:#ff0000;stroke-width:2.85448813;stroke-linecap:butt;stroke-linejoin:miter;stroke-miterlimit:10;stroke-dasharray:none;stroke-opacity:1" /><path
       inkscape:connector-curvature="0"
       id="path10454"
       d="m 329.23604,172.95016 v 0 m 0,0 h -8.50394 m 0,0 v 17.00788 m 0,0 h 8.50394 m 0,0 v -17.00788"
       style="fill:none;stroke:#ff0000;stroke-width:2.85448813;stroke-linecap:butt;stroke-linejoin:miter;stroke-miterlimit:10;stroke-dasharray:none;stroke-opacity:1" /><path
       inkscape:connector-curvature="0"
       id="path10456"
       d="m 329.23604,206.96591 v 0 m 0,0 h -8.50394 m 0,0 v 17.00787 m 0,0 h 8.50394 m 0,0 v -17.00787"
       style="fill:none;stroke:#ff0000;stroke-width:2.85448813;stroke-linecap:butt;stroke-linejoin:miter;stroke-miterlimit:10;stroke-dasharray:none;stroke-opacity:1" /><path
       inkscape:connector-curvature="0"
       id="path10458"
       d="m 329.23604,240.98166 v 0 m 0,0 h -8.50394 m 0,0 v 17.00787 m 0,0 h 8.50394 m 0,0 v -17.00787"
       style="fill:none;stroke:#ff0000;stroke-width:2.85448813;stroke-linecap:butt;stroke-linejoin:miter;stroke-miterlimit:10;stroke-dasharray:none;stroke-opacity:1" /><path
       inkscape:connector-curvature="0"
       id="path10460"
       d="m 329.23604,274.99741 v 0 m 0,0 h -8.50394 m 0,0 v 17.00787 m 0,0 h 8.50394 m 0,0 v -17.00787"
       style="fill:none;stroke:#ff0000;stroke-width:2.85448813;stroke-linecap:butt;stroke-linejoin:miter;stroke-miterlimit:10;stroke-dasharray:none;stroke-opacity:1" /><path
       inkscape:connector-curvature="0"
       id="path10462"
       d="m 329.23604,309.01316 v 0 m 0,0 h -8.50394 m 0,0 v 17.00787 m 0,0 h 8.50394 m 0,0 v -17.00787"
       style="fill:none;stroke:#ff0000;stroke-width:2.85448813;stroke-linecap:butt;stroke-linejoin:miter;stroke-miterlimit:10;stroke-dasharray:none;stroke-opacity:1" /><path
       inkscape:connector-curvature="0"
       id="path10464"
       d="m 329.23604,343.0289 v 0 m 0,0 h -8.50394 m 0,0 v 17.00788 m 0,0 h 8.50394 m 0,0 V 343.0289"
       style="fill:none;stroke:#ff0000;stroke-width:2.85448813;stroke-linecap:butt;stroke-linejoin:miter;stroke-miterlimit:10;stroke-dasharray:none;stroke-opacity:1" /><path
       inkscape:connector-curvature="0"
       id="path10466"
       d="m 329.23604,377.04465 v 0 m 0,0 h -8.50394 m 0,0 v 17.00788 m 0,0 h 8.50394 m 0,0 v -17.00788"
       style="fill:none;stroke:#ff0000;stroke-width:2.85448813;stroke-linecap:butt;stroke-linejoin:miter;stroke-miterlimit:10;stroke-dasharray:none;stroke-opacity:1" /><path
       inkscape:connector-curvature="0"
       id="path10468"
       d="m 329.23604,411.0604 v 0 m 0,0 h -8.50394 m 0,0 v 17.00788 m 0,0 h 8.50394 m 0,0 V 411.0604"
       style="fill:none;stroke:#ff0000;stroke-width:2.85448813;stroke-linecap:butt;stroke-linejoin:miter;stroke-miterlimit:10;stroke-dasharray:none;stroke-opacity:1" /><path
       inkscape:connector-curvature="0"
       id="path10470"
       d="m 329.23604,445.07615 v 0 m 0,0 h -8.50394 m 0,0 v 17.00787 m 0,0 h 8.50394 m 0,0 v -17.00787"
       style="fill:none;stroke:#ff0000;stroke-width:2.85448813;stroke-linecap:butt;stroke-linejoin:miter;stroke-miterlimit:10;stroke-dasharray:none;stroke-opacity:1" /><path
       inkscape:connector-curvature="0"
       id="path10472"
       d="m 329.23604,479.0919 v 0 m 0,0 h -8.50394 m 0,0 v 17.00787 m 0,0 h 8.50394 m 0,0 V 479.0919"
       style="fill:none;stroke:#ff0000;stroke-width:2.85448813;stroke-linecap:butt;stroke-linejoin:miter;stroke-miterlimit:10;stroke-dasharray:none;stroke-opacity:1" /><path
       inkscape:connector-curvature="0"
       id="path10474"
       d="m 329.23604,513.10765 v 0 m 0,0 h -8.50394 m 0,0 v 17.00787 m 0,0 h 8.50394 m 0,0 v -17.00787"
       style="fill:none;stroke:#ff0000;stroke-width:2.85448813;stroke-linecap:butt;stroke-linejoin:miter;stroke-miterlimit:10;stroke-dasharray:none;stroke-opacity:1" /><path
       inkscape:connector-curvature="0"
       id="path10476"
       d="m 329.23604,547.12339 v 0 m 0,0 h -8.50394 m 0,0 v 17.00788 m 0,0 h 8.50394 m 0,0 v -17.00788"
       style="fill:none;stroke:#ff0000;stroke-width:2.85448813;stroke-linecap:butt;stroke-linejoin:miter;stroke-miterlimit:10;stroke-dasharray:none;stroke-opacity:1" /><path
       inkscape:connector-curvature="0"
       id="path10478"
       d="m 329.23604,581.13914 v 0 m 0,0 h -8.50394 m 0,0 v 17.00788 m 0,0 h 8.50394 m 0,0 v -17.00788"
       style="fill:none;stroke:#ff0000;stroke-width:2.85448813;stroke-linecap:butt;stroke-linejoin:miter;stroke-miterlimit:10;stroke-dasharray:none;stroke-opacity:1" /><path
       inkscape:connector-curvature="0"
       id="path10480"
       d="m 329.23604,615.15489 v 0 m 0,0 h -8.50394 m 0,0 v 17.00788 m 0,0 h 8.50394 m 0,0 v -17.00788"
       style="fill:none;stroke:#ff0000;stroke-width:2.85448813;stroke-linecap:butt;stroke-linejoin:miter;stroke-miterlimit:10;stroke-dasharray:none;stroke-opacity:1" /><path
       inkscape:connector-curvature="0"
       id="path10482"
       d="m 478.7636,104.91867 v 0 m 0,0 h -8.50394 m 0,0 v 17.00787 m 0,0 h 8.50394 m 0,0 v -17.00787"
       style="fill:none;stroke:#ff0000;stroke-width:2.85448813;stroke-linecap:butt;stroke-linejoin:miter;stroke-miterlimit:10;stroke-dasharray:none;stroke-opacity:1" /><path
       inkscape:connector-curvature="0"
       id="path10484"
       d="m 478.7636,138.93441 v 0 m 0,0 h -8.50394 m 0,0 v 17.00788 m 0,0 h 8.50394 m 0,0 v -17.00788"
       style="fill:none;stroke:#ff0000;stroke-width:2.85448813;stroke-linecap:butt;stroke-linejoin:miter;stroke-miterlimit:10;stroke-dasharray:none;stroke-opacity:1" /><path
       inkscape:connector-curvature="0"
       id="path10486"
       d="m 478.7636,172.95016 v 0 m 0,0 h -8.50394 m 0,0 v 17.00788 m 0,0 h 8.50394 m 0,0 v -17.00788"
       style="fill:none;stroke:#ff0000;stroke-width:2.85448813;stroke-linecap:butt;stroke-linejoin:miter;stroke-miterlimit:10;stroke-dasharray:none;stroke-opacity:1" /><path
       inkscape:connector-curvature="0"
       id="path10488"
       d="m 478.7636,206.96591 v 0 m 0,0 h -8.50394 m 0,0 v 17.00787 m 0,0 h 8.50394 m 0,0 v -17.00787"
       style="fill:none;stroke:#ff0000;stroke-width:2.85448813;stroke-linecap:butt;stroke-linejoin:miter;stroke-miterlimit:10;stroke-dasharray:none;stroke-opacity:1" /><path
       inkscape:connector-curvature="0"
       id="path10490"
       d="m 478.7636,240.98166 v 0 m 0,0 h -8.50394 m 0,0 v 17.00787 m 0,0 h 8.50394 m 0,0 v -17.00787"
       style="fill:none;stroke:#ff0000;stroke-width:2.85448813;stroke-linecap:butt;stroke-linejoin:miter;stroke-miterlimit:10;stroke-dasharray:none;stroke-opacity:1" /><path
       inkscape:connector-curvature="0"
       id="path10492"
       d="m 478.7636,274.99741 v 0 m 0,0 h -8.50394 m 0,0 v 17.00787 m 0,0 h 8.50394 m 0,0 v -17.00787"
       style="fill:none;stroke:#ff0000;stroke-width:2.85448813;stroke-linecap:butt;stroke-linejoin:miter;stroke-miterlimit:10;stroke-dasharray:none;stroke-opacity:1" /><path
       inkscape:connector-curvature="0"
       id="path10494"
       d="m 478.7636,309.01316 v 0 m 0,0 h -8.50394 m 0,0 v 17.00787 m 0,0 h 8.50394 m 0,0 v -17.00787"
       style="fill:none;stroke:#ff0000;stroke-width:2.85448813;stroke-linecap:butt;stroke-linejoin:miter;stroke-miterlimit:10;stroke-dasharray:none;stroke-opacity:1" /><path
       inkscape:connector-curvature="0"
       id="path10496"
       d="m 478.7636,343.0289 v 0 m 0,0 h -8.50394 m 0,0 v 17.00788 m 0,0 h 8.50394 m 0,0 V 343.0289"
       style="fill:none;stroke:#ff0000;stroke-width:2.85448813;stroke-linecap:butt;stroke-linejoin:miter;stroke-miterlimit:10;stroke-dasharray:none;stroke-opacity:1" /><path
       inkscape:connector-curvature="0"
       id="path10498"
       d="m 478.7636,377.04465 v 0 m 0,0 h -8.50394 m 0,0 v 17.00788 m 0,0 h 8.50394 m 0,0 v -17.00788"
       style="fill:none;stroke:#ff0000;stroke-width:2.85448813;stroke-linecap:butt;stroke-linejoin:miter;stroke-miterlimit:10;stroke-dasharray:none;stroke-opacity:1" /><path
       inkscape:connector-curvature="0"
       id="path10500"
       d="m 478.7636,411.0604 v 0 m 0,0 h -8.50394 m 0,0 v 17.00788 m 0,0 h 8.50394 m 0,0 V 411.0604"
       style="fill:none;stroke:#ff0000;stroke-width:2.85448813;stroke-linecap:butt;stroke-linejoin:miter;stroke-miterlimit:10;stroke-dasharray:none;stroke-opacity:1" /><path
       inkscape:connector-curvature="0"
       id="path10502"
       d="m 478.7636,445.07615 v 0 m 0,0 h -8.50394 m 0,0 v 17.00787 m 0,0 h 8.50394 m 0,0 v -17.00787"
       style="fill:none;stroke:#ff0000;stroke-width:2.85448813;stroke-linecap:butt;stroke-linejoin:miter;stroke-miterlimit:10;stroke-dasharray:none;stroke-opacity:1" /><path
       inkscape:connector-curvature="0"
       id="path10504"
       d="m 478.7636,479.0919 v 0 m 0,0 h -8.50394 m 0,0 v 17.00787 m 0,0 h 8.50394 m 0,0 V 479.0919"
       style="fill:none;stroke:#ff0000;stroke-width:2.85448813;stroke-linecap:butt;stroke-linejoin:miter;stroke-miterlimit:10;stroke-dasharray:none;stroke-opacity:1" /><path
       inkscape:connector-curvature="0"
       id="path10506"
       d="m 478.7636,513.10765 v 0 m 0,0 h -8.50394 m 0,0 v 17.00787 m 0,0 h 8.50394 m 0,0 v -17.00787"
       style="fill:none;stroke:#ff0000;stroke-width:2.85448813;stroke-linecap:butt;stroke-linejoin:miter;stroke-miterlimit:10;stroke-dasharray:none;stroke-opacity:1" /><path
       inkscape:connector-curvature="0"
       id="path10508"
       d="m 478.7636,547.12339 v 0 m 0,0 h -8.50394 m 0,0 v 17.00788 m 0,0 h 8.50394 m 0,0 v -17.00788"
       style="fill:none;stroke:#ff0000;stroke-width:2.85448813;stroke-linecap:butt;stroke-linejoin:miter;stroke-miterlimit:10;stroke-dasharray:none;stroke-opacity:1" /><path
       inkscape:connector-curvature="0"
       id="path10510"
       d="m 478.7636,581.13914 v 0 m 0,0 h -8.50394 m 0,0 v 17.00788 m 0,0 h 8.50394 m 0,0 v -17.00788"
       style="fill:none;stroke:#ff0000;stroke-width:2.85448813;stroke-linecap:butt;stroke-linejoin:miter;stroke-miterlimit:10;stroke-dasharray:none;stroke-opacity:1" /><path
       inkscape:connector-curvature="0"
       id="path10512"
       d="m 478.7636,615.15489 v 0 m 0,0 h -8.50394 m 0,0 v 17.00788 m 0,0 h 8.50394 m 0,0 v -17.00788"
       style="fill:none;stroke:#ff0000;stroke-width:2.85448813;stroke-linecap:butt;stroke-linejoin:miter;stroke-miterlimit:10;stroke-dasharray:none;stroke-opacity:1" /><path
       inkscape:connector-curvature="0"
       id="path10514"
       d="m 30.180919,100.6667 h 14.173229 m 0,0 v 0 m 0,0 v -8.50394 m 0,0 h 17.007874 m 0,0 v 8.50394 m 0,0 h 17.007874 m 0,0 v 0 m 0,0 v -8.50394 m 0,0 H 95.37777 m 0,0 v 8.50394 m 0,0 h 17.00787 m 0,0 v 0 m 0,0 v -8.50394 m 0,0 h 17.00788 m 0,0 v 8.50394 m 0,0 h 17.00787 m 0,0 v 0 m 0,0 v -8.50394 m 0,0 h 17.00788 m 0,0 v 8.50394 m 0,0 h 17.00787 m 0,0 v 0 m 0,0 v -8.50394 m 0,0 h 17.00788 m 0,0 v 8.50394 m 0,0 h 17.00787 m 0,0 v 0 m 0,0 v -8.50394 m 0,0 h 17.00787 m 0,0 v 8.50394 m 0,0 h 17.00788 m 0,0 v 0 m 0,0 v -8.50394 m 0,0 h 17.00787 m 0,0 v 8.50394 m 0,0 h 17.00788 m 0,0 v 0 m 0,0 v -8.50394 m 0,0 h 17.00787 m 0,0 v 8.50394 m 0,0 h 17.00788 m 0,0 v 0 m 0,0 v -8.50394 m 0,0 h 17.00787 m 0,0 v 8.50394 m 0,0 h 17.00787 m 0,0 v 0 m 0,0 v -8.50394 m 0,0 h 17.00788 m 0,0 v 8.50394 m 0,0 h 17.00787 m 0,0 v 0 m 0,0 v -8.50394 m 0,0 h 17.00788 m 0,0 v 8.50394 m 0,0 h 17.00787 m 0,0 v 0 m 0,0 v -8.50394 m 0,0 h 17.00787 m 0,0 v 8.50394 m 0,0 h 17.00788 m 0,0 v 0 m 0,0 v -8.50394 m 0,0 H 469.551 m 0,0 v 8.50394 m 0,0 h 17.00788 m 0,0 v 0 m 0,0 v -8.50394 m 0,0 h 17.00787 m 0,0 v 8.50394 m 0,0 h 17.00788 m 0,0 v 0 m 0,0 v -8.50394 m 0,0 h 17.00787 m 0,0 v 8.50394 m 0,0 h 17.00787 m 0,0 v 0 m 0,0 v -8.50394 m 0,0 h 17.00788 m 0,0 v 8.50394 m 0,0 h 17.00787 m 0,0 v 0 m 0,0 v -8.50394 m 0,0 H 605.614 m 0,0 v 8.50394 m 0,0 h 14.17322 m 0,0 v 0 m 0,0 v 0 m 0,131.81102"
       style="fill:none;stroke:#ff0000;stroke-width:2.85448813;stroke-linecap:butt;stroke-linejoin:miter;stroke-miterlimit:10;stroke-dasharray:none;stroke-opacity:1" /><path
       inkscape:connector-curvature="0"
       id="path10516"
       d="m 608.80297,236.72969 v 0 m 0,0 v -8.50394 m 0,0 H 591.7951 m 0,0 v 8.50394 m 0,0 h 17.00787"
       style="fill:none;stroke:#ff0000;stroke-width:2.85448813;stroke-linecap:butt;stroke-linejoin:miter;stroke-miterlimit:10;stroke-dasharray:none;stroke-opacity:1" /><path
       inkscape:connector-curvature="0"
       id="path10518"
       d="m 574.78722,236.72969 v 0 m 0,0 v -8.50394 m 0,0 h -17.00787 m 0,0 v 8.50394 m 0,0 h 17.00787"
       style="fill:none;stroke:#ff0000;stroke-width:2.85448813;stroke-linecap:butt;stroke-linejoin:miter;stroke-miterlimit:10;stroke-dasharray:none;stroke-opacity:1" /><path
       inkscape:connector-curvature="0"
       id="path10520"
       d="m 540.77148,236.72969 v 0 m 0,0 v -8.50394 m 0,0 H 523.7636 m 0,0 v 8.50394 m 0,0 h 17.00788"
       style="fill:none;stroke:#ff0000;stroke-width:2.85448813;stroke-linecap:butt;stroke-linejoin:miter;stroke-miterlimit:10;stroke-dasharray:none;stroke-opacity:1" /><path
       inkscape:connector-curvature="0"
       id="path10522"
       d="m 506.75573,236.72969 v 0 m 0,0 v -8.50394 m 0,0 h -17.00788 m 0,0 v 8.50394 m 0,0 h 17.00788"
       style="fill:none;stroke:#ff0000;stroke-width:2.85448813;stroke-linecap:butt;stroke-linejoin:miter;stroke-miterlimit:10;stroke-dasharray:none;stroke-opacity:1" /><path
       inkscape:connector-curvature="0"
       id="path10524"
       d="m 459.27541,236.72969 v 0 m 0,0 v -8.50394 m 0,0 h -17.00787 m 0,0 v 8.50394 m 0,0 h 17.00787"
       style="fill:none;stroke:#ff0000;stroke-width:2.85448813;stroke-linecap:butt;stroke-linejoin:miter;stroke-miterlimit:10;stroke-dasharray:none;stroke-opacity:1" /><path
       inkscape:connector-curvature="0"
       id="path10526"
       d="m 425.25966,236.72969 v 0 m 0,0 v -8.50394 m 0,0 h -17.00787 m 0,0 v 8.50394 m 0,0 h 17.00787"
       style="fill:none;stroke:#ff0000;stroke-width:2.85448813;stroke-linecap:butt;stroke-linejoin:miter;stroke-miterlimit:10;stroke-dasharray:none;stroke-opacity:1" /><path
       inkscape:connector-curvature="0"
       id="path10528"
       d="m 391.24392,236.72969 v 0 m 0,0 v -8.50394 m 0,0 h -17.00788 m 0,0 v 8.50394 m 0,0 h 17.00788"
       style="fill:none;stroke:#ff0000;stroke-width:2.85448813;stroke-linecap:butt;stroke-linejoin:miter;stroke-miterlimit:10;stroke-dasharray:none;stroke-opacity:1" /><path
       inkscape:connector-curvature="0"
       id="path10530"
       d="m 357.22817,236.72969 v 0 m 0,0 v -8.50394 m 0,0 h -17.00788 m 0,0 v 8.50394 m 0,0 h 17.00788"
       style="fill:none;stroke:#ff0000;stroke-width:2.85448813;stroke-linecap:butt;stroke-linejoin:miter;stroke-miterlimit:10;stroke-dasharray:none;stroke-opacity:1" /><path
       inkscape:connector-curvature="0"
       id="path10532"
       d="m 309.74785,236.72969 v 0 m 0,0 v -8.50394 m 0,0 h -17.00787 m 0,0 v 8.50394 m 0,0 h 17.00787"
       style="fill:none;stroke:#ff0000;stroke-width:2.85448813;stroke-linecap:butt;stroke-linejoin:miter;stroke-miterlimit:10;stroke-dasharray:none;stroke-opacity:1" /><path
       inkscape:connector-curvature="0"
       id="path10534"
       d="m 275.7321,236.72969 v 0 m 0,0 v -8.50394 m 0,0 h -17.00787 m 0,0 v 8.50394 m 0,0 h 17.00787"
       style="fill:none;stroke:#ff0000;stroke-width:2.85448813;stroke-linecap:butt;stroke-linejoin:miter;stroke-miterlimit:10;stroke-dasharray:none;stroke-opacity:1" /><path
       inkscape:connector-curvature="0"
       id="path10536"
       d="m 241.71635,236.72969 v 0 m 0,0 v -8.50394 m 0,0 h -17.00787 m 0,0 v 8.50394 m 0,0 h 17.00787"
       style="fill:none;stroke:#ff0000;stroke-width:2.85448813;stroke-linecap:butt;stroke-linejoin:miter;stroke-miterlimit:10;stroke-dasharray:none;stroke-opacity:1" /><path
       inkscape:connector-curvature="0"
       id="path10538"
       d="m 207.70061,236.72969 v 0 m 0,0 v -8.50394 m 0,0 h -17.00788 m 0,0 v 8.50394 m 0,0 h 17.00788"
       style="fill:none;stroke:#ff0000;stroke-width:2.85448813;stroke-linecap:butt;stroke-linejoin:miter;stroke-miterlimit:10;stroke-dasharray:none;stroke-opacity:1" /><path
       inkscape:connector-curvature="0"
       id="path10540"
       d="m 160.22029,236.72969 v 0 m 0,0 v -8.50394 m 0,0 h -17.00787 m 0,0 v 8.50394 m 0,0 h 17.00787"
       style="fill:none;stroke:#ff0000;stroke-width:2.85448813;stroke-linecap:butt;stroke-linejoin:miter;stroke-miterlimit:10;stroke-dasharray:none;stroke-opacity:1" /><path
       inkscape:connector-curvature="0"
       id="path10542"
       d="m 126.20454,236.72969 v 0 m 0,0 v -8.50394 m 0,0 h -17.00787 m 0,0 v 8.50394 m 0,0 h 17.00787"
       style="fill:none;stroke:#ff0000;stroke-width:2.85448813;stroke-linecap:butt;stroke-linejoin:miter;stroke-miterlimit:10;stroke-dasharray:none;stroke-opacity:1" /><path
       inkscape:connector-curvature="0"
       id="path10544"
       d="m 92.188794,236.72969 v 0 m 0,0 v -8.50394 m 0,0 H 75.18092 m 0,0 v 8.50394 m 0,0 h 17.007874"
       style="fill:none;stroke:#ff0000;stroke-width:2.85448813;stroke-linecap:butt;stroke-linejoin:miter;stroke-miterlimit:10;stroke-dasharray:none;stroke-opacity:1" /><path
       inkscape:connector-curvature="0"
       id="path10546"
       d="m 58.173046,236.72969 v 0 m 0,0 v -8.50394 m 0,0 H 41.165171 m 0,0 v 8.50394 m 0,0 h 17.007875"
       style="fill:none;stroke:#ff0000;stroke-width:2.85448813;stroke-linecap:butt;stroke-linejoin:miter;stroke-miterlimit:10;stroke-dasharray:none;stroke-opacity:1" /><path
       inkscape:connector-curvature="0"
       id="path10548"
       d="m 608.80297,372.79268 v 0 m 0,0 v -8.50393 m 0,0 H 591.7951 m 0,0 v 8.50393 m 0,0 h 17.00787"
       style="fill:none;stroke:#ff0000;stroke-width:2.85448813;stroke-linecap:butt;stroke-linejoin:miter;stroke-miterlimit:10;stroke-dasharray:none;stroke-opacity:1" /><path
       inkscape:connector-curvature="0"
       id="path10550"
       d="m 574.78722,372.79268 v 0 m 0,0 v -8.50393 m 0,0 h -17.00787 m 0,0 v 8.50393 m 0,0 h 17.00787"
       style="fill:none;stroke:#ff0000;stroke-width:2.85448813;stroke-linecap:butt;stroke-linejoin:miter;stroke-miterlimit:10;stroke-dasharray:none;stroke-opacity:1" /><path
       inkscape:connector-curvature="0"
       id="path10552"
       d="m 540.77148,372.79268 v 0 m 0,0 v -8.50393 m 0,0 H 523.7636 m 0,0 v 8.50393 m 0,0 h 17.00788"
       style="fill:none;stroke:#ff0000;stroke-width:2.85448813;stroke-linecap:butt;stroke-linejoin:miter;stroke-miterlimit:10;stroke-dasharray:none;stroke-opacity:1" /><path
       inkscape:connector-curvature="0"
       id="path10554"
       d="m 506.75573,372.79268 v 0 m 0,0 v -8.50393 m 0,0 h -17.00788 m 0,0 v 8.50393 m 0,0 h 17.00788"
       style="fill:none;stroke:#ff0000;stroke-width:2.85448813;stroke-linecap:butt;stroke-linejoin:miter;stroke-miterlimit:10;stroke-dasharray:none;stroke-opacity:1" /><path
       inkscape:connector-curvature="0"
       id="path10556"
       d="m 459.27541,372.79268 v 0 m 0,0 v -8.50393 m 0,0 h -17.00787 m 0,0 v 8.50393 m 0,0 h 17.00787"
       style="fill:none;stroke:#ff0000;stroke-width:2.85448813;stroke-linecap:butt;stroke-linejoin:miter;stroke-miterlimit:10;stroke-dasharray:none;stroke-opacity:1" /><path
       inkscape:connector-curvature="0"
       id="path10558"
       d="m 425.25966,372.79268 v 0 m 0,0 v -8.50393 m 0,0 h -17.00787 m 0,0 v 8.50393 m 0,0 h 17.00787"
       style="fill:none;stroke:#ff0000;stroke-width:2.85448813;stroke-linecap:butt;stroke-linejoin:miter;stroke-miterlimit:10;stroke-dasharray:none;stroke-opacity:1" /><path
       inkscape:connector-curvature="0"
       id="path10560"
       d="m 391.24392,372.79268 v 0 m 0,0 v -8.50393 m 0,0 h -17.00788 m 0,0 v 8.50393 m 0,0 h 17.00788"
       style="fill:none;stroke:#ff0000;stroke-width:2.85448813;stroke-linecap:butt;stroke-linejoin:miter;stroke-miterlimit:10;stroke-dasharray:none;stroke-opacity:1" /><path
       inkscape:connector-curvature="0"
       id="path10562"
       d="m 357.22817,372.79268 v 0 m 0,0 v -8.50393 m 0,0 h -17.00788 m 0,0 v 8.50393 m 0,0 h 17.00788"
       style="fill:none;stroke:#ff0000;stroke-width:2.85448813;stroke-linecap:butt;stroke-linejoin:miter;stroke-miterlimit:10;stroke-dasharray:none;stroke-opacity:1" /><path
       inkscape:connector-curvature="0"
       id="path10564"
       d="m 309.74785,372.79268 v 0 m 0,0 v -8.50393 m 0,0 h -17.00787 m 0,0 v 8.50393 m 0,0 h 17.00787"
       style="fill:none;stroke:#ff0000;stroke-width:2.85448813;stroke-linecap:butt;stroke-linejoin:miter;stroke-miterlimit:10;stroke-dasharray:none;stroke-opacity:1" /><path
       inkscape:connector-curvature="0"
       id="path10566"
       d="m 275.7321,372.79268 v 0 m 0,0 v -8.50393 m 0,0 h -17.00787 m 0,0 v 8.50393 m 0,0 h 17.00787"
       style="fill:none;stroke:#ff0000;stroke-width:2.85448813;stroke-linecap:butt;stroke-linejoin:miter;stroke-miterlimit:10;stroke-dasharray:none;stroke-opacity:1" /><path
       inkscape:connector-curvature="0"
       id="path10568"
       d="m 241.71635,372.79268 v 0 m 0,0 v -8.50393 m 0,0 h -17.00787 m 0,0 v 8.50393 m 0,0 h 17.00787"
       style="fill:none;stroke:#ff0000;stroke-width:2.85448813;stroke-linecap:butt;stroke-linejoin:miter;stroke-miterlimit:10;stroke-dasharray:none;stroke-opacity:1" /><path
       inkscape:connector-curvature="0"
       id="path10570"
       d="m 207.70061,372.79268 v 0 m 0,0 v -8.50393 m 0,0 h -17.00788 m 0,0 v 8.50393 m 0,0 h 17.00788"
       style="fill:none;stroke:#ff0000;stroke-width:2.85448813;stroke-linecap:butt;stroke-linejoin:miter;stroke-miterlimit:10;stroke-dasharray:none;stroke-opacity:1" /><path
       inkscape:connector-curvature="0"
       id="path10572"
       d="m 160.22029,372.79268 v 0 m 0,0 v -8.50393 m 0,0 h -17.00787 m 0,0 v 8.50393 m 0,0 h 17.00787"
       style="fill:none;stroke:#ff0000;stroke-width:2.85448813;stroke-linecap:butt;stroke-linejoin:miter;stroke-miterlimit:10;stroke-dasharray:none;stroke-opacity:1" /><path
       inkscape:connector-curvature="0"
       id="path10574"
       d="m 126.20454,372.79268 v 0 m 0,0 v -8.50393 m 0,0 h -17.00787 m 0,0 v 8.50393 m 0,0 h 17.00787"
       style="fill:none;stroke:#ff0000;stroke-width:2.85448813;stroke-linecap:butt;stroke-linejoin:miter;stroke-miterlimit:10;stroke-dasharray:none;stroke-opacity:1" /><path
       inkscape:connector-curvature="0"
       id="path10576"
       d="m 92.188794,372.79268 v 0 m 0,0 v -8.50393 m 0,0 H 75.18092 m 0,0 v 8.50393 m 0,0 h 17.007874"
       style="fill:none;stroke:#ff0000;stroke-width:2.85448813;stroke-linecap:butt;stroke-linejoin:miter;stroke-miterlimit:10;stroke-dasharray:none;stroke-opacity:1" /><path
       inkscape:connector-curvature="0"
       id="path10578"
       d="m 58.173046,372.79268 v 0 m 0,0 v -8.50393 m 0,0 H 41.165171 m 0,0 v 8.50393 m 0,0 h 17.007875"
       style="fill:none;stroke:#ff0000;stroke-width:2.85448813;stroke-linecap:butt;stroke-linejoin:miter;stroke-miterlimit:10;stroke-dasharray:none;stroke-opacity:1" /><path
       inkscape:connector-curvature="0"
       id="path10580"
       d="m 608.80297,508.85568 v 0 m 0,0 v -8.50394 m 0,0 H 591.7951 m 0,0 v 8.50394 m 0,0 h 17.00787"
       style="fill:none;stroke:#ff0000;stroke-width:2.85448813;stroke-linecap:butt;stroke-linejoin:miter;stroke-miterlimit:10;stroke-dasharray:none;stroke-opacity:1" /><path
       inkscape:connector-curvature="0"
       id="path10582"
       d="m 574.78722,508.85568 v 0 m 0,0 v -8.50394 m 0,0 h -17.00787 m 0,0 v 8.50394 m 0,0 h 17.00787"
       style="fill:none;stroke:#ff0000;stroke-width:2.85448813;stroke-linecap:butt;stroke-linejoin:miter;stroke-miterlimit:10;stroke-dasharray:none;stroke-opacity:1" /><path
       inkscape:connector-curvature="0"
       id="path10584"
       d="m 540.77148,508.85568 v 0 m 0,0 v -8.50394 m 0,0 H 523.7636 m 0,0 v 8.50394 m 0,0 h 17.00788"
       style="fill:none;stroke:#ff0000;stroke-width:2.85448813;stroke-linecap:butt;stroke-linejoin:miter;stroke-miterlimit:10;stroke-dasharray:none;stroke-opacity:1" /><path
       inkscape:connector-curvature="0"
       id="path10586"
       d="m 506.75573,508.85568 v 0 m 0,0 v -8.50394 m 0,0 h -17.00788 m 0,0 v 8.50394 m 0,0 h 17.00788"
       style="fill:none;stroke:#ff0000;stroke-width:2.85448813;stroke-linecap:butt;stroke-linejoin:miter;stroke-miterlimit:10;stroke-dasharray:none;stroke-opacity:1" /><path
       inkscape:connector-curvature="0"
       id="path10588"
       d="m 459.27541,508.85568 v 0 m 0,0 v -8.50394 m 0,0 h -17.00787 m 0,0 v 8.50394 m 0,0 h 17.00787"
       style="fill:none;stroke:#ff0000;stroke-width:2.85448813;stroke-linecap:butt;stroke-linejoin:miter;stroke-miterlimit:10;stroke-dasharray:none;stroke-opacity:1" /><path
       inkscape:connector-curvature="0"
       id="path10590"
       d="m 425.25966,508.85568 v 0 m 0,0 v -8.50394 m 0,0 h -17.00787 m 0,0 v 8.50394 m 0,0 h 17.00787"
       style="fill:none;stroke:#ff0000;stroke-width:2.85448813;stroke-linecap:butt;stroke-linejoin:miter;stroke-miterlimit:10;stroke-dasharray:none;stroke-opacity:1" /><path
       inkscape:connector-curvature="0"
       id="path10592"
       d="m 391.24392,508.85568 v 0 m 0,0 v -8.50394 m 0,0 h -17.00788 m 0,0 v 8.50394 m 0,0 h 17.00788"
       style="fill:none;stroke:#ff0000;stroke-width:2.85448813;stroke-linecap:butt;stroke-linejoin:miter;stroke-miterlimit:10;stroke-dasharray:none;stroke-opacity:1" /><path
       inkscape:connector-curvature="0"
       id="path10594"
       d="m 357.22817,508.85568 v 0 m 0,0 v -8.50394 m 0,0 h -17.00788 m 0,0 v 8.50394 m 0,0 h 17.00788"
       style="fill:none;stroke:#ff0000;stroke-width:2.85448813;stroke-linecap:butt;stroke-linejoin:miter;stroke-miterlimit:10;stroke-dasharray:none;stroke-opacity:1" /><path
       inkscape:connector-curvature="0"
       id="path10596"
       d="m 309.74785,508.85568 v 0 m 0,0 v -8.50394 m 0,0 h -17.00787 m 0,0 v 8.50394 m 0,0 h 17.00787"
       style="fill:none;stroke:#ff0000;stroke-width:2.85448813;stroke-linecap:butt;stroke-linejoin:miter;stroke-miterlimit:10;stroke-dasharray:none;stroke-opacity:1" /><path
       inkscape:connector-curvature="0"
       id="path10598"
       d="m 275.7321,508.85568 v 0 m 0,0 v -8.50394 m 0,0 h -17.00787 m 0,0 v 8.50394 m 0,0 h 17.00787"
       style="fill:none;stroke:#ff0000;stroke-width:2.85448813;stroke-linecap:butt;stroke-linejoin:miter;stroke-miterlimit:10;stroke-dasharray:none;stroke-opacity:1" /><path
       inkscape:connector-curvature="0"
       id="path10600"
       d="m 241.71635,508.85568 v 0 m 0,0 v -8.50394 m 0,0 h -17.00787 m 0,0 v 8.50394 m 0,0 h 17.00787"
       style="fill:none;stroke:#ff0000;stroke-width:2.85448813;stroke-linecap:butt;stroke-linejoin:miter;stroke-miterlimit:10;stroke-dasharray:none;stroke-opacity:1" /><path
       inkscape:connector-curvature="0"
       id="path10602"
       d="m 207.70061,508.85568 v 0 m 0,0 v -8.50394 m 0,0 h -17.00788 m 0,0 v 8.50394 m 0,0 h 17.00788"
       style="fill:none;stroke:#ff0000;stroke-width:2.85448813;stroke-linecap:butt;stroke-linejoin:miter;stroke-miterlimit:10;stroke-dasharray:none;stroke-opacity:1" /><path
       inkscape:connector-curvature="0"
       id="path10604"
       d="m 160.22029,508.85568 v 0 m 0,0 v -8.50394 m 0,0 h -17.00787 m 0,0 v 8.50394 m 0,0 h 17.00787"
       style="fill:none;stroke:#ff0000;stroke-width:2.85448813;stroke-linecap:butt;stroke-linejoin:miter;stroke-miterlimit:10;stroke-dasharray:none;stroke-opacity:1" /><path
       inkscape:connector-curvature="0"
       id="path10606"
       d="m 126.20454,508.85568 v 0 m 0,0 v -8.50394 m 0,0 h -17.00787 m 0,0 v 8.50394 m 0,0 h 17.00787"
       style="fill:none;stroke:#ff0000;stroke-width:2.85448813;stroke-linecap:butt;stroke-linejoin:miter;stroke-miterlimit:10;stroke-dasharray:none;stroke-opacity:1" /><path
       inkscape:connector-curvature="0"
       id="path10608"
       d="m 92.188794,508.85568 v 0 m 0,0 v -8.50394 m 0,0 H 75.18092 m 0,0 v 8.50394 m 0,0 h 17.007874"
       style="fill:none;stroke:#ff0000;stroke-width:2.85448813;stroke-linecap:butt;stroke-linejoin:miter;stroke-miterlimit:10;stroke-dasharray:none;stroke-opacity:1" /><path
       inkscape:connector-curvature="0"
       id="path10610"
       d="m 58.173046,508.85568 v 0 m 0,0 v -8.50394 m 0,0 H 41.165171 m 0,0 v 8.50394 m 0,0 h 17.007875"
       style="fill:none;stroke:#ff0000;stroke-width:2.85448813;stroke-linecap:butt;stroke-linejoin:miter;stroke-miterlimit:10;stroke-dasharray:none;stroke-opacity:1" /><path
       inkscape:connector-curvature="0"
       id="path10612"
       d="m 619.78722,100.6667 v 4.25197 m 0,0 v 0 m 0,0 h 8.50394 m 0,0 v 17.00787 m 0,0 h -8.50394 m 0,0 v 17.00787 m 0,0 v 0 m 0,0 h 8.50394 m 0,0 v 17.00788 m 0,0 h -8.50394 m 0,0 v 17.00787 m 0,0 v 0 m 0,0 h 8.50394 m 0,0 v 17.00788 m 0,0 h -8.50394 m 0,0 v 17.00787 m 0,0 v 0 m 0,0 h 8.50394 m 0,0 v 17.00787 m 0,0 h -8.50394 m 0,0 v 17.00788 m 0,0 v 0 m 0,0 h 8.50394 m 0,0 v 17.00787 m 0,0 h -8.50394 m 0,0 v 17.00788 m 0,0 v 0 m 0,0 h 8.50394 m 0,0 v 17.00787 m 0,0 h -8.50394 m 0,0 v 17.00788 m 0,0 v 0 m 0,0 h 8.50394 m 0,0 v 17.00787 m 0,0 h -8.50394 m 0,0 v 17.00787 m 0,0 v 0 m 0,0 h 8.50394 m 0,0 v 17.00788 m 0,0 h -8.50394 m 0,0 v 17.00787 m 0,0 v 0 m 0,0 h 8.50394 m 0,0 v 17.00788 m 0,0 h -8.50394 m 0,0 v 17.00787 m 0,0 v 0 m 0,0 h 8.50394 m 0,0 v 17.00788 m 0,0 h -8.50394 m 0,0 v 17.00787 m 0,0 v 0 m 0,0 h 8.50394 m 0,0 v 17.00787 m 0,0 h -8.50394 m 0,0 v 17.00788 m 0,0 v 0 m 0,0 h 8.50394 m 0,0 v 17.00787 m 0,0 h -8.50394 m 0,0 v 17.00788 m 0,0 v 0 m 0,0 h 8.50394 m 0,0 v 17.00787 m 0,0 h -8.50394 m 0,0 v 17.00787 m 0,0 v 0 m 0,0 h 8.50394 m 0,0 v 17.00788 m 0,0 h -8.50394 m 0,0 v 17.00787 m 0,0 v 0 m 0,0 h 8.50394 m 0,0 v 17.00788 m 0,0 h -8.50394 m 0,0 v 17.00787 m 0,0 v 0 m 0,0 h 8.50394 m 0,0 v 17.00788 m 0,0 h -8.50394 m 0,0 v 4.25196 m 0,0 v 0 m 0,0 v 0 m 0,0 H 605.614 m 0,0 v 0 m 0,0 v 8.50394 m 0,0 h -17.00788 m 0,0 v -8.50394 m 0,0 h -17.00787 m 0,0 v 0 m 0,0 v 8.50394 m 0,0 h -17.00788 m 0,0 v -8.50394 m 0,0 H 537.5825 m 0,0 v 0 m 0,0 v 8.50394 m 0,0 h -17.00787 m 0,0 v -8.50394 m 0,0 h -17.00788 m 0,0 v 0 m 0,0 v 8.50394 m 0,0 h -17.00787 m 0,0 v -8.50394 m 0,0 H 469.551 m 0,0 v 0 m 0,0 v 8.50394 m 0,0 h -17.00787 m 0,0 v -8.50394 m 0,0 h -17.00788 m 0,0 v 0 m 0,0 v 8.50394 m 0,0 h -17.00787 m 0,0 v -8.50394 m 0,0 h -17.00787 m 0,0 v 0 m 0,0 v 8.50394 m 0,0 h -17.00788 m 0,0 v -8.50394 m 0,0 h -17.00787 m 0,0 v 0 m 0,0 v 8.50394 m 0,0 h -17.00788 m 0,0 v -8.50394 m 0,0 h -17.00787 m 0,0 v 0 m 0,0 v 8.50394 m 0,0 h -17.00787 m 0,0 v -8.50394 m 0,0 h -17.00788 m 0,0 v 0 m 0,0 v 8.50394 m 0,0 h -17.00787 m 0,0 v -8.50394 m 0,0 h -17.00788 m 0,0 v 0 m 0,0 v 8.50394 m 0,0 h -17.00787 m 0,0 v -8.50394 m 0,0 h -17.00788 m 0,0 v 0 m 0,0 v 8.50394 m 0,0 h -17.00787 m 0,0 v -8.50394 m 0,0 h -17.00787 m 0,0 v 0 m 0,0 v 8.50394 m 0,0 h -17.00788 m 0,0 v -8.50394 m 0,0 h -17.00787 m 0,0 v 0 m 0,0 v 8.50394 m 0,0 h -17.00788 m 0,0 v -8.50394 m 0,0 h -17.00787 m 0,0 v 0 m 0,0 v 8.50394 m 0,0 h -17.00788 m 0,0 v -8.50394 m 0,0 H 95.37777 m 0,0 v 0 m 0,0 v 8.50394 m 0,0 H 78.369896 m 0,0 v -8.50394 m 0,0 H 61.362022 m 0,0 v 0 m 0,0 v 8.50394 m 0,0 H 44.354148 m 0,0 v -8.50394 m 0,0 H 30.180919 m 0,0 v 0 m 0,0 v 0 m 0,0 v -4.25196 m 0,0 v 0 m 0,0 h -8.503937 m 0,0 v -17.00788 m 0,0 h 8.503937 m 0,0 v -17.00787 m 0,0 v 0 m 0,0 h -8.503937 m 0,0 v -17.00788 m 0,0 h 8.503937 m 0,0 v -17.00787 m 0,0 v 0 m 0,0 h -8.503937 m 0,0 v -17.00788 m 0,0 h 8.503937 m 0,0 v -17.00787 m 0,0 v 0 m 0,0 h -8.503937 m 0,0 v -17.00787 m 0,0 h 8.503937 m 0,0 v -17.00788 m 0,0 v 0 m 0,0 h -8.503937 m 0,0 V 479.0919 m 0,0 h 8.503937 m 0,0 v -17.00788 m 0,0 v 0 m 0,0 h -8.503937 m 0,0 v -17.00787 m 0,0 h 8.503937 m 0,0 v -17.00787 m 0,0 v 0 m 0,0 h -8.503937 m 0,0 V 411.0604 m 0,0 h 8.503937 m 0,0 v -17.00787 m 0,0 v 0 m 0,0 h -8.503937 m 0,0 v -17.00788 m 0,0 h 8.503937 m 0,0 v -17.00787 m 0,0 v 0 m 0,0 h -8.503937 m 0,0 V 343.0289 m 0,0 h 8.503937 m 0,0 v -17.00787 m 0,0 v 0 m 0,0 h -8.503937 m 0,0 v -17.00787 m 0,0 h 8.503937 m 0,0 v -17.00788 m 0,0 v 0 m 0,0 h -8.503937 m 0,0 v -17.00787 m 0,0 h 8.503937 m 0,0 v -17.00788 m 0,0 v 0 m 0,0 h -8.503937 m 0,0 v -17.00787 m 0,0 h 8.503937 m 0,0 v -17.00788 m 0,0 v 0 m 0,0 h -8.503937 m 0,0 v -17.00787 m 0,0 h 8.503937 m 0,0 v -17.00787 m 0,0 v 0 m 0,0 h -8.503937 m 0,0 v -17.00788 m 0,0 h 8.503937 m 0,0 v -17.00787 m 0,0 v 0 m 0,0 h -8.503937 m 0,0 v -17.00788 m 0,0 h 8.503937 m 0,0 v -17.00787 m 0,0 v 0 m 0,0 h -8.503937 m 0,0 v -17.00787 m 0,0 h 8.503937 m 0,0 v -4.25197 m 0,0 v 0 m 0,0 v 0"
       style="fill:none;stroke:#ff0000;stroke-width:2.85448813;stroke-linecap:butt;stroke-linejoin:miter;stroke-miterlimit:10;stroke-dasharray:none;stroke-opacity:1" /><path
       style="fill:none;stroke:#ff0000;stroke-width:2.85448813;stroke-linecap:butt;stroke-linejoin:miter;stroke-miterlimit:10;stroke-dasharray:none;stroke-opacity:1"
       d="m 641.41948,656.25641 v -34.01518 h -8.50487 v -17.00844 h 8.50487 v -17.00816 h -8.50487 v -17.00674 h 8.50487 v -17.00844 h -8.50487 v -17.00844 h 8.50487 v -8.50338 h 10.98341 v -8.50478 h 17.00829 v 8.50478 h 17.0083 v -8.50478 h 17.00686 v 8.50478 h 17.0083 v -8.50478 h 17.0083 v 8.50478 h 17.0083 v -8.50478 h 17.00682 v 8.50478 h 10.98488 4.25097 4.25243 10.98487 v -8.50478 h 17.00683 v 8.50478 h 17.0083 v -8.50478 h 17.0083 v 8.50478 h 17.00832 v -8.50478 h 17.00683 v 8.50478 h 17.0083 v -8.50478 h 17.0083 v 8.50478 h 10.9834 4.25242 4.25245 10.9834 v -8.50478 h 17.0083 v 8.50478 h 17.0083 v -8.50478 h 17.00684 v 8.50478 h 17.0083 v -8.50478 h 17.0083 v 8.50478 h 17.0068 v -8.50478 h 17.0083 v 8.50478 h 10.9849 4.251 4.2524 10.9849 v -8.50478 h 17.0068 v 8.50478 h 17.0083 v -8.50478 h 17.0083 v 8.50478 h 17.0083 v -8.50478 h 17.0069 v 8.50478 h 17.0083 v -8.50478 h 17.0083 v 8.50478 h 10.9834 v 8.50338 h 8.5048 v 17.00844 h -8.5048 v 17.00844 h 8.5048 v 17.00674 h -8.5048 v 17.00816 h 8.5048 v 17.00844 h -8.5048 v 34.01518 l -15.8892,8.5e-4 c -0.2866,-29.49137 -24.2684,-53.25166 -53.7612,-53.2647 -29.4951,0 -53.4805,23.77106 -53.7671,53.2647 h -17.606 v -42.5211 h -8.5034 v 42.5211 h -15.8892 c -0.2866,-29.49137 -24.2684,-53.25166 -53.7612,-53.2647 -29.49566,0 -53.48189,23.77049 -53.76853,53.2647 h -17.60451 v -42.5211 h -8.50487 v 42.5211 h -15.88915 c -0.28664,-29.49081 -24.26755,-53.25081 -53.7598,-53.2647 -29.49565,0 -53.48188,23.77049 -53.76855,53.2647 h -17.60595 v -42.5211 h -8.5034 v 42.52025 l -15.88918,8.5e-4 c -0.28662,-29.49137 -24.26843,-53.25166 -53.76121,-53.2647 -29.49568,0 -53.48192,23.77049 -53.76856,53.2647 z"
       id="path10618"
       inkscape:connector-curvature="0"
       sodipodi:nodetypes="cccccccccccccccccccccccccccccccccccccccccccccccccccccccccccccccccccccccccccccccccccccccccccccccccccccccccccccccccccccccccccccc" /><path
       style="fill:none;stroke:#ff0000;stroke-width:2.85448813;stroke-linecap:butt;stroke-linejoin:miter;stroke-miterlimit:10;stroke-dasharray:none;stroke-opacity:1"
       d="m 641.04758,511.69032 v -34.01575 h -8.50487 v -17.00815 h 8.50487 v -17.00703 h -8.50487 v -17.00815 h 8.50487 v -17.00845 h -8.50487 v -17.00815 h 8.50487 v -8.50366 h 4.25097 v -8.50337 h 17.0083 v 8.50337 h 17.0083 v -8.50337 h 17.00686 v 8.50337 h 17.00827 v -8.50337 h 17.00833 v 8.50337 h 17.0083 v -8.50337 h 17.00682 v 8.50337 h 4.25245 v 85.04022 h 8.5034 v -85.04022 h 4.25242 v -8.50337 h 17.00836 v 8.50337 h 17.00682 v -8.50337 h 17.0083 v 8.50337 h 17.00827 v -8.50337 h 17.00836 v 8.50337 h 17.00677 v -8.50337 h 17.00835 v 8.50337 h 4.25243 v 85.04022 h 8.50342 v -85.04022 h 4.25243 v -8.50337 h 17.00685 v 8.50337 h 17.00827 v -8.50337 h 17.00833 v 8.50337 h 17.00679 v -8.50337 h 17.00835 v 8.50337 h 17.0083 v -8.50337 h 17.0083 v 8.50337 h 4.251 v 85.04022 h 8.5049 v -85.04022 h 4.2509 v -8.50337 h 17.0083 v 8.50337 h 17.0083 v -8.50337 h 17.0069 v 8.50337 h 17.0083 v -8.50337 h 17.0083 v 8.50337 h 17.0083 v -8.50337 h 17.0068 v 8.50337 h 4.2524 v 8.50366 h 8.5035 v 17.00815 h -8.5035 v 17.00845 h 8.5035 v 17.00815 h -8.5035 v 17.00703 h 8.5035 v 17.00815 h -8.5035 v 34.01575 l -9.3545,-10e-4 c -0.1216,-29.61525 -24.1605,-53.56035 -53.7758,-53.56659 -29.6171,0 -53.6586,23.94964 -53.7803,53.56659 h -28.5073 c -0.1216,-29.61525 -24.1605,-53.56035 -53.77591,-53.56659 -29.61706,0 -53.65851,23.94964 -53.78026,53.56659 h -28.50732 c -0.12161,-29.61468 -24.1596,-53.5595 -53.77442,-53.56659 -29.61711,0 -53.6586,23.94964 -53.78032,53.56659 h -28.50729 c -0.12161,-29.61525 -24.16051,-53.56035 -53.77587,-53.56659 -29.61708,0 -53.65859,23.95106 -53.78028,53.568 z"
       id="path10688"
       inkscape:connector-curvature="0"
       sodipodi:nodetypes="ccccccccccccccccccccccccccccccccccccccccccccccccccccccccccccccccccccccccccccccccccccccccccccccccccccccccccccccccccccc" /><path
       sodipodi:nodetypes="cccccccccccccccccccccccccccccccccccccccccccccccccccccccccccccccccccccccccccccccccccccccccccccccccccccccccccccccccccccccccccccc"
       inkscape:connector-curvature="0"
       id="path3284"
       d="m 34.727545,799.95026 v -34.01518 h -8.504882 v -17.00844 h 8.504882 v -17.00816 h -8.504882 v -17.00702 h 8.504882 V 697.9033 h -8.504882 v -17.00844 h 8.504882 v -8.50337 h 10.983398 v -8.50479 h 17.008302 v 8.50479 h 17.008299 v -8.50479 h 17.006837 v 8.50479 h 17.008299 v -8.50479 h 17.00831 v 8.50479 h 17.00829 v -8.50479 h 17.00684 v 8.50479 h 10.98486 4.25098 4.25244 10.98486 v -8.50479 h 17.00684 v 8.50479 h 17.0083 v -8.50479 h 17.0083 v 8.50479 h 17.0083 v -8.50479 h 17.00684 v 8.50479 h 17.00829 v -8.50479 h 17.00832 v 8.50479 h 10.98338 4.25245 4.25245 10.9834 v -8.50479 h 17.0083 v 8.50479 h 17.0083 v -8.50479 h 17.00682 v 8.50479 h 17.0083 v -8.50479 h 17.0083 v 8.50479 h 17.00683 v -8.50479 h 17.00833 v 8.50479 h 10.98484 4.25098 4.25245 10.98488 v -8.50479 h 17.00682 v 8.50479 h 17.0083 v -8.50479 h 17.0083 v 8.50479 h 17.0083 V 663.8867 H 579.333 v 8.50479 h 17.0083 v -8.50479 h 17.0083 v 8.50479 h 10.9834 v 8.50337 h 8.50491 V 697.9033 H 624.333 v 17.00816 h 8.50491 v 17.00702 H 624.333 v 17.00816 h 8.50491 v 17.00844 H 624.333 v 34.01518 l -15.88915,8.5e-4 c -0.28664,-29.49165 -24.26842,-53.25165 -53.76124,-53.26469 -29.49508,0 -53.48044,23.77077 -53.76707,53.26469 h -17.60596 v -42.5211 h -8.50343 v 42.5211 H 458.917 c -0.28664,-29.49165 -24.26842,-53.25165 -53.76124,-53.26469 -29.49565,0 -53.48188,23.77021 -53.76855,53.26469 h -17.60448 v -42.5211 h -8.5049 v 42.5211 h -15.88916 c -0.28661,-29.4908 -24.26753,-53.25108 -53.75976,-53.26469 -29.49566,0 -53.48189,23.77021 -53.76855,53.26469 H 184.2544 v -42.5211 h -8.50342 v 42.52025 l -15.88916,5.7e-4 c -0.28663,-29.49137 -24.26842,-53.25165 -53.76123,-53.26441 -29.49566,0 -53.481891,23.77021 -53.768553,53.26469 z"
       style="fill:none;stroke:#ff0000;stroke-width:2.85448813;stroke-linecap:butt;stroke-linejoin:miter;stroke-miterlimit:10;stroke-dasharray:none;stroke-opacity:1" /><path
       style="fill:none;stroke:#ff0000;stroke-width:2.85448813;stroke-linecap:butt;stroke-linejoin:miter;stroke-miterlimit:10;stroke-dasharray:none;stroke-opacity:1"
       d="m 652.68139,802.78491 v -34.01518 h -8.5049 v -17.00844 h 8.5049 v -17.00816 h -8.5049 v -17.00702 h 8.5049 v -17.00816 h -8.5049 v -17.00844 h 8.5049 v -8.50337 h 10.98337 v -8.50479 h 17.00833 v 8.50479 h 17.0083 v -8.50479 h 17.00682 v 8.50479 h 17.0083 v -8.50479 h 17.0083 v 8.50479 h 17.0083 v -8.50479 h 17.00683 v 8.50479 h 10.98487 4.25098 4.25245 10.98485 v -8.50479 h 17.00685 v 8.50479 h 17.0083 v -8.50479 h 17.0083 v 8.50479 h 17.0083 v -8.50479 h 17.00683 v 8.50479 h 17.0083 v -8.50479 h 17.00832 v 8.50479 h 10.98338 4.25245 4.25245 10.9834 v -8.50479 h 17.0083 v 8.50479 h 17.0083 v -8.50479 h 17.00683 v 8.50479 h 17.0083 v -8.50479 h 17.0083 v 8.50479 h 17.0068 v -8.50479 h 17.0083 v 8.50479 h 10.9849 4.251 4.2524 10.9849 v -8.50479 h 17.0068 v 8.50479 h 17.0083 v -8.50479 h 17.0083 v 8.50479 h 17.0083 v -8.50479 h 17.0068 v 8.50479 h 17.0083 v -8.50479 h 17.0083 v 8.50479 h 10.9834 v 8.50337 h 8.5049 v 17.00844 h -8.5049 v 17.00816 h 8.5049 v 17.00702 h -8.5049 v 17.00816 h 8.5049 v 17.00844 h -8.5049 v 34.01518 l -15.8891,8.5e-4 c -0.2866,-29.49165 -24.2684,-53.25165 -53.7612,-53.26469 -29.4951,0 -53.4805,23.77077 -53.7671,53.26469 h -17.606 v -42.5211 h -8.5034 v 42.5211 h -15.8892 c -0.2866,-29.49165 -24.2684,-53.25165 -53.7612,-53.26469 -29.49565,0 -53.48188,23.77021 -53.76855,53.26469 h -17.60448 v -42.5211 h -8.5049 v 42.5211 h -15.88916 c -0.28661,-29.4908 -24.26754,-53.25108 -53.75976,-53.26469 -29.49568,0 -53.48191,23.77021 -53.76855,53.26469 h -17.60596 v -42.5211 h -8.50343 v 42.52025 l -15.88915,5.7e-4 c -0.28664,-29.49137 -24.26842,-53.25165 -53.76124,-53.26441 -29.49565,0 -53.48188,23.77021 -53.76855,53.26469 z"
       id="path3286"
       inkscape:connector-curvature="0"
       sodipodi:nodetypes="cccccccccccccccccccccccccccccccccccccccccccccccccccccccccccccccccccccccccccccccccccccccccccccccccccccccccccccccccccccccccccccc" /><path
       sodipodi:nodetypes="ccccccccccccccccccccccccccccccccccccccccccccccccccccccccccccccccccccccccccccccccccccccccccccccccccccccccccccccccccccc"
       inkscape:connector-curvature="0"
       id="path3288"
       d="m 641.04758,369.95804 v -34.01575 h -8.50487 v -17.00816 h 8.50487 v -17.00702 h -8.50487 v -17.00816 h 8.50487 v -17.00844 h -8.50487 v -17.00816 h 8.50487 v -8.50365 h 4.25097 v -8.50337 h 17.0083 v 8.50337 h 17.0083 v -8.50337 h 17.00686 v 8.50337 h 17.00827 v -8.50337 h 17.00833 v 8.50337 h 17.0083 v -8.50337 h 17.00682 v 8.50337 h 4.25245 v 85.04022 h 8.5034 V 242.3987 h 4.25242 v -8.50337 h 17.00836 v 8.50337 h 17.00682 v -8.50337 h 17.0083 v 8.50337 h 17.00827 v -8.50337 h 17.00836 v 8.50337 h 17.00677 v -8.50337 h 17.00835 v 8.50337 h 4.25243 v 85.04022 h 8.50342 V 242.3987 h 4.25243 v -8.50337 h 17.00685 v 8.50337 h 17.00827 v -8.50337 h 17.00833 v 8.50337 h 17.00679 v -8.50337 h 17.00835 v 8.50337 h 17.0083 v -8.50337 h 17.0083 v 8.50337 h 4.251 v 85.04022 h 8.5049 V 242.3987 h 4.2509 v -8.50337 h 17.0083 v 8.50337 h 17.0083 v -8.50337 h 17.0069 v 8.50337 h 17.0083 v -8.50337 h 17.0083 v 8.50337 h 17.0083 v -8.50337 h 17.0068 v 8.50337 h 4.2524 v 8.50365 h 8.5035 v 17.00816 h -8.5035 v 17.00844 h 8.5035 v 17.00816 h -8.5035 v 17.00702 h 8.5035 v 17.00816 h -8.5035 v 34.01575 l -9.3545,-10e-4 c -0.1216,-29.61524 -24.1605,-53.56035 -53.7758,-53.56658 -29.6171,0 -53.6586,23.94964 -53.7803,53.56658 h -28.5073 c -0.1216,-29.61524 -24.1605,-53.56035 -53.77591,-53.56658 -29.61706,0 -53.65851,23.94964 -53.78026,53.56658 h -28.50732 c -0.12161,-29.61468 -24.1596,-53.5595 -53.77442,-53.56658 -29.61711,0 -53.6586,23.94964 -53.78032,53.56658 h -28.50729 c -0.12161,-29.61524 -24.16051,-53.56035 -53.77587,-53.56658 -29.61708,0 -53.65859,23.95105 -53.78028,53.568 z"
       style="fill:none;stroke:#ff0000;stroke-width:2.85448813;stroke-linecap:butt;stroke-linejoin:miter;stroke-miterlimit:10;stroke-dasharray:none;stroke-opacity:1" /><path
       style="fill:none;stroke:#ff0000;stroke-width:2.85448813;stroke-linecap:butt;stroke-linejoin:miter;stroke-miterlimit:10;stroke-dasharray:none;stroke-opacity:1"
       d="M 641.04758,228.22575 V 194.21 h -8.50487 v -17.00815 h 8.50487 v -17.00703 h -8.50487 v -17.00815 h 8.50487 v -17.00845 h -8.50487 v -17.00815 h 8.50487 v -8.50366 h 4.25097 v -8.503367 h 17.0083 v 8.503367 h 17.0083 v -8.503367 h 17.00686 v 8.503367 h 17.00827 v -8.503367 h 17.00833 v 8.503367 h 17.0083 v -8.503367 h 17.00682 v 8.503367 h 4.25245 v 85.04022 h 8.5034 v -85.04022 h 4.25242 v -8.503367 h 17.00836 v 8.503367 h 17.00682 v -8.503367 h 17.0083 v 8.503367 h 17.00827 v -8.503367 h 17.00836 v 8.503367 h 17.00677 v -8.503367 h 17.00835 v 8.503367 h 4.25243 v 85.04022 h 8.50342 v -85.04022 h 4.25243 v -8.503367 h 17.00685 v 8.503367 h 17.00827 v -8.503367 h 17.00833 v 8.503367 h 17.00679 v -8.503367 h 17.00835 v 8.503367 h 17.0083 v -8.503367 h 17.0083 v 8.503367 h 4.251 v 85.04022 h 8.5049 v -85.04022 h 4.2509 v -8.503367 h 17.0083 v 8.503367 h 17.0083 v -8.503367 h 17.0069 v 8.503367 h 17.0083 v -8.503367 h 17.0083 v 8.503367 h 17.0083 v -8.503367 h 17.0068 v 8.503367 h 4.2524 v 8.50366 h 8.5035 v 17.00815 h -8.5035 v 17.00845 h 8.5035 v 17.00815 h -8.5035 v 17.00703 h 8.5035 V 194.21 h -8.5035 v 34.01575 l -9.3545,-0.001 c -0.1216,-29.61525 -24.1605,-53.56035 -53.7758,-53.56659 -29.6171,0 -53.6586,23.94964 -53.7803,53.56659 h -28.5073 c -0.1216,-29.61525 -24.1605,-53.56035 -53.77591,-53.56659 -29.61706,0 -53.65851,23.94964 -53.78026,53.56659 h -28.50732 c -0.12161,-29.61468 -24.1596,-53.5595 -53.77442,-53.56659 -29.61711,0 -53.6586,23.94964 -53.78032,53.56659 h -28.50729 c -0.12161,-29.61525 -24.16051,-53.56035 -53.77587,-53.56659 -29.61708,0 -53.65859,23.95106 -53.78028,53.568 z"
       id="path3290"
       inkscape:connector-curvature="0"
       sodipodi:nodetypes="ccccccccccccccccccccccccccccccccccccccccccccccccccccccccccccccccccccccccccccccccccccccccccccccccccccccccccccccccccccc" /><path
       style="fill:none;stroke:#ff0000;stroke-width:2.85448813;stroke-linecap:butt;stroke-linejoin:miter;stroke-miterlimit:10;stroke-dasharray:none;stroke-opacity:1"
       d="m 1543.9213,166.94634 v 0 m 0,0 v -8.50394 m 0,0 h -17.0079 m 0,0 v 8.50394 m 0,0 h 17.0079"
       id="path3292"
       inkscape:connector-curvature="0" /><path
       style="fill:none;stroke:#ff0000;stroke-width:2.85448813;stroke-linecap:butt;stroke-linejoin:miter;stroke-miterlimit:10;stroke-dasharray:none;stroke-opacity:1"
       d="m 1509.9056,166.94634 v 0 m 0,0 v -8.50394 m 0,0 h -17.0079 m 0,0 v 8.50394 m 0,0 h 17.0079"
       id="path3294"
       inkscape:connector-curvature="0" /><path
       style="fill:none;stroke:#ff0000;stroke-width:2.85448813;stroke-linecap:butt;stroke-linejoin:miter;stroke-miterlimit:10;stroke-dasharray:none;stroke-opacity:1"
       d="m 1475.8898,166.94634 v 0 m 0,0 v -8.50394 m 0,0 h -17.0078 m 0,0 v 8.50394 m 0,0 h 17.0078"
       id="path3296"
       inkscape:connector-curvature="0" /><path
       style="fill:none;stroke:#ff0000;stroke-width:2.85448813;stroke-linecap:butt;stroke-linejoin:miter;stroke-miterlimit:10;stroke-dasharray:none;stroke-opacity:1"
       d="m 1543.9213,316.4739 v 0 m 0,0 v -8.50394 m 0,0 h -17.0079 m 0,0 v 8.50394 m 0,0 h 17.0079"
       id="path3298"
       inkscape:connector-curvature="0" /><path
       style="fill:none;stroke:#ff0000;stroke-width:2.85448813;stroke-linecap:butt;stroke-linejoin:miter;stroke-miterlimit:10;stroke-dasharray:none;stroke-opacity:1"
       d="m 1509.9056,316.4739 v 0 m 0,0 v -8.50394 m 0,0 h -17.0079 m 0,0 v 8.50394 m 0,0 h 17.0079"
       id="path3300"
       inkscape:connector-curvature="0" /><path
       style="fill:none;stroke:#ff0000;stroke-width:2.85448813;stroke-linecap:butt;stroke-linejoin:miter;stroke-miterlimit:10;stroke-dasharray:none;stroke-opacity:1"
       d="m 1475.8898,316.4739 v 0 m 0,0 v -8.50394 m 0,0 h -17.0078 m 0,0 v 8.50394 m 0,0 h 17.0078"
       id="path3302"
       inkscape:connector-curvature="0" /><path
       style="fill:none;stroke:#ff0000;stroke-width:2.85448813;stroke-linecap:butt;stroke-linejoin:miter;stroke-miterlimit:10;stroke-dasharray:none;stroke-opacity:1"
       d="m 1543.9213,466.00146 v 0 m 0,0 v -8.50394 m 0,0 h -17.0079 m 0,0 v 8.50394 m 0,0 h 17.0079"
       id="path3304"
       inkscape:connector-curvature="0" /><path
       style="fill:none;stroke:#ff0000;stroke-width:2.85448813;stroke-linecap:butt;stroke-linejoin:miter;stroke-miterlimit:10;stroke-dasharray:none;stroke-opacity:1"
       d="m 1509.9056,466.00146 v 0 m 0,0 v -8.50394 m 0,0 h -17.0079 m 0,0 v 8.50394 m 0,0 h 17.0079"
       id="path3306"
       inkscape:connector-curvature="0" /><path
       style="fill:none;stroke:#ff0000;stroke-width:2.85448813;stroke-linecap:butt;stroke-linejoin:miter;stroke-miterlimit:10;stroke-dasharray:none;stroke-opacity:1"
       d="m 1475.8898,466.00146 v 0 m 0,0 v -8.50394 m 0,0 h -17.0078 m 0,0 v 8.50394 m 0,0 h 17.0078"
       id="path3308"
       inkscape:connector-curvature="0" /><path
       sodipodi:nodetypes="ccccccccccccccccccccccccccccccccccccccccccccccccccccccccccccccccccccccccccccccccccccccccccccccccccccccccccccccccc"
       inkscape:connector-curvature="0"
       id="path3310"
       d="m 1416.3623,8.914346 h 42.5199 v 8.504883 h 17.0071 V 8.914346 h 17.0081 v 8.504883 h 17.0085 V 8.914346 h 17.0081 v 8.504883 h 17.007 V 8.914346 h 8.5048 8.5034 v 8.504883 14.172363 h -8.5034 v 17.008301 h 8.5034 v 17.0083 h -8.5034 v 17.006834 h 8.5034 V 99.62333 h -8.5034 v 17.0083 h 8.5034 v 17.00831 h -8.5034 v 17.00683 h 8.5034 v 17.0083 h -8.5034 v 17.0083 h 8.5034 v 17.00684 h -8.5034 v 17.0083 h 8.5034 v 17.0083 h -8.5034 v 17.00683 h 8.5034 v 17.0083 h -8.5034 v 17.00831 h 8.5034 v 17.00828 h -8.5034 v 17.00686 h 8.5034 v 17.0083 h -8.5034 v 17.0083 h 8.5034 v 17.00682 h -8.5034 v 17.0083 h 8.5034 v 17.0083 h -8.5034 v 17.0083 h 8.5034 v 17.00685 h -8.5034 v 17.0083 h 8.5034 v 17.0083 h -8.5034 v 17.00683 h 8.5034 v 17.0083 h -8.5034 v 17.0083 h 8.5034 v 17.0083 h -8.5034 v 17.00685 h 8.5034 v 17.0083 h -8.5034 v 17.0083 h 8.5034 v 14.17235 8.5049 h -8.5034 -8.5048 v -8.5049 h -17.007 v 8.5049 h -17.0081 v -8.5049 h -17.0085 v 8.5049 h -17.0081 v -8.5049 h -17.0071 v 8.5049 h -42.5199 l -3e-4,-24.40871 c 29.3697,-0.44705 52.9497,-24.3733 52.9687,-53.74658 0,-29.37728 -23.5947,-53.30971 -52.9684,-53.75682 l -3e-4,-42.02345 c 29.3697,-0.44705 52.9497,-24.37331 52.9687,-53.74659 0,-29.37784 -23.5941,-53.31115 -52.9687,-53.75829 V 292.0657 c 29.3695,-0.44705 52.9489,-24.37239 52.9687,-53.74511 0,-29.37784 -23.5941,-53.31116 -52.9687,-53.7583 v -42.02343 c 29.3697,-0.44706 52.9497,-24.3733 52.9687,-53.74658 0,-29.377848 -23.5941,-53.311175 -52.9687,-53.758305 z"
       style="fill:none;stroke:#ff0000;stroke-width:2.85448813;stroke-linecap:butt;stroke-linejoin:miter;stroke-miterlimit:10;stroke-dasharray:none;stroke-opacity:1" /></g></svg>