<?xml version="1.0" encoding="UTF-8" standalone="no"?>
<svg
   xmlns:dc="http://purl.org/dc/elements/1.1/"
   xmlns:cc="http://creativecommons.org/ns#"
   xmlns:rdf="http://www.w3.org/1999/02/22-rdf-syntax-ns#"
   xmlns:svg="http://www.w3.org/2000/svg"
   xmlns="http://www.w3.org/2000/svg"
   xmlns:sodipodi="http://sodipodi.sourceforge.net/DTD/sodipodi-0.dtd"
   xmlns:inkscape="http://www.inkscape.org/namespaces/inkscape"
   width="140mm"
   height="130mm"
   viewBox="0 9870 140 130"
   version="1.1"
   id="svg4818"
   sodipodi:docname="Terninger.svg"
   inkscape:version="0.91 r13725">
  <metadata
     id="metadata4824">
    <rdf:RDF>
      <cc:Work
         rdf:about="">
        <dc:format>image/svg+xml</dc:format>
        <dc:type
           rdf:resource="http://purl.org/dc/dcmitype/StillImage" />
      </cc:Work>
    </rdf:RDF>
  </metadata>
  <defs
     id="defs4822" />
  <sodipodi:namedview
     pagecolor="#ffffff"
     bordercolor="#666666"
     borderopacity="1"
     objecttolerance="10"
     gridtolerance="10"
     guidetolerance="10"
     inkscape:pageopacity="0"
     inkscape:pageshadow="2"
     inkscape:window-width="1366"
     inkscape:window-height="705"
     id="namedview4820"
     showgrid="false"
     inkscape:zoom="1.5"
     inkscape:cx="139.81481"
     inkscape:cy="272.33596"
     inkscape:window-x="-8"
     inkscape:window-y="-8"
     inkscape:window-maximized="1"
     inkscape:current-layer="svg4818" />
  <path
     inkscape:connector-curvature="0"
     id="path4807"
     d="m 3.75,9999.25 h 3 m 0,0 v 0 m 0,0 v -3 m 0,0 h 6 m 0,0 v 3 m 0,0 h 6 m 0,0 v 0 m 0,0 v -3 m 0,0 h 6 m 0,0 v 3 m 0,0 h 6 m 0,0 v 0 m 0,0 v -3 m 0,0 h 6 m 0,0 v 3 m 0,0 h 6 m 0,0 v 0 m 0,0 v -3 m 0,0 h 6 m 0,0 v 3 m 0,0 h 6 m 0,0 v 0 m 0,0 v -3 m 0,0 h 6 m 0,0 v 3 m 0,0 h 6 m 0,0 v 0 m 0,0 v -3 m 0,0 h 6 m 0,0 v 3 m 0,0 h 6 m 0,0 v 0 m 0,0 v -3 m 0,0 h 6 m 0,0 v 3 m 0,0 h 3 m 0,0 h 3 m 0,0 v -3 m 0,0 v -7 m 0,0 v 0 m 0,0 h -3 m 0,0 v -6 m 0,0 h 3 m 0,0 v -6 m 0,0 v 0 m 0,0 h -3 m 0,0 v -6 m 0,0 h 3 m 0,0 v -7 m 0,0 v 0 m 0,0 h -3 m 0,0 h -84 m 0,0 h -3 m 0,0 v 0 m 0,0 v 7 m 0,0 v 0 m 0,0 h 3 m 0,0 v 6 m 0,0 h -3 m 0,0 v 6 m 0,0 v 0 m 0,0 h 3 m 0,0 v 6 m 0,0 h -3 m 0,0 v 7 m 0,0 v 3 m 0,0 h 3"
     style="fill:none;stroke:#ff0000;stroke-width:1.00700001;stroke-linecap:butt;stroke-linejoin:miter;stroke-miterlimit:10;stroke-opacity:1;stroke-dasharray:none" />
  <path
     inkscape:connector-curvature="0"
     id="path4809"
     d="m 3.75,9962.75 h 3 m 0,0 v 0 m 0,0 v -3 m 0,0 h 6 m 0,0 v 3 m 0,0 h 6 m 0,0 v 0 m 0,0 v -3 m 0,0 h 6 m 0,0 v 3 m 0,0 h 6 m 0,0 v 0 m 0,0 v -3 m 0,0 h 6 m 0,0 v 3 m 0,0 h 6 m 0,0 v 0 m 0,0 v -3 m 0,0 h 6 m 0,0 v 3 m 0,0 h 6 m 0,0 v 0 m 0,0 v -3 m 0,0 h 6 m 0,0 v 3 m 0,0 h 6 m 0,0 v 0 m 0,0 v -3 m 0,0 h 6 m 0,0 v 3 m 0,0 h 6 m 0,0 v 0 m 0,0 v -3 m 0,0 h 6 m 0,0 v 3 m 0,0 h 3 m 0,0 h 3 m 0,0 v -3 m 0,0 v -7 m 0,0 v 0 m 0,0 h -3 m 0,0 v -6 m 0,0 h 3 m 0,0 v -6 m 0,0 v 0 m 0,0 h -3 m 0,0 v -6 m 0,0 h 3 m 0,0 v -7 m 0,0 v 0 m 0,0 h -3 m 0,0 h -84 m 0,0 h -3 m 0,0 v 0 m 0,0 v 7 m 0,0 v 0 m 0,0 h 3 m 0,0 v 6 m 0,0 h -3 m 0,0 v 6 m 0,0 v 0 m 0,0 h 3 m 0,0 v 6 m 0,0 h -3 m 0,0 v 7 m 0,0 v 3 m 0,0 h 3"
     style="fill:none;stroke:#ff0000;stroke-width:1.00700001;stroke-linecap:butt;stroke-linejoin:miter;stroke-miterlimit:10;stroke-opacity:1;stroke-dasharray:none" />
  <path
     inkscape:connector-curvature="0"
     id="path4811"
     d="m 3.75,9923.25 h 3 m 0,0 v 0 m 0,0 v 3 m 0,0 h 6 m 0,0 v -3 m 0,0 h 6 m 0,0 v 0 m 0,0 v 3 m 0,0 h 6 m 0,0 v -3 m 0,0 h 6 m 0,0 v 0 m 0,0 v 3 m 0,0 h 6 m 0,0 v -3 m 0,0 h 6 m 0,0 v 0 m 0,0 v 3 m 0,0 h 6 m 0,0 v -3 m 0,0 h 6 m 0,0 v 0 m 0,0 v 3 m 0,0 h 6 m 0,0 v -3 m 0,0 h 6 m 0,0 v 0 m 0,0 v 3 m 0,0 h 6 m 0,0 v -3 m 0,0 h 6 m 0,0 v 0 m 0,0 v 3 m 0,0 h 6 m 0,0 v -3 m 0,0 h 3 m 0,0 v 0 m 0,0 v 0 m 0,0 v -2.5 m 0,0 v 0 m 0,0 h 3 m 0,0 v -6 m 0,0 h -3 m 0,0 v -6 m 0,0 v 0 m 0,0 h 3 m 0,0 v -6 m 0,0 h -3 m 0,0 v -6 m 0,0 v 0 m 0,0 h 3 m 0,0 v -6 m 0,0 h -3 m 0,0 v -2.5 m 0,0 v 0 m 0,0 v 0 m 0,0 h -3 m 0,0 v 0 m 0,0 v -3 m 0,0 h -6 m 0,0 v 3 m 0,0 h -6 m 0,0 v 0 m 0,0 v -3 m 0,0 h -6 m 0,0 v 3 m 0,0 h -6 m 0,0 v 0 m 0,0 v -3 m 0,0 h -6 m 0,0 v 3 m 0,0 h -6 m 0,0 v 0 m 0,0 v -3 m 0,0 h -6 m 0,0 v 3 m 0,0 h -6 m 0,0 v 0 m 0,0 v -3 m 0,0 h -6 m 0,0 v 3 m 0,0 h -6 m 0,0 v 0 m 0,0 v -3 m 0,0 h -6 m 0,0 v 3 m 0,0 h -6 m 0,0 v 0 m 0,0 v -3 m 0,0 h -6 m 0,0 v 3 m 0,0 h -3 m 0,0 v 0 m 0,0 v 0 m 0,0 v 2.5 m 0,0 v 0 m 0,0 h -3 m 0,0 v 6 m 0,0 h 3 m 0,0 v 6 m 0,0 v 0 m 0,0 h -3 m 0,0 v 6 m 0,0 h 3 m 0,0 v 6 m 0,0 v 0 m 0,0 h -3 m 0,0 v 6 m 0,0 h 3 m 0,0 v 2.5 m 0,0 v 0 m 0,0 v 0"
     style="fill:none;stroke:#ff0000;stroke-width:1.00700001;stroke-linecap:butt;stroke-linejoin:miter;stroke-miterlimit:10;stroke-opacity:1;stroke-dasharray:none" />
  <path
     style="fill:none;stroke:#ff0000;stroke-width:3.80598435;stroke-linecap:butt;stroke-linejoin:miter;stroke-miterlimit:10;stroke-dasharray:none;stroke-opacity:1"
     d="M 360 356.2207 L 360 382.67773 L 348.66211 382.67773 L 348.66211 405.35352 L 360 405.35352 L 360 428.03125 L 348.66211 428.03125 L 348.66211 450.70898 L 360 450.70898 L 360 477.16602 L 360 488.50391 L 369.44922 488.50391 L 369.44922 477.16602 L 392.12695 477.16602 L 392.12695 488.50391 L 414.80273 488.50391 L 414.80273 477.16602 L 437.48047 477.16602 L 437.48047 488.50391 L 460.1582 488.50391 L 460.1582 477.16602 L 482.83398 477.16602 L 482.83398 488.50391 L 492.2832 488.50391 L 492.2832 477.16602 L 492.2832 450.70898 L 503.62109 450.70898 L 503.62109 428.03125 L 492.2832 428.03125 L 492.2832 405.35352 L 503.62109 405.35352 L 503.62109 382.67773 L 492.2832 382.67773 L 492.2832 356.2207 L 476.83203 356.2207 A 50.929132 50.929132 0 0 1 425.95703 406.10156 A 50.929132 50.929132 0 0 1 375.06445 356.2207 L 360 356.2207 z "
     transform="matrix(0.26458333,0,0,0.26458333,0,9870)"
     id="path4813" />
  <path
     style="fill:none;stroke:#ff0000;stroke-width:3.80598435;stroke-linecap:butt;stroke-linejoin:miter;stroke-miterlimit:10;stroke-dasharray:none;stroke-opacity:1"
     d="M 360 218.26758 L 360 244.72461 L 348.66211 244.72461 L 348.66211 267.40234 L 360 267.40234 L 360 290.07812 L 348.66211 290.07812 L 348.66211 312.75586 L 360 312.75586 L 360 339.21289 L 360 350.55078 L 369.44922 350.55078 L 369.44922 339.21289 L 392.12695 339.21289 L 392.12695 350.55078 L 414.80273 350.55078 L 414.80273 339.21289 L 437.48047 339.21289 L 437.48047 350.55078 L 460.1582 350.55078 L 460.1582 339.21289 L 482.83398 339.21289 L 482.83398 350.55078 L 492.2832 350.55078 L 492.2832 339.21289 L 492.2832 312.75586 L 503.62109 312.75586 L 503.62109 290.07812 L 492.2832 290.07812 L 492.2832 267.40234 L 503.62109 267.40234 L 503.62109 244.72461 L 492.2832 244.72461 L 492.2832 218.26758 L 476.75781 218.26758 A 50.929132 50.929132 0 0 1 425.95703 266.6543 A 50.929132 50.929132 0 0 1 375.11719 218.26758 L 360 218.26758 z "
     transform="matrix(0.26458333,0,0,0.26458333,0,9870)"
     id="path4815" />
</svg>
